<svg xmlns="http://www.w3.org/2000/svg" xmlns:xlink="http://www.w3.org/1999/xlink" width="43" height="41.842" viewBox="0 0 43 41.842">
  <defs>
    <clipPath id="clip-path">
      <rect id="長方形_35" data-name="長方形 35" width="43" height="41.842" fill="none"/>
    </clipPath>
  </defs>
  <g id="グループ_11" data-name="グループ 11" transform="translate(0 0)">
    <g id="グループ_10" data-name="グループ 10" transform="translate(0 0)" clip-path="url(#clip-path)">
      <path id="パス_16" data-name="パス 16" d="M27.607,13.683l-.1-.006-.02-.016-.021.014a6.587,6.587,0,0,1-2.084-.332c-.143-.184-.358-.328-.317-.612a4.968,4.968,0,0,1,.107-.707,8.676,8.676,0,0,0,.335-1.487,9.85,9.85,0,0,0-.386-3.966,10.237,10.237,0,0,0-2.133-3.72c-.3-.343-.711-.6-.863-1.059C22.4.846,23.2.482,24.036.161c.079-.03.181-.008.236-.1l.015-.028A.419.419,0,0,0,24.237,0H25.5c-.1.143.043.116.1.13a5.625,5.625,0,0,1,3.15,2,23.08,23.08,0,0,1,1.3,1.959,2.81,2.81,0,0,1,.36,1.072,3.818,3.818,0,0,1-.662.893,7.284,7.284,0,0,0-2.02,3.521,6.893,6.893,0,0,0-.3,2.92,8.44,8.44,0,0,1,.169,1.192" transform="translate(1.585 0)" fill="#fde9ea"/>
      <path id="パス_17" data-name="パス 17" d="M15.355,21.807c.077,0,.154-.007.233-.009.6-.011.581-.017.758-.563a3.621,3.621,0,0,1,.439-.974c.481-.68.751-1.475,1.274-2.133A5.551,5.551,0,0,1,19.4,16.84a1.441,1.441,0,0,1,1.124-.16c.49.122.985.228,1.469.386a1.125,1.125,0,0,0,1.24-.2c-.014.333.141.517.574.679a7.8,7.8,0,0,1,.977.382,9.666,9.666,0,0,0,1.779.836,7.724,7.724,0,0,0,2.383.524,20.842,20.842,0,0,0,2.839-.317,4.7,4.7,0,0,1,3.52,1.024,3.579,3.579,0,0,1,1.06,1.387,9.1,9.1,0,0,1,.666,4.791c-.163,1.7-.451,3.384-.642,5.08a6.291,6.291,0,0,1-.635,2.291,1.449,1.449,0,0,0-.1.866c.025.207.293.132.375.281a.811.811,0,0,0-.475.186,5.748,5.748,0,0,1-3.16,1.31,3.689,3.689,0,0,1-1.115.1.677.677,0,0,0-.644-.306,5.866,5.866,0,0,0-1.271.338,5.708,5.708,0,0,0-1.7.4,12.89,12.89,0,0,1-1.949.822,2.945,2.945,0,0,0-1.415.936.661.661,0,0,0-.16.72,6.87,6.87,0,0,0-1.2.379.576.576,0,0,0-.273.27,1.442,1.442,0,0,1-1.361.809A8.966,8.966,0,0,1,17.236,39.6,11.8,11.8,0,0,1,12.8,36.389a17.2,17.2,0,0,1-2.953-5.061,4.246,4.246,0,0,1-.05-2.88,5,5,0,0,1,1.565-1.99A10.724,10.724,0,0,0,12.793,25.4c.2-.229.472-.445.363-.822-.034-.121-.08-.2-.206-.215.08-.033.16-.072.242-.1a2.631,2.631,0,0,0,2.12-2.336.489.489,0,0,1,.043-.122" transform="translate(0.686 1.192)" fill="#f69c9e"/>
      <path id="パス_18" data-name="パス 18" d="M35.126,34.774c-.084-.149-.351-.075-.376-.281a1.465,1.465,0,0,1,.1-.866,6.3,6.3,0,0,0,.637-2.291c.191-1.7.479-3.38.642-5.081a9.1,9.1,0,0,0-.667-4.79A3.591,3.591,0,0,0,34.4,20.077a4.7,4.7,0,0,0-3.52-1.023,21.009,21.009,0,0,1-2.84.317,7.724,7.724,0,0,1-2.382-.524,9.679,9.679,0,0,1-1.78-.837,7.665,7.665,0,0,0-.977-.38c-.432-.163-.588-.346-.573-.68.228-.291.454-.589.7-.868a2.036,2.036,0,0,1,2-.61,13.044,13.044,0,0,1,2.628.8c1.023.41,2.041.831,3.036,1.313a4.08,4.08,0,0,0,1.829.545l.012.016.016-.012.577.038.005.016.005-.016.374-.039.018.01.013-.017a11.354,11.354,0,0,0,2.312-.359,3.229,3.229,0,0,1,1.285.034,6.714,6.714,0,0,1,1.785.593,3.35,3.35,0,0,1,1.494,1.469,7.211,7.211,0,0,1,.931,2.829,7.413,7.413,0,0,1-.031,2.088c-.04.3-.07.6-.083.9-.033.763-.167,1.515-.239,2.272-.07.736-.269,1.449-.31,2.188a7.194,7.194,0,0,1-.373,1.626A7.231,7.231,0,0,1,39.96,32.8a3.8,3.8,0,0,1-2.547,2.157,3.816,3.816,0,0,1-1.246-.08c-.347-.025-.69-.1-1.041-.106" transform="translate(1.6 1.106)" fill="#fde9ea"/>
      <path id="パス_19" data-name="パス 19" d="M7.114,14.7a3.769,3.769,0,0,0-.4-2.107,22.275,22.275,0,0,1-.647-2.157A4.707,4.707,0,0,1,8.277,5.628a2.279,2.279,0,0,1,1.951-.2,2.279,2.279,0,0,0,1.95-.243c.036.225-.1.465.111.679A12.01,12.01,0,0,0,13.4,6.9a9.3,9.3,0,0,1,2.491,3.288A9.575,9.575,0,0,1,16.507,12a6.053,6.053,0,0,1,.2,3.054,8.677,8.677,0,0,0-.275,1.564.7.7,0,0,0-.714.3c-.237.3-.519.558-.752.862a.83.83,0,0,0-.2.688c-.595-.064-1.188-.136-1.784-.19a4.455,4.455,0,0,1-1.528-.424,11.461,11.461,0,0,1-2.877-1.918A5.139,5.139,0,0,0,7.114,14.7" transform="translate(0.429 0.372)" fill="#f69c9e"/>
      <path id="パス_20" data-name="パス 20" d="M22.558,1.7c.152.458.564.716.862,1.059a10.255,10.255,0,0,1,2.134,3.72,9.869,9.869,0,0,1,.386,3.966,8.58,8.58,0,0,1-.336,1.487,4.967,4.967,0,0,0-.107.707c-.04.284.175.428.318.612a.3.3,0,0,1-.255.034c-.378-.155-.634.05-.881.28a2.725,2.725,0,0,0-.272.284,2.658,2.658,0,0,1-2.246.96,1.148,1.148,0,0,0-1.119.463c-.132-.219-.1-.536-.375-.664a6.793,6.793,0,0,1-2-1.619,7.151,7.151,0,0,1-1.62-2.557A10.777,10.777,0,0,1,16.4,6.875a4.583,4.583,0,0,0-.335-2.188,1.292,1.292,0,0,0,.828-.816,4.112,4.112,0,0,1,1.282-1.714c.19-.165.412-.294.611-.449a2.195,2.195,0,0,1,2.2-.263c.26.087.52.181.777.279a.928.928,0,0,0,.8-.025" transform="translate(1.151 0.091)" fill="#f69c9e"/>
      <path id="パス_21" data-name="パス 21" d="M27.255,13.338a8.441,8.441,0,0,0-.169-1.192,6.893,6.893,0,0,1,.3-2.92A7.284,7.284,0,0,1,29.4,5.7a3.818,3.818,0,0,0,.662-.893.844.844,0,0,0,.248.073,29.887,29.887,0,0,0,3.832,0,2.856,2.856,0,0,0,.45,1.67,8.6,8.6,0,0,1,.412.78,7.508,7.508,0,0,1,.709,4.073,10.818,10.818,0,0,1-.672,2.762,1.942,1.942,0,0,0-.226,1.289c-.7.079-1.088.645-1.589,1.015a2.873,2.873,0,0,1-2.633.618,3.734,3.734,0,0,1-2.075-1.549,6.193,6.193,0,0,1-.691-1.407,1.368,1.368,0,0,0-.575-.8" transform="translate(1.936 0.345)" fill="#f69c9e"/>
      <path id="パス_22" data-name="パス 22" d="M10.832,24.2A4.81,4.81,0,0,1,8.76,25.831a1.977,1.977,0,0,1-1.394.1A9.677,9.677,0,0,1,2,22.29,6.562,6.562,0,0,1,.755,18.438a3.751,3.751,0,0,1,.12-1.605,2.029,2.029,0,0,1,1.37-1.259,2.761,2.761,0,0,0,.632-.258,2.115,2.115,0,0,1,1.889.013,2.614,2.614,0,0,0,.913.276c.462-.014.535-.047.664-.467a.706.706,0,0,0,.375.541A7.849,7.849,0,0,1,8.33,17.015a9.054,9.054,0,0,1,1.545,2.124,13.087,13.087,0,0,1,1.053,2.848,1.914,1.914,0,0,1-.041.967,2.168,2.168,0,0,0-.057,1.244" transform="translate(0.052 1.082)" fill="#f69c9e"/>
      <path id="パス_23" data-name="パス 23" d="M34.344,15.552a1.943,1.943,0,0,1,.226-1.289,10.8,10.8,0,0,0,.672-2.762,7.51,7.51,0,0,0-.709-4.073c-.119-.268-.267-.524-.413-.78a2.863,2.863,0,0,1-.449-1.67,4.429,4.429,0,0,1,2.454-1.4,2.5,2.5,0,0,1,2.1.453,5.519,5.519,0,0,1,1.935,2.987,6.815,6.815,0,0,1,.148.925.059.059,0,0,0,.011.092c.005.121.01.241.015.362l-.017.016.017.016c0,.078,0,.158.005.236-.005.009-.015.018-.014.026a.258.258,0,0,0,.017.056c0,.06,0,.12,0,.18l-.015.009.015.01v.241l-.015.011.015.012,0,.236-.016.014.015.016c0,.077,0,.154,0,.231l-.017.014.017.014c0,.078,0,.155,0,.234a1.5,1.5,0,0,0-.046.552,6.358,6.358,0,0,1-2.787,4.76,2.88,2.88,0,0,1-3.151.276" transform="translate(2.412 0.252)" fill="#fde9ea"/>
      <path id="パス_24" data-name="パス 24" d="M10.456,24.272a2.168,2.168,0,0,1,.057-1.244,1.914,1.914,0,0,0,.041-.967A13.087,13.087,0,0,0,9.5,19.212a9.054,9.054,0,0,0-1.545-2.124,7.849,7.849,0,0,0-1.612-1.336.706.706,0,0,1-.375-.541c.01-.077.019-.154.028-.23.01-.031.019-.062.028-.093l.071-.083H6.12l.009-.024c.255-.153.514-.3.764-.461.1-.061.223-.113.222-.258A5.173,5.173,0,0,1,8.58,15.3a11.436,11.436,0,0,0,2.877,1.919,4.455,4.455,0,0,0,1.528.424c.6.054,1.19.125,1.784.19a2.935,2.935,0,0,1,.806,1.64c.043.221.108.437.163.656a.148.148,0,0,0,.015.156c.006.08.014.162.02.242a1.558,1.558,0,0,0-.054.5l-.094.152a.237.237,0,0,0-.015.218c0,.2,0,.4,0,.6a.489.489,0,0,0-.043.122,2.631,2.631,0,0,1-2.12,2.336c-.083.028-.162.066-.242.1l-.541.085-.076.013-.749.015-.013-.016-.016.011c-.47-.066-.9-.286-1.357-.385" transform="translate(0.428 1.008)" fill="#fde9ea"/>
      <path id="パス_25" data-name="パス 25" d="M16.372,4.49a4.583,4.583,0,0,1,.335,2.188,10.772,10.772,0,0,0,.646,3.557,7.131,7.131,0,0,0,1.62,2.558,6.785,6.785,0,0,0,2,1.618c.279.129.244.446.376.664-.02.068-.042.135-.062.2-.039-.019-.07-.015-.085.031a10.178,10.178,0,0,1-1,1.053,2.267,2.267,0,0,1-1.435.619,6.061,6.061,0,0,1-2.681-.22c0-.032-.014-.041-.043-.026-.008-.012-.016-.023-.024-.033A8.568,8.568,0,0,1,16.3,15.14a6.069,6.069,0,0,0-.2-3.055,9.568,9.568,0,0,0-.614-1.814,9.294,9.294,0,0,0-2.491-3.288,12.16,12.16,0,0,1-1.112-1.029c-.211-.214-.074-.454-.11-.679l.035-.093.02,0,0-.019A.572.572,0,0,1,11.937,5a3.97,3.97,0,0,1,3.36-.867,4.553,4.553,0,0,0,1.075.356" transform="translate(0.842 0.288)" fill="#fde9ea"/>
      <path id="パス_26" data-name="パス 26" d="M23.175,37.9a.664.664,0,0,1,.161-.72,2.935,2.935,0,0,1,1.415-.936,12.983,12.983,0,0,0,1.949-.822,5.734,5.734,0,0,1,1.7-.4,5.829,5.829,0,0,1,1.272-.337.675.675,0,0,1,.644.305,6.289,6.289,0,0,0-2.656,1.773c-.3.305-.552.654-.863.945a1.653,1.653,0,0,1-1.474.424,5.469,5.469,0,0,0-1.02-.1,4.919,4.919,0,0,1-1.132-.133" transform="translate(1.657 2.485)" fill="#fde9ea"/>
      <path id="パス_27" data-name="パス 27" d="M15.068,20.589a1.555,1.555,0,0,1,.054-.5c.2.189.14.35-.054.5" transform="translate(1.08 1.44)" fill="#751019"/>
      <path id="パス_28" data-name="パス 28" d="M39.839,10.084a1.5,1.5,0,0,1,.045-.552.962.962,0,0,1-.045.552" transform="translate(2.854 0.683)" fill="#751019"/>
      <path id="パス_29" data-name="パス 29" d="M14.967,20.915a.234.234,0,0,1,.015-.218c.152.083.122.153-.015.218" transform="translate(1.071 1.483)" fill="#751019"/>
      <path id="パス_30" data-name="パス 30" d="M6.023,14.832c-.01.031-.018.062-.028.093-.027-.042-.033-.077.028-.093" transform="translate(0.428 1.063)" fill="#751019"/>
      <path id="パス_31" data-name="パス 31" d="M15.1,19.876a.146.146,0,0,1-.015-.156.136.136,0,0,1,.015.156" transform="translate(1.08 1.413)" fill="#751019"/>
      <path id="パス_32" data-name="パス 32" d="M20.572,14.557c.014-.047.045-.05.085-.031-.011.055-.048.043-.085.031" transform="translate(1.474 1.04)" fill="#751019"/>
      <path id="パス_33" data-name="パス 33" d="M39.871,7.735a.058.058,0,0,1-.011-.091.057.057,0,0,1,.011.091" transform="translate(2.855 0.548)" fill="#751019"/>
      <path id="パス_34" data-name="パス 34" d="M.021,18.467,0,18.453l.021-.013.01.014Z" transform="translate(0 1.321)" fill="#751019"/>
      <path id="パス_35" data-name="パス 35" d="M39.892,8.4a.381.381,0,0,1-.017-.057c0-.008.01-.016.015-.025,0,.028,0,.055,0,.081" transform="translate(2.857 0.596)" fill="#751019"/>
      <path id="パス_36" data-name="パス 36" d="M39.887,9.316,39.871,9.3l.016-.014v.028" transform="translate(2.857 0.666)" fill="#751019"/>
      <path id="パス_37" data-name="パス 37" d="M39.89,9.074l-.016-.016.017-.014.009.015Z" transform="translate(2.857 0.648)" fill="#751019"/>
      <path id="パス_38" data-name="パス 38" d="M15.759,15.886c.03-.015.044-.005.043.027l-.043-.027" transform="translate(1.129 1.138)" fill="#751019"/>
      <path id="パス_39" data-name="パス 39" d="M31.858,17.952l-.016.012-.012-.017.017-.01Z" transform="translate(2.281 1.285)" fill="#751019"/>
      <path id="パス_40" data-name="パス 40" d="M32.785,17.943l-.013.017-.018-.01.012-.016Z" transform="translate(2.347 1.285)" fill="#751019"/>
      <path id="パス_41" data-name="パス 41" d="M32.405,17.986,32.4,18l-.005-.016h.011" transform="translate(2.321 1.289)" fill="#751019"/>
      <path id="パス_42" data-name="パス 42" d="M39.885,8.1l-.018-.016.018-.016.01.016Z" transform="translate(2.856 0.578)" fill="#751019"/>
      <path id="パス_43" data-name="パス 43" d="M6.12,14.734l-.009.024H6.086l.009-.025Z" transform="translate(0.436 1.056)" fill="#751019"/>
      <path id="パス_44" data-name="パス 44" d="M11.816,5.08l0,.02-.02,0,0-.02Z" transform="translate(0.845 0.364)" fill="#751019"/>
      <path id="パス_45" data-name="パス 45" d="M12.148,23.94l.076-.013a.045.045,0,0,1-.076.013" transform="translate(0.87 1.715)" fill="#751019"/>
      <path id="パス_46" data-name="パス 46" d="M27.107,12.761l.021-.014.02.017-.023.013Z" transform="translate(1.942 0.914)" fill="#751019"/>
      <path id="パス_47" data-name="パス 47" d="M39.893,8.579l-.015-.01.015-.009v.018" transform="translate(2.857 0.614)" fill="#751019"/>
      <path id="パス_48" data-name="パス 48" d="M11.422,23.948l.017-.011.013.016-.017.01Z" transform="translate(0.818 1.715)" fill="#751019"/>
      <path id="パス_49" data-name="パス 49" d="M39.893,8.826l-.015-.012.015-.012v.024" transform="translate(2.857 0.631)" fill="#751019"/>
    </g>
  </g>
</svg>
