<svg xmlns="http://www.w3.org/2000/svg" xmlns:xlink="http://www.w3.org/1999/xlink" width="130.677" height="30.788" viewBox="0 0 130.677 30.788">
  <defs>
    <clipPath id="clip-path">
      <rect id="長方形_36" data-name="長方形 36" width="130.677" height="20" fill="#fde9ea"/>
    </clipPath>
  </defs>
  <g id="グループ_35" data-name="グループ 35" transform="translate(-59 -40.212)">
    <text id="SHOWA_Animal_Clinic" data-name="SHOWA Animal Clinic" transform="translate(72 70)" fill="#f69c9e" font-size="6" font-family="BIZ-UDPGothic-Bold, BIZ UDPGothic" font-weight="700" letter-spacing="0.3em"><tspan x="0" y="0">SHOWA Animal Clinic</tspan></text>
    <g id="グループ_13" data-name="グループ 13" transform="translate(59 40.212)">
      <g id="マスクグループ_12" data-name="マスクグループ 12" transform="translate(0 0)" clip-path="url(#clip-path)">
        <path id="パス_50" data-name="パス 50" d="M151.677,19.3a.879.879,0,0,1,.454.394.059.059,0,0,0,.017-.011.185.185,0,0,0,.015-.02v.1c-.026-.012-.046-.006-.046.024s.018.038.046.028v1.663c-.174-.046-.139.136-.139.173,0,.268-.193.394-.385.5a3.379,3.379,0,0,1-1.3.414.448.448,0,0,0-.3.02l-.114.014a.445.445,0,0,0-.3,0l-.276-.018a.5.5,0,0,0-.3,0l-.12,0a.171.171,0,0,0-.146-.005,6.256,6.256,0,0,1-2.549-.562c-.069-.034-.144-.057-.217-.086-.03-.065-.067-.118-.153-.085l-.069-.062c.185-.131.445-.093.616-.258.008-.007.034,0,.051.009a3.778,3.778,0,0,1,.459.121,4.692,4.692,0,0,0,2.186.147,7.745,7.745,0,0,0,1.985-.675.294.294,0,0,0,.192-.284c.026-.387.052-.775.083-1.162.015-.2.043-.391.316-.388" transform="translate(-21.486 -2.845)" fill="#fde9ea"/>
        <path id="パス_51" data-name="パス 51" d="M149.142,16.552c-.274,0-.3.191-.317.388-.03.387-.055.775-.083,1.162a.292.292,0,0,1-.191.284,7.744,7.744,0,0,1-1.985.675,4.7,4.7,0,0,1-2.187-.147,3.737,3.737,0,0,0-.459-.121c-.016,0-.043-.015-.05-.009-.171.165-.431.127-.616.258a3.257,3.257,0,0,1-1.865-2.629c-.031-.353.022-.7-.026-1.055A.579.579,0,0,0,141,14.88a9.914,9.914,0,0,0,.2-1.451.877.877,0,0,0-.026-.435c-.107-.252-.211-.283-.4-.092a1.339,1.339,0,0,0-.407.739,6.93,6.93,0,0,1-1.067,2.6c-.181.288-.474.5-.6.819a1.022,1.022,0,0,1-.544.57,1.069,1.069,0,0,0-.259.176,7.457,7.457,0,0,1-2.384,1.235,5.675,5.675,0,0,1-1.4.211c-.162.021-.293.052-.345.223a9.447,9.447,0,0,0-.819-.691,1.193,1.193,0,0,1-.425-.7c-.009-.068-.029-.155-.108-.164-.252-.026-.295-.209-.343-.4-.035-.139-.1-.235-.249-.094a5.2,5.2,0,0,1-.042-1.266c0-.159.1-.225.246-.259a3.761,3.761,0,0,1,.765-.038,5.018,5.018,0,0,0,2.06-.4,2.907,2.907,0,0,0,1.287-.909,1.43,1.43,0,0,1,.529-.455c.06.13.189.214.2.38.011.15.11.1.2.038.4-.276.819-.538.668-1.127,0-.014.008-.033.012-.049,0-.086.083-.1.124-.157.113-.146.353-.246.292-.457s-.314-.085-.465-.159a.086.086,0,0,0-.026-.005,1.691,1.691,0,0,0-1.5.373c-.272.292-.541.589-.784.9a2.857,2.857,0,0,1-2.735,1.231,1.62,1.62,0,0,0-1.229.359.959.959,0,0,0-.366.685c-.119.918.047,1.847-.129,2.765-.043.227-.113.306-.339.324-.179.014-.386-.023-.529.14a.948.948,0,0,1-.581-.806,20.747,20.747,0,0,1-.217-2.664c.008-2.712,0-5.424,0-8.137a21.992,21.992,0,0,0-.048-2.323,4.062,4.062,0,0,0-.385-1.37,3.718,3.718,0,0,1-.237-1.783.518.518,0,0,1,.422-.478,3.713,3.713,0,0,1,1.017-.154c.8,0,1.608,0,2.412.018A11.687,11.687,0,0,1,135.7,2.2a3.269,3.269,0,0,0,1.023.071c.689-.005,1.38-.033,2.066.026a3.009,3.009,0,0,0,1.145-.043.409.409,0,0,0,.32-.362,3.766,3.766,0,0,0,.043-.777.346.346,0,0,1,.271-.381A1.5,1.5,0,0,1,142.1.97a2.589,2.589,0,0,0,.379.231,3.208,3.208,0,0,1,.877.66,1.541,1.541,0,0,0,1.395.425,4.736,4.736,0,0,1,2.8.354,2.027,2.027,0,0,1,.749.583c-.426.152-.536.3-.523.755q.043,1.375.1,2.749a.547.547,0,0,1-.417.65l-1.478.634a.99.99,0,0,0-.638.821c-.059.408-.067.407-.488.492-.069.014-.18.043-.086.118.172.138.321.351.574.338a.88.88,0,0,0,.8-.465.341.341,0,0,1,.169-.189c-.049.456.218.657.62.792a2.208,2.208,0,0,1,1.159.813c-.205.169-.172.4-.174.623,0,.32.008.639.02.959.006.16-.049.234-.226.237-.555.01-1.109.033-1.664.051a12.422,12.422,0,0,0-2.207.2.711.711,0,0,0-.541.861c.037.148.145.3.076.452a1.632,1.632,0,0,0,.082,1.085c.026.122.13.183.284.173a1.915,1.915,0,0,0,.51-.173,2.114,2.114,0,0,1,.024.23.455.455,0,0,0,.385.476,3.64,3.64,0,0,0,1.977.04,5.572,5.572,0,0,1,1.628-.066c.448.023.639.378.876.67m-15.45-6.916a.842.842,0,0,1,.086-.35.228.228,0,0,0-.026-.242.681.681,0,0,0-1.114.054.45.45,0,0,1-.378.236,4.545,4.545,0,0,1-.677-.078c-.173,0-.423-.072-.471.194a7.471,7.471,0,0,0-.1,1.706.96.96,0,0,0,.288.679c.226.209.4.163.565-.084.094-.143.053-.3.134-.436a.893.893,0,0,1,0,.485c-.063.236.271.656.448.561a2.436,2.436,0,0,0,1.17-.97,8.645,8.645,0,0,0,.553-1.226,2.086,2.086,0,0,0,.1-.763c0-.052,0-.114-.058-.134s-.084.042-.116.083c-.1.137-.2.289-.408.286m11.065-3.821c.037,0,.134.009.231.014.205.009.371-.045.408-.274s-.094-.356-.3-.416a2.089,2.089,0,0,0-.709-.068c-.668.04-1.339.016-2.007.032-.88.02-1.763,0-2.646.008a12.334,12.334,0,0,0-1.665.031.487.487,0,0,0-.42.554c.039.229.273.124.414.179a.747.747,0,0,0,.263.009c.573-.007,1.145-.016,1.718-.015,1.553,0,3.107.061,4.718-.052M131,6.362a2.075,2.075,0,0,0,.078.643c.04.1.078.2.21.2a.259.259,0,0,0,.267-.173,1.276,1.276,0,0,0,.158-.649,2.377,2.377,0,0,1,.084-.772.539.539,0,0,1,.486-.5c.252-.032.5-.085.755-.125.175-.028.358-.032.344-.292-.015-.275-.091-.384-.363-.418a5.247,5.247,0,0,0-.819-.043,1.076,1.076,0,0,0-1,.7,4.747,4.747,0,0,0-.2,1.428m5.852,2.023c-.079,0-.159,0-.238,0s-.157.017-.235.03c-.292.049-.3.089-.182.35.136.293.414.468.589.725a1.161,1.161,0,0,0,1.139.5.191.191,0,0,0,.2-.142.736.736,0,0,0,.032-.484c-.258-.613-.564-1.053-1.3-.979m-2.227-1.86a.877.877,0,0,0,.022.178c.056.169.218.182.361.212a.125.125,0,0,0,.159-.1c.045-.2.093-.4.124-.6a.249.249,0,0,0-.187-.277.216.216,0,0,0-.271.1.725.725,0,0,0-.209.489" transform="translate(-18.951 -0.092)" fill="#f69c9e"/>
        <path id="パス_52" data-name="パス 52" d="M120.693,19.529A2.313,2.313,0,0,1,119.74,18a1.789,1.789,0,0,0-.483-1.166c.188-.2.028-.356-.091-.488a1.687,1.687,0,0,0-1.027-.57c-.19-.028-.364-.125-.515.067a1.617,1.617,0,0,1-.686-.576.847.847,0,0,0-.749-.442c0-.086,0-.172,0-.258a.566.566,0,0,0-.87-.508,4.152,4.152,0,0,0-.963.79,2.818,2.818,0,0,1-1.066.818,3.892,3.892,0,0,1-1.486.31c-.53.013-.723.124-.777.669-.063.639-.032,1.279-.037,1.918s-.018.535-.534.547c-.116,0-.264-.038-.324.108a.359.359,0,0,1-.228.2c-.1.038-.17.093-.163.209-.188-.192-.383-.378-.562-.577a1.748,1.748,0,0,1-.3-1.128c-.032-.411-.022-.826-.017-1.239a2.515,2.515,0,0,0-.119-.633c-.035-.143-.119-.148-.234-.1a7.621,7.621,0,0,1,.17-1.376,9.075,9.075,0,0,0,.383-2.764,6.837,6.837,0,0,0-.073-2.038c-.021-.068.025-.132.045-.2a4.431,4.431,0,0,0,.334-1.135c.013-.31-.1-.431-.436-.429a.4.4,0,0,0-.414.425c-.022.728.279,1.42.232,2.155a9.46,9.46,0,0,1-.081,1.75c-.073.293-.124.591-.2.884A5.358,5.358,0,0,1,108,14.54a2.363,2.363,0,0,0-.41.946.343.343,0,0,1-.1.179,11.827,11.827,0,0,1-1.836,1.887,3.276,3.276,0,0,1-1.336.76c-.273.044-.341.24-.347.477a4.465,4.465,0,0,1-.985-1.48,4.716,4.716,0,0,1-.257-1.32,1.125,1.125,0,0,1,.73-1.056,11.969,11.969,0,0,0,1.475-.957,3.494,3.494,0,0,0,.695-.832.224.224,0,0,0-.09-.368,1.006,1.006,0,0,1-.176-.155c.053-.124.176-.034.255-.081s.238-.014.263-.142a2.628,2.628,0,0,1,.425-.74c.048-.085.157-.159.066-.276a.3.3,0,0,0-.324-.128,3.4,3.4,0,0,0-1.149.367c-.238.171-.546.184-.774.409-.125.124-.418.088-.62.178a4.356,4.356,0,0,1-.9-.971,1.26,1.26,0,0,1,.387-1.59c.7-.433,1.414-.843,2.082-1.326a.7.7,0,0,1,.333-.072c.158-.025.225-.066.15-.257a.747.747,0,0,0-.651-.521,1.4,1.4,0,0,1-.743-.372,7.461,7.461,0,0,1-1.386-1.7,1.326,1.326,0,0,1,.02-1.409c.385-.706.566-.75,1.291-.389a8,8,0,0,0,1.6.691,1.429,1.429,0,0,0,.284.055c.4.015.475-.074.474-.464a5.366,5.366,0,0,1,.168-1.9.457.457,0,0,1,.5-.345c1.933.009,3.867.005,5.8,0,.518,0,.526-.007.525-.5a7.135,7.135,0,0,1,.1-.981.128.128,0,0,1,.107-.125,2.006,2.006,0,0,1,1.646.567,1.778,1.778,0,0,0-.035.926.091.091,0,0,0,.09.081,1.311,1.311,0,0,0,.813-.064,15.781,15.781,0,0,0,3.029.092,19.054,19.054,0,0,1,2.7.233,1.7,1.7,0,0,1,1.075.558c.078.089.241.093.247.246-.211-.074-.273.051-.286.219-.023.3-.049.6-.051.907a.324.324,0,0,1-.292.362,3.329,3.329,0,0,1-.84.091c-.685-.017-1.368,0-2.054-.032-1.2-.055-2.4-.058-3.6-.064-2.182-.01-4.365-.005-6.546-.009a2.775,2.775,0,0,0-.706.1.556.556,0,0,0-.374.674c.043.213.187.267.539.2a.525.525,0,0,0,.175-.055.925.925,0,0,1,.509-.1c1.767-.007,3.533-.023,5.3-.024,2.535,0,5.071-.043,7.605.029.1,0,.216-.025.3.072a1.478,1.478,0,0,0,.1.916c-.023.153-.048.307-.067.461a9.335,9.335,0,0,1-.165,1.324.547.547,0,0,1-.376.421,1.961,1.961,0,0,1-.6.032c-.8.039-1.606,0-2.409.007a12.624,12.624,0,0,0-2.58.145.307.307,0,0,0-.187.529.577.577,0,0,0,.339.178,4.915,4.915,0,0,0,1.152.022,19.606,19.606,0,0,0,2.063.038c.536-.014,1.064.091,1.6.072-.1.308.167.519.22.787a1.86,1.86,0,0,0-.162.489,3.26,3.26,0,0,0,.006.825c0,1.781-.011,3.563.023,5.343A4.933,4.933,0,0,0,122,18.413a2.107,2.107,0,0,1,.024.5c.007.093-.026.182-.139.184-.3,0-.594.049-.89.08-.336.034-.348.006-.3.349M112.784,8.183c0,.025,0,.049,0,.074-.793,0-1.586,0-2.379,0-.142,0-.32-.017-.363.179a.752.752,0,0,0,.3.518c.671.317,1.389.067,2.084.161a9.425,9.425,0,0,0,1.421-.005c.47-.009.558-.1.515-.576-.013-.139-.071-.2-.217-.241a5.932,5.932,0,0,0-1.365-.113m-.228,4.257v-.021c.229,0,.459.009.687,0,.206-.009.362-.1.367-.328a.354.354,0,0,0-.332-.416,4.73,4.73,0,0,0-1.785.084.591.591,0,0,0-.42.433,1.487,1.487,0,0,0-.059.668c.018.1-.008.261.132.284a.43.43,0,0,0,.391-.111.447.447,0,0,0,.123-.167c.113-.419.419-.474.79-.422a.874.874,0,0,0,.106,0m6.1-.01c.211,0,.424.014.634,0s.308-.136.253-.358a.484.484,0,0,0-.466-.419,5.435,5.435,0,0,0-1.42.065c-.2.038-.337.094-.332.314s.151.286.335.333a3.087,3.087,0,0,0,1,.069" transform="translate(-15.1 0)" fill="#f69c9e"/>
        <path id="パス_53" data-name="パス 53" d="M59.471,19.46a2.332,2.332,0,0,1-1-.84.936.936,0,0,0-.61-.413c-.1-.028-.2-.069-.294-.1.152-.041.15-.2.241-.292.13-.125.053-.177-.066-.248a1.133,1.133,0,0,0-.814-.143A10.679,10.679,0,0,1,55,17.53c-.66,0-1.322-.026-1.981.044-.13.014-.274-.006-.315.165-.146-.121-.283-.254-.438-.362a1.416,1.416,0,0,1-.551-1.454.6.6,0,0,1,.584-.445c.808-.033.675-.356.406-.824a1.912,1.912,0,0,1-.234-1.512,3.672,3.672,0,0,0,.09-.929q0-2.457,0-4.914a3.624,3.624,0,0,0-.173-1.068A.568.568,0,0,0,52.233,6a3.323,3.323,0,0,1-.657-.964,1.105,1.105,0,0,1,.732-1.489.55.55,0,0,0,.4-.718,4.3,4.3,0,0,1-.142-1.664c-.007-.119.072-.188.188-.221A1.56,1.56,0,0,1,53.2.888c1.14,0,2.28,0,3.421,0A18.985,18.985,0,0,0,59.545.607a2.743,2.743,0,0,1,1,.009.649.649,0,0,1,.411.22,1.988,1.988,0,0,0,.662.49.344.344,0,0,1,.069.075c-.193.043-.238.28-.437.317-.1.02-.128.1-.155.19a.791.791,0,0,1-.817.633c-.333.024-.668.029-1,.065-.4.044-.84.024-1.078.46-.038.07-.134.108-.213.17a2.473,2.473,0,0,0,.962.2,12.425,12.425,0,0,0,2-.131.636.636,0,0,1,.609.285.721.721,0,0,0,.273.2c.414.231.831.454,1.245.685a1.245,1.245,0,0,1,.506.481,1.348,1.348,0,0,0,.594.572c.137.068.227.055.3-.092A3.807,3.807,0,0,0,64.847,3.9,5.341,5.341,0,0,1,65,2.466a2.793,2.793,0,0,0,.081-.85,1.524,1.524,0,0,1,.005-.234c.072-.57.229-.706.825-.7a1.258,1.258,0,0,1,1.146.521,1.856,1.856,0,0,0-.063.687c-.026.7.036,1.4-.053,2.1a2.4,2.4,0,0,0-.037.621c.054.413.07.431.485.433.1,0,.194,0,.292.005.226.341.586.281.92.292a3.713,3.713,0,0,1,1.247.159,1.559,1.559,0,0,1,.666.445A7.608,7.608,0,0,0,70.5,7.1a10.429,10.429,0,0,1-.066,2.2c-.09.781-.269,1.546-.41,2.317-.082.443-.241.864-.33,1.305a5.285,5.285,0,0,1-.4,1.287,8.324,8.324,0,0,0-.528,1.354,2.871,2.871,0,0,1-.412.977,2.588,2.588,0,0,0-.48.963c-.147.646-.728.818-1.174,1.135-.1.072-.2.12-.248.239a4.178,4.178,0,0,1-1.25-1.792c-.085-.292-.315-.542-.257-.88a1.231,1.231,0,0,1,.073-.327,8.664,8.664,0,0,1,1.05-1.93,13.21,13.21,0,0,0,1.457-2.579c.243-.491.389-1.013.6-1.513.288-.667.2-.789-.517-.781-.078,0-.158.006-.237.009.117-.246.324-.251.556-.209.332.059.524-.148.419-.458-.076-.223-.293-.214-.468-.2a4.648,4.648,0,0,1-.9-.035.636.636,0,0,0-.779.491,6.505,6.505,0,0,1-.571,1.608,2.236,2.236,0,0,0-.294.748,2.917,2.917,0,0,1-.668,1.632,1.225,1.225,0,0,0-.164.38c-.054.137-.094.28-.153.414-.286.651-.73,1.217-1.051,1.848a10.891,10.891,0,0,1-.713,1.1,7.887,7.887,0,0,1-1.4,1.548c-.159.137-.242.339-.419.466a15.006,15.006,0,0,1-1.3,1.051m3.74-10.353c-.033-.152.026-.224.188-.24.241-.024.256-.189.188-.362a.4.4,0,0,0-.4-.279c-.212.005-.425,0-.636,0-.608-.007-.687.06-.7.652-.015.884-.058,1.766-.148,2.645a1.805,1.805,0,0,1-.425,1.071.534.534,0,0,0-.119.31c-.037.285.028.393.254.418.273.029.313-.174.318-.352a1.815,1.815,0,0,1,.312-.92,3.458,3.458,0,0,0,.4-.945c.092-.35.077-.7.15-1.046.082.187.023.393.09.582s.2.237.326.088a1.8,1.8,0,0,0,.615-1.178c0-.4-.01-.434-.406-.44" transform="translate(-7.588 -0.084)" fill="#f69c9e"/>
        <path id="パス_54" data-name="パス 54" d="M77.53,19.376a2.03,2.03,0,0,1-.892-1.6c-.032-.422,0-.848-.009-1.273a.433.433,0,0,1,.253-.419,2.681,2.681,0,0,1,.666-.25A4.2,4.2,0,0,0,80,14.123a.769.769,0,0,0,.087-.789,1.531,1.531,0,0,0,.077-.511c.007-.211-.082-.316-.314-.315a6.153,6.153,0,0,0-1.345.065,2.462,2.462,0,0,1-.909-.035,2.569,2.569,0,0,1-.746-1.42,3.531,3.531,0,0,1,0-.622.6.6,0,0,1,.594-.58c.123-.008.246-.023.367-.038.334-.042.382-.128.25-.444-.013-.032-.02-.066-.03-.1.026,0,.051.009.077.01.439.031.887.106,1.2-.325a6.529,6.529,0,0,0,1.014-1.614A.407.407,0,0,0,80.262,7a.429.429,0,0,0-.417-.172.734.734,0,0,0-.61.4A3.183,3.183,0,0,1,77.666,8.6c-.08-.052-.13-.135-.226-.175a1.285,1.285,0,0,1-.808-1.232c0-.017,0-.034,0-.052a2.383,2.383,0,0,1,.5-1.795,9.359,9.359,0,0,0,1.051-2.062,4.257,4.257,0,0,0,.2-.965c.082-.456.279-.622.758-.619a1.889,1.889,0,0,1,.942.216c.257.145.453,0,.43-.293-.01-.129-.041-.257-.044-.386A.755.755,0,0,1,81.5.462a1.967,1.967,0,0,1,1.16.662,2.353,2.353,0,0,0,.384.349.715.715,0,0,0-.609.777,8.057,8.057,0,0,1,.009.907.534.534,0,0,0,.373.559c.226.11.358.042.386-.2.016-.143-.026-.294-.007-.437.06-.452-.01-.9.016-1.356a.873.873,0,0,1,.166.792c-.039.451.034.9.016,1.345a.2.2,0,0,0,.143.2,4.878,4.878,0,0,0,.917.323,1.15,1.15,0,0,0,1.081-.489,16.3,16.3,0,0,0,1.58-2.266l.011-.023c.4-.767.866-.905,1.623-.452.4.236.768.51,1.143.777a.445.445,0,0,1,.114.6C90,2.446,90,2.369,89.987,2.292a.529.529,0,0,0-.434-.464c-.252-.065-.343.127-.44.285a1.912,1.912,0,0,1-.379.394.706.706,0,0,0-.064.834.68.68,0,0,0,.8.022c.074-.059.15-.116.226-.174,0,.184-.1.358,0,.557a.806.806,0,0,0,.569.425c.948.189,1.837.563,2.759.83a9.922,9.922,0,0,1,1.9.63c.536.282,1.093.527,1.61.845a1.032,1.032,0,0,1,.48.428A13.022,13.022,0,0,1,96.913,9.2a2.763,2.763,0,0,1-.316.851,4.806,4.806,0,0,0-.465,1.114,2.211,2.211,0,0,1-.322.7,2.7,2.7,0,0,0-.435.849,3.078,3.078,0,0,1-.668,1.4.857.857,0,0,0-.233.455.634.634,0,0,1-.272.4,1.564,1.564,0,0,0-.4.48c-.135.223-.291.433-.422.658-.164.28-.476.474-.585.759-.223.583-.782.882-1.094,1.38a.338.338,0,0,1-.151.1c-.19.082-.408.117-.492.35-.022.061-.1.065-.165.047-.216-.062-.292.048-.314.232a.938.938,0,0,1-.319-.338c-.259-.4-.6-.739-.894-1.12-.164-.216-.424-.091-.645-.095a2.755,2.755,0,0,0,.535-1.293,1.516,1.516,0,0,1,.7-1.058,6.442,6.442,0,0,0,1.258-1.287,1.717,1.717,0,0,1,.556-.506c.138.02.31.1.408.006.211-.208.477-.367.586-.681a2.368,2.368,0,0,1,.512-.862,4.2,4.2,0,0,0,1.127-2.282c.035-.21-.019-.314-.225-.348.268-.6.262-.684-.429-.743-.559-.048-.725.1-.946.662a2.576,2.576,0,0,1-.377.819,1.942,1.942,0,0,0-.4.665,2.9,2.9,0,0,1-.764,1.315.316.316,0,0,0-.076.134A7.775,7.775,0,0,1,89.918,13.9c-.3.416-.611.841-.949,1.238a4.788,4.788,0,0,0-.423.6,5.44,5.44,0,0,1-1.722,1.814c-.19.121-.422.258-.441.537-.316-.4-.712-.727-1.047-1.109a1.259,1.259,0,0,0-.891-.47.884.884,0,0,0,.2-.062c.124-.073.315-.1.34-.255a1.5,1.5,0,0,0-.018-.668.244.244,0,0,0-.2-.182c-.444-.085-.651.241-.916.488-.186.172-.083.321-.03.487a.6.6,0,0,1-.383-.279c-.121-.212-.239-.228-.424-.062-.069.061-.1.167-.21.181a3.474,3.474,0,0,0-.425-1.478c-.032.035-.06.05-.065.072a15.03,15.03,0,0,0-.575,1.663.545.545,0,0,1-.087.241A5.644,5.644,0,0,1,80.389,18a13.913,13.913,0,0,1-2.86,1.377M91.112,7.65a.9.9,0,0,1-.292-.1c-.546-.244-.985-.306-1.25.4a25.989,25.989,0,0,1-1.245,2.339,1.793,1.793,0,0,1-.466.56.46.46,0,0,0-.192.3.561.561,0,0,1-.152.324,13.323,13.323,0,0,1-1.048,1.3.47.47,0,0,0-.177.416.266.266,0,0,0,.119.222c.1.054.159-.028.232-.075a4.076,4.076,0,0,0,.936-.939c.647-.8,1.356-1.544,1.944-2.387a5.065,5.065,0,0,0,.728-1.288.51.51,0,0,1,.182-.281,1.972,1.972,0,0,0,.679-.793m-6.521,2.611c.013.141-.014.252.1.3.084.034.128-.036.158-.1a3.023,3.023,0,0,1,.608-.81c.754-.794,1.287-1.75,2.009-2.565a1.208,1.208,0,0,0,.159-.238c.09-.171.133-.363-.029-.5a.418.418,0,0,0-.522,0,4.053,4.053,0,0,0-1.106,1.165,3.219,3.219,0,0,1-.645.875,1.692,1.692,0,0,0-.559.8,7.035,7.035,0,0,1-.174,1.077M79.85,9.408a.951.951,0,0,0,.647-.3.487.487,0,0,0,.129-.526c-.061-.2-.256-.321-.426-.443-.013-.009-.065.017-.089.038a1.1,1.1,0,0,0-.4.533.338.338,0,0,1-.129.217c-.107.075-.234.159-.177.312.063.17.233.156.443.167m3.4-.671c0-.264-.135-.525-.265-.523-.3.005-.509.136-.508.314a.55.55,0,0,0,.446.482c.194,0,.315-.1.327-.273" transform="translate(-11.291 -0.062)" fill="#f69c9e"/>
        <path id="パス_55" data-name="パス 55" d="M17.446,10.806a.891.891,0,0,0,.3.891c.07.063.13.137.194.206-.081.688-.093,1.379-.114,2.071-.043,1.365.158,2.726.063,4.092-.029.415-.106.518-.529.544a1.782,1.782,0,0,1-.316-.009,10.059,10.059,0,0,0-1.187-.085q-3.364,0-6.726,0c-.178,0-.349.042-.524.053a.29.29,0,0,0-.269.177.6.6,0,0,1-.322.29A2.2,2.2,0,0,1,7.3,17.278a12.759,12.759,0,0,0,0-1.684c0-.159-.009-.333-.181-.431a.857.857,0,0,0,.055-.277c.046-.225.014-.477.188-.661a.628.628,0,0,0,.153-.4c.073-.64-.066-1.277-.032-1.917.011-.216.028-.431.038-.645,0-.06.005-.13-.066-.157s-.119.02-.158.068c-.066.08-.181.15-.166.256a5.446,5.446,0,0,0,.006.851A3.735,3.735,0,0,1,7.2,13.518c-.006.164-.043.327-.042.491,0,.362-.027.394-.391.345a1.747,1.747,0,0,0-.211-.009H1.048a.521.521,0,0,0-.332.063c-.429-.194-.495-.606-.6-.985A4.553,4.553,0,0,1,0,12.238Q.009,7.654,0,3.071C0,2.7,0,2.7.375,2.644a7.286,7.286,0,0,1,1.083-.057c.813,0,1.626-.019,2.436.018.608.027,1.216.022,1.822.059A1.484,1.484,0,0,1,6.9,3.145a2.079,2.079,0,0,0,.317.27c-.227-.01-.418.042-.419.31-.005,1.259,0,2.519,0,3.778,0,.13.052.19.188.187.22-.006.44-.005.66-.007a1.175,1.175,0,0,0,.661-.23c.586-.415,1.153-.853,1.712-1.3a.366.366,0,0,0-.026-.658c-.118-.081-.272-.074-.369-.184.246-.025.486.045.735.033.539-.026.63-.115.668-.641.015-.217-.064-.261-.252-.284a5.562,5.562,0,0,0-1.631.023c-.1.018-.189.037-.233.137a2.068,2.068,0,0,1-.522-2.612.609.609,0,0,1,.5-.367,4.926,4.926,0,0,1,1.53.021c1.067.165,2.148.144,3.22.249.693.068,1.381.189,2.076.24a6.173,6.173,0,0,1,2.375.668,1.051,1.051,0,0,1,.6.553,4.573,4.573,0,0,1-.008,1.29A3.115,3.115,0,0,1,18.347,6,5.519,5.519,0,0,0,17.89,7.07a3.5,3.5,0,0,1-.3,1.014,15.681,15.681,0,0,0-.755,1.546,1.181,1.181,0,0,1-.333.5.948.948,0,0,0-.335.734c-.026.293.038.349.343.336a1.792,1.792,0,0,0,.936-.389M3.691,6.137c-.017.093-.1.075-.165.1-.193.08-.386.423-.325.568a.862.862,0,0,0,.929.2c.39-.322.383-.564-.023-.87a.169.169,0,0,1-.026-.043,1.311,1.311,0,0,0,.151-.04c.154-.057.328-.089.351-.3s-.106-.31-.261-.41a1.106,1.106,0,0,0-.765-.132,1.882,1.882,0,0,0-1.467.7A.412.412,0,0,0,2.1,6.39c.083.139.178.3.358.252a1.179,1.179,0,0,0,.728-.315.456.456,0,0,1,.508-.191m6.392,9.822a.537.537,0,0,0,.333.05h4.292c.247,0,.5.005.742-.015a.563.563,0,0,0,.6-.569c.019-.128.017-.259.023-.389s-.059-.205-.2-.211a1.689,1.689,0,0,1-.551-.042c.055-.072.149-.044.217-.078a.55.55,0,0,0,.325-.442c.014-.188-.172-.221-.31-.266a1.557,1.557,0,0,0-.41-.095c-1.207-.058-2.415.026-3.623.02a7.886,7.886,0,0,1-1.181.067,2.417,2.417,0,0,0-.58.026.4.4,0,0,0-.4.423c0,.39-.021.779-.006,1.168.013.315.181.433.5.4.078-.009.153-.03.231-.044m.666-5.15a.415.415,0,0,0,.447.373q1.521.033,3.042.054c.249,0,.357-.142.281-.372a3.454,3.454,0,0,0-.273-.617,4.519,4.519,0,0,1-.483-1.112,1.253,1.253,0,0,1,.554-1.4c.548-.277.932-.763,1.487-1.028a.43.43,0,0,0,.165-.652c.186-.186.112-.412.061-.608-.042-.164-.227-.211-.394-.2a4.121,4.121,0,0,1-1.463-.286.683.683,0,0,0-.648.13,2.571,2.571,0,0,0-.747,1.084,3.039,3.039,0,0,1-.423.834,14.12,14.12,0,0,1-1.339,1.846,7.982,7.982,0,0,1-1.547,1.4,6.648,6.648,0,0,0-.775.575c-.064.05-.157.107-.124.211s.142.117.235.144a1.664,1.664,0,0,0,.708-.036,4.407,4.407,0,0,0,1.236-.346M3.27,9.666c-.228.047-.443.089-.657.136a.692.692,0,0,0-.586.727c-.009.2.24.448.533.545a.534.534,0,0,0,.621-.161,2.374,2.374,0,0,1,.963-.686.228.228,0,0,0,.16-.217.175.175,0,0,0-.16-.178c-.292-.06-.587-.113-.873-.167M4.6,11.275c0-.052,0-.1,0-.156-.02-.43-.306-.583-.682-.364a2.808,2.808,0,0,0-.535.333c-.09.083-.259.137-.188.3a.418.418,0,0,0,.395.3,1.311,1.311,0,0,1,.366.036c.494.141.631.049.644-.446" transform="translate(0 -0.228)" fill="#f69c9e"/>
        <path id="パス_56" data-name="パス 56" d="M32.258,5.693a.478.478,0,0,0,.586.2,2.345,2.345,0,0,1,1.212.163,3.215,3.215,0,0,0,.649.109c.244.011.317-.1.276-.319-.032-.162-.065-.322-.1-.483a1.982,1.982,0,0,1,.257-1.4.583.583,0,0,1,.642-.3,22.54,22.54,0,0,0,2.959.018c1.553-.048,3.1.028,4.651.088a1.488,1.488,0,0,1,1.075.57c-.02.388-.055.776-.057,1.165-.008,1.186,0,2.372,0,3.558,0,.292.032.587.019.876-.035.744-.029,1.488,0,2.23.034.975,0,1.953.082,2.927a2.894,2.894,0,0,1-.1,1c-.076.279-.139.355-.441.331a7.518,7.518,0,0,0-1.054-.043,10.418,10.418,0,0,1-1.478-.049c-.835-.068-1.671-.076-2.507-.119-.145-.007-.282.005-.337.181a.12.12,0,0,1-.2.056c-.389-.275-.668.02-.951.192-.222.136-.177.278.072.385a1.991,1.991,0,0,0,.847.159,3.337,3.337,0,0,1,1,.038.532.532,0,0,1-.308.048c-.715.019-1.43.026-2.143.055a1.318,1.318,0,0,1-1.254-.616,3.426,3.426,0,0,1-.746-2.272.255.255,0,0,0-.162-.314.437.437,0,0,1-.2-.262.961.961,0,0,0,.473-1.015c-.019-.17-.075-.252-.255-.253a1.329,1.329,0,0,0-.788.159.544.544,0,0,1-.526.1,15.34,15.34,0,0,0-1.521-.374c-.2-.066-.313,0-.332.23-.026.3-.067.6-.067.906,0,1.609-.06,3.219.081,4.825a.645.645,0,0,1-.311.616,1.208,1.208,0,0,1-.624.26c-.229.013-.285.129-.279.318a2.09,2.09,0,0,1-.83-1.929,10.146,10.146,0,0,0,.007-1.883,2.714,2.714,0,0,1,.026-.9c.07-.291-.086-.454-.4-.445a.869.869,0,0,1,.153-.4,3.766,3.766,0,0,0,.434-.854c.032-.111.067-.229-.057-.3a.314.314,0,0,0-.35.005c-.109.072-.211.154-.316.233-.358.266-.628.635-.984.889s-.746.469-1.1.734c-.278.21-.558.433-.521.838a3.49,3.49,0,0,1-1.241-1.7,3.336,3.336,0,0,1-.34-1.374.826.826,0,0,1,.547-.821,16.558,16.558,0,0,0,2.7-1.525.469.469,0,0,0-.1-.8,4.711,4.711,0,0,1,.841-.072.3.3,0,0,0,.317-.179.488.488,0,0,0-.433-.69c-.635-.025-1.267.044-1.9.039-.165,0-.218.077-.229.216a2.208,2.208,0,0,1-.824-2.285c.081-.344.217-.456.582-.474.22-.01.44-.005.66-.014a.893.893,0,0,0,.57-.159,1.072,1.072,0,0,0,1.23-.331,6.7,6.7,0,0,1,.7-.57.549.549,0,0,0,.173-.252c.09-.208-.011-.266-.193-.276a2.749,2.749,0,0,0-.76.067,2.215,2.215,0,0,0-1.013.67c-.346.324-.35.319-.147.689-.165.05-.252-.043-.3-.174a.794.794,0,0,0-.232-.343,3.819,3.819,0,0,1-.585-.787,2.815,2.815,0,0,1-.258-2.1c.024-.261.284-.37.54-.366.936.017,1.865-.069,2.8-.145a12.276,12.276,0,0,0,2.841-.6,2.841,2.841,0,0,1,1.033-.193c.365.022.735.073.836.521.026.12.135.175.22.247-.122.273-.182.6-.443.774a5.048,5.048,0,0,1-1.137.6c-.256.094-.5.215-.75.327a.976.976,0,0,0-.6.929,3.753,3.753,0,0,0,.11,1.158c.028.106,0,.237.136.285s.231-.049.327-.124c.04-.032.082-.063.124-.095m2.566,3.73a.442.442,0,0,0,.234-.479,1.65,1.65,0,0,1,0-.311c.016-.188-.072-.247-.252-.223a8.168,8.168,0,0,1-1.19.051,5.419,5.419,0,0,0-1.291.1c-.114.025-.234.026-.257.172a.339.339,0,0,0,.129.348,1.014,1.014,0,0,0,.513.193,1.058,1.058,0,0,1,.359.081.909.909,0,0,1,.311.5.235.235,0,0,0,.221.222.847.847,0,0,1,.666.493.713.713,0,0,0,.391.331c.164.055.37.037.377-.152.017-.447.131-.921-.209-1.317m7.756-1.816c-.188-.85-.189-.858-.986-.907a27.948,27.948,0,0,0-3.76.024,2.263,2.263,0,0,0-.756.111c-.064.027-.146.036-.164.114a2.232,2.232,0,0,0-.122.653,7.678,7.678,0,0,1,.018.828c-.036,1.4-.079,2.8,0,4.208a1.287,1.287,0,0,0,.175.566.381.381,0,0,0,.668,0c.054-.087.061-.2.153-.265.069.5.069.5.6.5q1.854,0,3.71,0c.373,0,.372-.008.373-.384,0-1.047-.022-2.095.032-3.143.038-.768.037-1.539.053-2.309" transform="translate(-3.666 -0.158)" fill="#f69c9e"/>
        <path id="パス_57" data-name="パス 57" d="M41.5,17.8a3.337,3.337,0,0,0-1-.038,1.991,1.991,0,0,1-.847-.159c-.249-.107-.293-.249-.072-.385.283-.172.562-.466.951-.192a.12.12,0,0,0,.2-.056c.055-.176.192-.188.337-.181.836.043,1.672.05,2.507.119a10.418,10.418,0,0,0,1.478.049A7.519,7.519,0,0,1,46.111,17c.3.024.365-.052.441-.331a2.894,2.894,0,0,0,.1-1c-.078-.975-.048-1.952-.081-2.927-.026-.743-.031-1.486,0-2.23.014-.288-.019-.583-.019-.876,0-1.186,0-2.372,0-3.558,0-.389.037-.777.056-1.165a.858.858,0,0,0,.212.139.989.989,0,0,1,.712,1.061c.016.628.094,1.254.061,1.883a1.452,1.452,0,0,0-.042.411c0,1.038-.005,2.075,0,3.112,0,.578.009,1.157.014,1.735,0,.051,0,.1,0,.152a.31.31,0,0,0,.012.259l0,.172a.787.787,0,0,0-.009.467c0,.048,0,.1.006.143a1.048,1.048,0,0,0-.008.474l0,.141a.048.048,0,0,0,0,.079c0,.043,0,.087,0,.13-.031.023-.032.047,0,.071,0,.049,0,.1,0,.146a.342.342,0,0,0-.014.273l.008.13a2.1,2.1,0,0,0,.022.7l-.008.345-.013.009.011.011c-.092.612-.4.8-1.084.8-1.559.014-3.119.023-4.678.034-.014-.029-.031-.032-.047,0L41.5,17.8" transform="translate(-5.813 -0.725)" fill="#fde9ea"/>
        <path id="パス_58" data-name="パス 58" d="M9.4,20.824a.593.593,0,0,0,.321-.291.291.291,0,0,1,.269-.177c.175-.011.346-.053.524-.052q3.364.005,6.725,0a10.232,10.232,0,0,1,1.187.085,1.71,1.71,0,0,0,.316.01c.425-.026.5-.129.529-.544.095-1.366-.107-2.727-.062-4.093.021-.691.033-1.382.113-2.07.177.12.411.1.586.227l0,.02h.019l.077.085v.023l.023.006.038.059a3.291,3.291,0,0,0,.152.658c0,.044.006.089.009.132a6.841,6.841,0,0,0,.029,1.373c0,.169,0,.338,0,.506l-.05.434.023.664c0,.048,0,.1,0,.145-.005.007-.014.014-.014.021a.335.335,0,0,0,.014.048l0,.142c-.005.006-.014.012-.013.017a.134.134,0,0,0,.014.039v.156c-.005.005-.014.011-.014.016a.134.134,0,0,0,.014.039c0,.049,0,.1-.005.146,0,.022,0,.044,0,.067v.137c0,.025,0,.049,0,.073,0,.046,0,.091.005.136-.005.007-.014.014-.012.02a.169.169,0,0,0,.012.045c0,.049,0,.1,0,.148a.409.409,0,0,0-.01.269c0,.047,0,.094.005.141,0,.024,0,.049,0,.073l0,.136a.327.327,0,0,0-.006.224,3.773,3.773,0,0,1-.145.881.347.347,0,0,1-.3.276,5.014,5.014,0,0,1-1.278.044l-.009-.015-.01.014-6.6.015a.02.02,0,0,0-.032,0l-.176,0a.026.026,0,0,0-.038,0l-.119,0H11.2a5.342,5.342,0,0,1-1.183-.049.754.754,0,0,1-.622-.473" transform="translate(-1.385 -2.018)" fill="#fde9ea"/>
        <path id="パス_59" data-name="パス 59" d="M60.849,20.773a14.708,14.708,0,0,0,1.3-1.051c.176-.126.26-.329.419-.466a7.841,7.841,0,0,0,1.4-1.548,10.88,10.88,0,0,0,.713-1.1c.321-.633.766-1.2,1.051-1.848.06-.135.1-.277.153-.414a1.229,1.229,0,0,1,.164-.379,2.91,2.91,0,0,0,.668-1.632,2.206,2.206,0,0,1,.3-.748,6.493,6.493,0,0,0,.57-1.608.637.637,0,0,1,.78-.491,4.779,4.779,0,0,0,.9.035c.176-.011.393-.02.468.2.1.31-.087.518-.419.458-.233-.042-.44-.036-.556.21a1.77,1.77,0,0,0-.6,1.046c-.269.885-.559,1.764-.849,2.643a3.864,3.864,0,0,1-.216.473c-.194.4-.353.808-.523,1.216A13.109,13.109,0,0,1,65.133,18.1,17.289,17.289,0,0,1,62.35,21.1a1.059,1.059,0,0,1-1.159.205.456.456,0,0,1-.342-.535" transform="translate(-8.966 -1.397)" fill="#fde9ea"/>
        <path id="パス_60" data-name="パス 60" d="M93,20.106c.022-.184.1-.3.313-.232.061.017.144.014.166-.048.083-.233.3-.269.492-.35a.339.339,0,0,0,.151-.1c.312-.5.871-.8,1.094-1.38.109-.284.421-.478.585-.759.131-.224.287-.435.422-.658a1.584,1.584,0,0,1,.4-.48.632.632,0,0,0,.272-.4.857.857,0,0,1,.233-.454,3.085,3.085,0,0,0,.668-1.4,2.718,2.718,0,0,1,.435-.848,2.2,2.2,0,0,0,.322-.705,4.772,4.772,0,0,1,.465-1.113,2.787,2.787,0,0,0,.316-.851,13.035,13.035,0,0,0,.109-2.292c.176.145.345.3.529.431a.669.669,0,0,1,.294.6,10.482,10.482,0,0,1-.064,1.686,7.331,7.331,0,0,1-.466,1.442c-.374.953-.807,1.879-1.25,2.8-.374.78-.894,1.47-1.318,2.219a24.611,24.611,0,0,1-2.1,2.89,2.228,2.228,0,0,1-.877.643.6.6,0,0,1-.554-.05A2.79,2.79,0,0,1,93,20.106" transform="translate(-13.706 -1.183)" fill="#fde9ea"/>
        <path id="パス_61" data-name="パス 61" d="M69.037,19.8c.045-.119.148-.166.248-.239.446-.318,1.027-.489,1.174-1.135a2.576,2.576,0,0,1,.48-.963,2.878,2.878,0,0,0,.412-.977,8.324,8.324,0,0,1,.528-1.354,5.333,5.333,0,0,0,.4-1.287c.089-.442.248-.862.33-1.306.142-.771.32-1.536.409-2.317a10.379,10.379,0,0,0,.067-2.2A7.617,7.617,0,0,1,73.1,6.877l.532.3c0,.049.019.084.078.079a.228.228,0,0,0,.027.03v.023l.022.007.072.108c-.018.035-.005.053.033.055l.069.156c.026.311.054.623.08.934.007.1.014.2.02.292l-.013,0,.014,0c0,.069,0,.139,0,.208-.006,0-.016.01-.016.014a.248.248,0,0,0,.014.04c0,.117,0,.233,0,.35l-.015.009.015.009c-.005.148-.009.3-.015.445L74,9.949a.14.14,0,0,0,.009.026c-.017.128-.035.257-.053.385l-.016.012.019.01a4.631,4.631,0,0,1-.156.826c-.153.884-.381,1.752-.532,2.638a19.291,19.291,0,0,1-1.391,4.332c-.243.567-.554,1.107-.833,1.658a.4.4,0,0,1-.223.2,3.1,3.1,0,0,1-1.43.123c-.147-.014-.4-.078-.362-.352" transform="translate(-10.174 -1.014)" fill="#fde9ea"/>
        <path id="パス_62" data-name="パス 62" d="M93.462,14.664a1.717,1.717,0,0,0-.556.506,6.464,6.464,0,0,1-1.258,1.287,1.52,1.52,0,0,0-.7,1.057,2.742,2.742,0,0,1-.534,1.293,3.061,3.061,0,0,1-1.754,1.243c-.051.013-.09.016-.113-.022-.125-.217-.386-.324-.477-.567.019-.279.251-.416.441-.537a5.434,5.434,0,0,0,1.722-1.815,4.762,4.762,0,0,1,.423-.6c.338-.4.645-.822.949-1.237a7.79,7.79,0,0,0,1.273-1.928.324.324,0,0,1,.076-.135A2.91,2.91,0,0,0,93.72,11.9a1.939,1.939,0,0,1,.4-.664,2.576,2.576,0,0,0,.377-.819c.221-.567.386-.711.946-.663.691.06.7.141.428.743a1.215,1.215,0,0,0-.36.437c-.273.59-.565,1.17-.861,1.75-.352.69-.771,1.333-1.187,1.981" transform="translate(-12.98 -1.436)" fill="#fde9ea"/>
        <path id="パス_63" data-name="パス 63" d="M123.914,5.489c-.08-.1-.194-.069-.3-.072-2.535-.072-5.07-.031-7.605-.029-1.767,0-3.533.018-5.3.024a.935.935,0,0,0-.51.1.518.518,0,0,1-.175.055c-.352.067-.5.013-.539-.2a.556.556,0,0,1,.374-.673,2.776,2.776,0,0,1,.706-.1c2.183,0,4.365,0,6.546.009,1.2.005,2.4.009,3.6.063.685.032,1.369.014,2.054.032a3.323,3.323,0,0,0,.84-.09.324.324,0,0,0,.292-.362c0-.3.028-.605.051-.908.013-.168.074-.293.286-.219l.064,0v.014l.013-.005a1.08,1.08,0,0,1,.436.958c-.026.369-.01.743-.005,1.114,0,.137-.042.226-.191.211-.222-.021-.419.152-.646.068" transform="translate(-16.134 -0.457)" fill="#fde9ea"/>
        <path id="パス_64" data-name="パス 64" d="M123.84,21.251c-.05-.342-.038-.314.3-.349.3-.03.591-.075.89-.08.113,0,.146-.091.139-.183a2.116,2.116,0,0,0-.023-.5,4.93,4.93,0,0,1-.153-1.792c-.034-1.78-.022-3.561-.023-5.343a3.26,3.26,0,0,1-.005-.825,1.819,1.819,0,0,1,.162-.489c.669,0,.921-.008.866.913-.017.284.014.571.014.857,0,2.129-.007,4.259.009,6.389,0,.538-.134,1.062-.107,1.6.007.13-.1.15-.188.168a5.349,5.349,0,0,1-1.371.036.542.542,0,0,1-.506-.4" transform="translate(-18.248 -1.722)" fill="#fde9ea"/>
        <path id="パス_65" data-name="パス 65" d="M130.315,21.41c.143-.164.35-.125.529-.14.226-.018.3-.1.339-.325.176-.917.009-1.846.128-2.764a.964.964,0,0,1,.366-.685,1.624,1.624,0,0,1,1.23-.36,2.854,2.854,0,0,0,2.734-1.231c.244-.315.512-.612.785-.9a1.692,1.692,0,0,1,1.5-.372.065.065,0,0,1,.026.005c.152.073.4-.051.466.159s-.18.311-.292.457c-.04.052-.126.071-.123.156a1.445,1.445,0,0,0-1.086.759,1.425,1.425,0,0,0-.529.455,2.907,2.907,0,0,1-1.286.909,5.036,5.036,0,0,1-2.061.4,3.706,3.706,0,0,0-.765.038c-.143.034-.246.1-.245.259a5.2,5.2,0,0,0,.042,1.266,4.886,4.886,0,0,0,.049,1.064l-.016.007.018,0q.023.253.045.506c-.086.177.04.349.02.524-.009.025-.018.049-.026.072-.157.416-.16.385-.621.437a2.113,2.113,0,0,1-.941-.078c-.176-.058-.256-.142-.238-.33.009-.092.054-.2-.046-.286" transform="translate(-19.205 -2.153)" fill="#fde9ea"/>
        <path id="パス_66" data-name="パス 66" d="M134.656,21.571c.05-.17.182-.2.345-.222a5.715,5.715,0,0,0,1.4-.211,7.476,7.476,0,0,0,2.384-1.236,1.12,1.12,0,0,1,.259-.176,1.017,1.017,0,0,0,.544-.57,5.309,5.309,0,0,1,.6-.819,6.938,6.938,0,0,0,1.066-2.6,1.339,1.339,0,0,1,.407-.739c.189-.192.294-.16.4.091a.877.877,0,0,1,.026.435,9.924,9.924,0,0,1-.2,1.452,1.645,1.645,0,0,1-.212.583,6.006,6.006,0,0,0-.5,1.072l-.115.182-.02.005v.02a7.619,7.619,0,0,1-2.391,2.458,5.581,5.581,0,0,1-2.352.78,7.961,7.961,0,0,1-.923.052c-.466-.014-.594-.112-.719-.563" transform="translate(-19.845 -2.193)" fill="#fde9ea"/>
        <path id="パス_67" data-name="パス 67" d="M104.231,20.172c.006-.236.074-.432.347-.477a3.286,3.286,0,0,0,1.336-.76,11.827,11.827,0,0,0,1.836-1.887.345.345,0,0,0,.1-.18,2.354,2.354,0,0,1,.41-.946,5.352,5.352,0,0,0,.474-1.319c.073-.292.124-.591.2-.883a9.465,9.465,0,0,0,.081-1.75c.047-.736-.254-1.427-.232-2.155a.4.4,0,0,1,.414-.425c.332,0,.448.118.436.428a4.436,4.436,0,0,1-.334,1.136c-.02.066-.067.13-.045.2a6.843,6.843,0,0,1,.073,2.039,9.07,9.07,0,0,1-.383,2.763,7.628,7.628,0,0,0-.17,1.376,4.113,4.113,0,0,1-1.351,1.825,7.566,7.566,0,0,1-1.534,1.136,2.315,2.315,0,0,1-1.241.255c-.248-.015-.31-.214-.414-.374" transform="translate(-15.361 -1.384)" fill="#fde9ea"/>
        <path id="パス_68" data-name="パス 68" d="M31.347,21.61c-.007-.189.05-.3.279-.318a1.208,1.208,0,0,0,.624-.26.645.645,0,0,0,.311-.616c-.141-1.606-.083-3.216-.081-4.825,0-.3.041-.6.067-.905.019-.228.136-.3.332-.231a15.339,15.339,0,0,1,1.521.374.542.542,0,0,0,.526-.1,1.329,1.329,0,0,1,.788-.159c.18,0,.236.084.255.253a.96.96,0,0,1-.473,1.015,1.157,1.157,0,0,1-1.189-.46c.061-.233-.161-.281-.281-.325-.166-.061-.287.095-.385.226a.433.433,0,0,0-.273.431c-.038.457.006.913.009,1.37.006,1.008.015,2.016.023,3.023l-.018,0,.017.022c-.005.077-.009.153-.014.229l-.018.007.016.029q-.017.3-.032.6a7.053,7.053,0,0,0-.182.686c-.01.014-.02.028-.029.043H33.12v.019c-.35.457-.853.342-1.315.3-.221-.018-.344-.249-.459-.436" transform="translate(-4.62 -2.127)" fill="#fde9ea"/>
        <path id="パス_69" data-name="パス 69" d="M111,22.042c-.008-.116.067-.171.163-.209a.359.359,0,0,0,.229-.2c.06-.146.208-.106.324-.108.516-.013.529.106.534-.547s-.026-1.279.037-1.918c.054-.545.246-.657.776-.669a3.889,3.889,0,0,0,1.486-.31,2.821,2.821,0,0,0,1.067-.818,4.153,4.153,0,0,1,.963-.79.566.566,0,0,1,.869.508c0,.086,0,.172,0,.258a8.682,8.682,0,0,1-2.592,1.8,2.087,2.087,0,0,1-1.283.147c-.017,0-.035,0-.052,0-.4-.043-.421-.026-.423.355-.005.848-.01,1.7,0,2.543,0,.208-.041.279-.269.278-.381,0-.761.035-1.145,0a.866.866,0,0,1-.684-.323" transform="translate(-16.358 -2.414)" fill="#fde9ea"/>
        <path id="パス_70" data-name="パス 70" d="M124.185,10.2c-.535.02-1.062-.084-1.6-.072a19.377,19.377,0,0,1-2.063-.038,4.915,4.915,0,0,1-1.152-.022.575.575,0,0,1-.339-.178.307.307,0,0,1,.188-.529,12.684,12.684,0,0,1,2.58-.145c.8-.01,1.605.033,2.409-.007a1.934,1.934,0,0,0,.6-.032.547.547,0,0,0,.376-.421,9.447,9.447,0,0,0,.165-1.324c.02-.153.044-.307.067-.461l.092.017c.023.086.067.14.168.1l.064.065c-.014.038,0,.047.038.037l.044.046-.005.013.013-.005a1.008,1.008,0,0,1,.315.758,7.57,7.57,0,0,1-.053,1.31.53.53,0,0,1-.3.408,1.635,1.635,0,0,1-.721.265,2.314,2.314,0,0,0-.886.214" transform="translate(-17.529 -1.028)" fill="#fde9ea"/>
        <path id="パス_71" data-name="パス 71" d="M146.792,16.947a1.885,1.885,0,0,1-.51.173c-.154.011-.257-.051-.284-.173a1.631,1.631,0,0,1-.082-1.085c.069-.153-.039-.3-.076-.452a.71.71,0,0,1,.541-.86,12.361,12.361,0,0,1,2.207-.2c.555-.017,1.109-.041,1.664-.05.177,0,.232-.078.226-.237-.012-.32-.021-.639-.02-.959,0-.221-.032-.455.174-.623.554.181.628.31.638,1.044,0,.3-.022.59-.007.883a1.323,1.323,0,0,1-.129.568c-.084.2-.359.256-.583.286a6.767,6.767,0,0,1-.871.069c-.856.007-1.713,0-2.569,0-.038-.051-.07-.046-.1.009l-.114.07-.019,0,0,.019-.039.038c-.054-.008-.076.017-.072.067l-.132.174c-.2.179-.032.313.057.457.008.037.014.072.022.109-.037.055-.018.093.039.119l.036.155a.151.151,0,0,0,0,.235c0,.057-.006.115-.009.172" transform="translate(-21.49 -1.839)" fill="#fde9ea"/>
        <path id="パス_72" data-name="パス 72" d="M77.688,21.842a14.022,14.022,0,0,0,2.86-1.377,5.656,5.656,0,0,0,1.26-1.347.55.55,0,0,0,.088-.242,15.089,15.089,0,0,1,.575-1.663c.005-.02.032-.036.065-.071a3.454,3.454,0,0,1,.424,1.478l-.01.115-.012.014.009.015a3.032,3.032,0,0,0-.145.566,3.96,3.96,0,0,1-2.029,2.341,11.934,11.934,0,0,1-1.32.652,2.2,2.2,0,0,1-1.6.024c-.215-.067-.14-.324-.164-.5" transform="translate(-11.449 -2.526)" fill="#fde9ea"/>
        <path id="パス_73" data-name="パス 73" d="M149.107,9.575a.337.337,0,0,0-.169.19.883.883,0,0,1-.8.465c-.252.013-.4-.2-.574-.338-.094-.076.017-.1.087-.119.42-.085.429-.084.488-.491a.992.992,0,0,1,.638-.822c.493-.21.984-.423,1.477-.634a.546.546,0,0,0,.418-.649q-.052-1.375-.1-2.749c-.014-.453.1-.6.522-.755a.657.657,0,0,1,.471.72c0,1.062-.046,2.124-.1,3.185-.048.86-.174,1.075-1.05,1.211a1.954,1.954,0,0,0-1.305.785" transform="translate(-21.742 -0.541)" fill="#fde9ea"/>
        <path id="パス_74" data-name="パス 74" d="M20.239,11.115a1.786,1.786,0,0,1-.936.389c-.3.012-.367-.043-.343-.337a.954.954,0,0,1,.335-.734,1.188,1.188,0,0,0,.333-.495,15.393,15.393,0,0,1,.754-1.546,3.5,3.5,0,0,0,.3-1.015,5.494,5.494,0,0,1,.458-1.072,3.117,3.117,0,0,0,.333-1.38,4.6,4.6,0,0,0,.009-1.29,1.231,1.231,0,0,0,.489.329c.14.114.134.318.275.432a.3.3,0,0,1-.028.279h-.011l0,.011a9.4,9.4,0,0,1-.824,3.52c-.338.87-.693,1.732-1.057,2.59a2.433,2.433,0,0,0-.09.315" transform="translate(-2.794 -0.536)" fill="#fde9ea"/>
        <path id="パス_75" data-name="パス 75" d="M.84,16.058a.527.527,0,0,1,.332-.063H6.684a1.6,1.6,0,0,1,.212.01c.362.048.394.015.39-.346,0-.164.037-.327.043-.491a3.758,3.758,0,0,0-.072-1.238,5.435,5.435,0,0,1-.006-.85c-.014-.107.1-.176.167-.257.038-.049.089-.093.157-.067s.069.1.067.156c-.01.215-.028.431-.038.645-.035.639.1,1.276.031,1.918a.626.626,0,0,1-.153.4c-.174.183-.142.437-.188.662a.862.862,0,0,1-.055.277c-.574,0-1.147.012-1.72.013q-1.907,0-3.812,0a.641.641,0,0,1-.75-.537,1.886,1.886,0,0,0-.114-.232" transform="translate(-0.124 -1.879)" fill="#fde9ea"/>
        <path id="パス_76" data-name="パス 76" d="M33.413,5.826l-.124.1c-.1.076-.188.173-.327.124s-.108-.178-.136-.285a3.776,3.776,0,0,1-.11-1.158.975.975,0,0,1,.6-.929c.249-.113.495-.234.75-.327a5.047,5.047,0,0,0,1.137-.6c.26-.179.321-.5.443-.774.746.118.952.432.712,1.14a.782.782,0,0,1-.446.515,7.525,7.525,0,0,0-.882.468,3.123,3.123,0,0,1-.979.378c-.374.072-.5.338-.588.646a3.819,3.819,0,0,0-.071.408c-.067.044-.068.09,0,.135l.02.163" transform="translate(-4.821 -0.291)" fill="#fde9ea"/>
        <path id="パス_77" data-name="パス 77" d="M26.732,17.666c-.038-.4.243-.628.521-.838.351-.265.742-.481,1.1-.735s.626-.622.984-.888c.106-.078.208-.16.316-.233a.313.313,0,0,1,.35-.005c.124.073.089.192.057.3a3.766,3.766,0,0,1-.434.854.869.869,0,0,0-.153.4,3.576,3.576,0,0,1-1.409,1.045c-.131.067-.261.136-.391.2-.127.036-.264-.037-.389.036l-.119.007a.174.174,0,0,0-.2,0,.6.6,0,0,1-.232-.147" transform="translate(-3.939 -2.198)" fill="#fde9ea"/>
        <path id="パス_78" data-name="パス 78" d="M52.918,20.649c.042-.171.185-.152.315-.165.659-.07,1.321-.04,1.981-.044a10.674,10.674,0,0,0,1.923-.11,1.136,1.136,0,0,1,.814.142c.119.072.2.124.067.248-.092.089-.09.252-.241.292-.613.075-1.228.136-1.838.229a6.391,6.391,0,0,1-.946.025,9.377,9.377,0,0,1-1.452-.026c-.543-.083-.431-.1-.622-.591" transform="translate(-7.799 -2.993)" fill="#fde9ea"/>
        <path id="パス_79" data-name="パス 79" d="M62.071,3.447a12.425,12.425,0,0,1-2,.131,2.487,2.487,0,0,1-.962-.2c.079-.061.175-.1.213-.171.238-.436.674-.415,1.078-.46.333-.036.668-.041,1-.065a.791.791,0,0,0,.817-.633c.027-.086.055-.171.155-.19.2-.038.244-.274.437-.317l.005,0,.047.043a1.028,1.028,0,0,1-.457,1.739c-.113.037-.224.076-.336.114" transform="translate(-8.712 -0.228)" fill="#fde9ea"/>
        <path id="パス_80" data-name="パス 80" d="M8.813,8.005c-.22,0-.44,0-.66.007-.135,0-.188-.056-.188-.187,0-1.259,0-2.519,0-3.778,0-.268.192-.32.419-.31l.015.007.014.018.024,0c.321.087.385.3.379.61C8.8,5.581,8.813,6.794,8.813,8.005" transform="translate(-1.174 -0.551)" fill="#fde9ea"/>
        <path id="パス_81" data-name="パス 81" d="M77.848,9.705A3.188,3.188,0,0,0,79.418,8.33a.732.732,0,0,1,.609-.4.432.432,0,0,1,.418.172.409.409,0,0,1,.055.414,6.5,6.5,0,0,1-1.014,1.614c-.313.431-.761.356-1.2.325-.026,0-.051-.007-.077-.01a.356.356,0,0,1-.363-.407c0-.111,0-.221,0-.332" transform="translate(-11.473 -1.168)" fill="#fde9ea"/>
        <path id="パス_82" data-name="パス 82" d="M70.342,5.163c-.1,0-.194-.005-.292-.005-.415,0-.431-.021-.485-.433A2.4,2.4,0,0,1,69.6,4.1c.088-.7.026-1.4.052-2.1a1.893,1.893,0,0,1,.063-.687,1.58,1.58,0,0,0,.346.257.684.684,0,0,1,.443.813,17.681,17.681,0,0,1-.058,1.89c-.054.3-.043.6-.107.888" transform="translate(-10.251 -0.194)" fill="#fde9ea"/>
        <path id="パス_83" data-name="パス 83" d="M103.682,14.148c.2-.09.495-.055.62-.179.229-.224.536-.237.774-.408a3.4,3.4,0,0,1,1.149-.367.3.3,0,0,1,.324.128c.091.117-.018.191-.065.276a2.609,2.609,0,0,0-.425.74c-.025.128-.176.091-.263.142s-.2-.043-.255.081l-.09.035a.062.062,0,0,0-.094.028,2.551,2.551,0,0,1-.636.232.921.921,0,0,1-1.04-.709" transform="translate(-15.28 -1.943)" fill="#fde9ea"/>
        <path id="パス_84" data-name="パス 84" d="M26.92,9.991c.01-.139.063-.217.229-.216.634.005,1.266-.064,1.9-.039a.488.488,0,0,1,.433.69.3.3,0,0,1-.317.179,4.711,4.711,0,0,0-.841.072c-.158-.01-.316-.014-.473-.033a1.355,1.355,0,0,1-.932-.653" transform="translate(-3.967 -1.434)" fill="#fde9ea"/>
        <path id="パス_85" data-name="パス 85" d="M91.763,3.431c-.075.058-.151.115-.226.175a.68.68,0,0,1-.8-.023.706.706,0,0,1,.064-.834,1.913,1.913,0,0,0,.379-.394c.1-.158.188-.35.44-.285a.529.529,0,0,1,.434.464c.011.077.015.155.023.232a2.251,2.251,0,0,1-.313.665" transform="translate(-13.356 -0.303)" fill="#fde9ea"/>
        <path id="パス_86" data-name="パス 86" d="M10.443,5.065c.043-.1.13-.12.233-.138A5.534,5.534,0,0,1,12.307,4.9c.189.023.269.067.252.283-.038.527-.13.616-.668.642-.248.012-.489-.058-.734-.033l-.084-.038c0-.032-.02-.038-.048-.031a1.806,1.806,0,0,1-.581-.663" transform="translate(-1.539 -0.716)" fill="#fde9ea"/>
        <path id="パス_87" data-name="パス 87" d="M77.761,14.628a2.457,2.457,0,0,0,.908.035,6.105,6.105,0,0,1,1.345-.065c.233,0,.321.1.315.315a1.572,1.572,0,0,1-.077.51c-.491.005-.982.016-1.472.01a.6.6,0,0,1-.446-.24,4.529,4.529,0,0,0-.572-.564" transform="translate(-11.46 -2.151)" fill="#fde9ea"/>
        <path id="パス_88" data-name="パス 88" d="M84.22,1.9c-.026.452.043.9-.016,1.356-.02.143.023.294.007.437-.028.246-.16.315-.387.2a.535.535,0,0,1-.373-.559,8.261,8.261,0,0,0-.008-.907.715.715,0,0,1,.609-.777c.084.064.179.119.169.246" transform="translate(-12.297 -0.244)" fill="#fde9ea"/>
        <path id="パス_89" data-name="パス 89" d="M85.05,18.891c-.053-.165-.156-.314.03-.487.266-.246.472-.573.917-.488a.243.243,0,0,1,.2.182,1.5,1.5,0,0,1,.018.668c-.025.159-.217.182-.34.256a.856.856,0,0,1-.2.061l-.246-.02a.1.1,0,0,0-.127-.028l-.113-.049c0-.027-.015-.035-.037-.012l-.066-.034,0-.015-.014.006a.14.14,0,0,1-.027-.039" transform="translate(-12.523 -2.639)" fill="#fde9ea"/>
        <path id="パス_90" data-name="パス 90" d="M120.244,18.563c.151-.192.325-.1.515-.067a1.687,1.687,0,0,1,1.027.57c.119.131.278.286.091.488a4.832,4.832,0,0,1-1.634-.992" transform="translate(-17.721 -2.719)" fill="#fde9ea"/>
        <path id="パス_91" data-name="パス 91" d="M118.359,1.64c-.259.164-.541.072-.813.064a.092.092,0,0,1-.09-.081A1.787,1.787,0,0,1,117.49.7a1.963,1.963,0,0,0,.309.2.952.952,0,0,1,.56.743" transform="translate(-17.303 -0.103)" fill="#fde9ea"/>
        <path id="パス_92" data-name="パス 92" d="M48.972,13.788c-.005-.578-.014-1.157-.014-1.735,0-1.038,0-2.074,0-3.112A1.484,1.484,0,0,1,49,8.53q.006,1.66.01,3.319c0,.484,0,.969-.005,1.453a1.247,1.247,0,0,1-.036.486" transform="translate(-7.215 -1.257)" fill="#fde9ea"/>
        <path id="パス_93" data-name="パス 93" d="M142.305,19.1a6.122,6.122,0,0,1,.5-1.072c.032.316-.176.542-.312.794a3.172,3.172,0,0,1-.188.278" transform="translate(-20.972 -2.657)" fill="#fde9ea"/>
        <path id="パス_94" data-name="パス 94" d="M34.036,15.388c.1-.131.218-.286.385-.226.12.043.342.092.281.325-.205-.136-.448-.035-.666-.1" transform="translate(-5.016 -2.233)" fill="#fde9ea"/>
        <path id="パス_95" data-name="パス 95" d="M22.767,4.455c-.141-.114-.135-.319-.275-.433.264,0,.325.093.275.433" transform="translate(-3.315 -0.593)" fill="#fde9ea"/>
        <path id="パス_96" data-name="パス 96" d="M74.856,8.7c-.027-.311-.054-.623-.081-.934a1.282,1.282,0,0,1,.081.934" transform="translate(-11.02 -1.144)" fill="#fde9ea"/>
        <path id="パス_97" data-name="パス 97" d="M22.066,14.845a3.244,3.244,0,0,1-.153-.659c.225.182.181.422.153.659" transform="translate(-3.229 -2.091)" fill="#fde9ea"/>
        <path id="パス_98" data-name="パス 98" d="M33.483,22.814a7.05,7.05,0,0,1,.181-.686.74.74,0,0,1-.181.686" transform="translate(-4.935 -3.261)" fill="#fde9ea"/>
        <path id="パス_99" data-name="パス 99" d="M22.125,16.487a6.84,6.84,0,0,1-.028-1.373,7.537,7.537,0,0,1,.028,1.373" transform="translate(-3.253 -2.228)" fill="#fde9ea"/>
        <path id="パス_100" data-name="パス 100" d="M22.1,18.414a4.184,4.184,0,0,1,.028-1.1,5.077,5.077,0,0,1-.028,1.1" transform="translate(-3.253 -2.552)" fill="#fde9ea"/>
        <path id="パス_101" data-name="パス 101" d="M146.827,16.714c-.09-.144-.258-.278-.057-.457.045.149.156.291.057.457" transform="translate(-21.616 -2.396)" fill="#fde9ea"/>
        <path id="パス_102" data-name="パス 102" d="M132.5,22.712c.02-.176-.106-.347-.02-.524.1.171.171.344.02.524" transform="translate(-19.52 -3.27)" fill="#fde9ea"/>
        <path id="パス_103" data-name="パス 103" d="M27.378,18.3c.124-.072.261,0,.388-.036a.315.315,0,0,1-.388.036" transform="translate(-4.035 -2.692)" fill="#fde9ea"/>
        <path id="パス_104" data-name="パス 104" d="M49,18.488a2.093,2.093,0,0,1-.022-.7,1.756,1.756,0,0,1,.022.7" transform="translate(-7.215 -2.622)" fill="#fde9ea"/>
        <path id="パス_105" data-name="パス 105" d="M150.284,23.177a.445.445,0,0,1,.3,0,.287.287,0,0,1-.3,0" transform="translate(-22.148 -3.412)" fill="#751019"/>
        <path id="パス_106" data-name="パス 106" d="M146.961,17.477a.151.151,0,0,1,0-.235.161.161,0,0,1,0,.235" transform="translate(-21.65 -2.541)" fill="#fde9ea"/>
        <path id="パス_107" data-name="パス 107" d="M48.972,15.849a.793.793,0,0,1,.009-.467.963.963,0,0,1-.009.467" transform="translate(-7.213 -2.267)" fill="#fde9ea"/>
        <path id="パス_108" data-name="パス 108" d="M48.971,16.572a1.059,1.059,0,0,1,.007-.474.838.838,0,0,1-.007.474" transform="translate(-7.214 -2.373)" fill="#fde9ea"/>
        <path id="パス_109" data-name="パス 109" d="M150.773,23.16a.448.448,0,0,1,.3-.02.558.558,0,0,1-.3.02" transform="translate(-22.22 -3.408)" fill="#751019"/>
        <path id="パス_110" data-name="パス 110" d="M27,18.309a.173.173,0,0,1,.2,0,.151.151,0,0,1-.2,0" transform="translate(-3.98 -2.694)" fill="#fde9ea"/>
        <path id="パス_111" data-name="パス 111" d="M126.806,7.094c-.1.038-.145-.015-.169-.1.1-.029.152.005.169.1" transform="translate(-18.663 -1.029)" fill="#fde9ea"/>
        <path id="パス_112" data-name="パス 112" d="M33.5,6.278c-.067-.046-.066-.091,0-.135.067.045.065.09,0,.135" transform="translate(-4.93 -0.906)" fill="#fde9ea"/>
        <path id="パス_113" data-name="パス 113" d="M48.963,17.591a.344.344,0,0,1,.014-.274.294.294,0,0,1-.014.274" transform="translate(-7.213 -2.552)" fill="#751019"/>
        <path id="パス_114" data-name="パス 114" d="M48.984,15.134a.31.31,0,0,1-.012-.259.292.292,0,0,1,.012.259" transform="translate(-7.214 -2.192)" fill="#fde9ea"/>
        <path id="パス_115" data-name="パス 115" d="M22.089,20.512a.4.4,0,0,1,.009-.269.285.285,0,0,1-.009.269" transform="translate(-3.253 -2.984)" fill="#fde9ea"/>
        <path id="パス_116" data-name="パス 116" d="M149.606,23.157a.5.5,0,0,1,.3,0,.4.4,0,0,1-.3,0" transform="translate(-22.048 -3.409)" fill="#751019"/>
        <path id="パス_117" data-name="パス 117" d="M145.871,22.3c.086-.032.123.02.153.085a.115.115,0,0,1-.153-.085" transform="translate(-21.498 -3.285)" fill="#751019"/>
        <path id="パス_118" data-name="パス 118" d="M85.362,19.228a.1.1,0,0,1,.127.028.09.09,0,0,1-.127-.028" transform="translate(-12.58 -2.832)" fill="#751019"/>
        <path id="パス_119" data-name="パス 119" d="M22.092,21.193a.318.318,0,0,1,.006-.224.216.216,0,0,1-.006.224" transform="translate(-3.253 -3.09)" fill="#fde9ea"/>
        <path id="パス_120" data-name="パス 120" d="M147.223,15.82c.026-.055.059-.061.1-.01a.059.059,0,0,1-.1.01" transform="translate(-21.697 -2.325)" fill="#751019"/>
        <path id="パス_121" data-name="パス 121" d="M146.914,17.04c-.056-.026-.076-.063-.039-.119a.071.071,0,0,1,.039.119" transform="translate(-21.643 -2.494)" fill="#751019"/>
        <path id="パス_122" data-name="パス 122" d="M74.5,7.306c-.058,0-.076-.031-.078-.08a.077.077,0,0,1,.078.08" transform="translate(-10.968 -1.065)" fill="#751019"/>
        <path id="パス_123" data-name="パス 123" d="M149.294,23.157a.172.172,0,0,1,.145.005.126.126,0,0,1-.145-.005" transform="translate(-22.002 -3.411)" fill="#751019"/>
        <path id="パス_124" data-name="パス 124" d="M105.648,14.867a.061.061,0,0,1,.094-.028c-.02.046-.052.052-.094.028" transform="translate(-15.57 -2.185)" fill="#751019"/>
        <path id="パス_125" data-name="パス 125" d="M146.941,16.042c0-.051.018-.075.071-.067.011.057-.015.077-.071.067" transform="translate(-21.655 -2.354)" fill="#751019"/>
        <path id="パス_126" data-name="パス 126" d="M22.1,20.8c0-.025,0-.049,0-.073a.042.042,0,0,1,0,.073" transform="translate(-3.257 -3.054)" fill="#fde9ea"/>
        <path id="パス_127" data-name="パス 127" d="M22.1,20.06a.3.3,0,0,1-.013-.045c0-.006.008-.014.012-.02.032.022.033.043,0,.066" transform="translate(-3.255 -2.947)" fill="#fde9ea"/>
        <path id="パス_128" data-name="パス 128" d="M22.1,19.821c0-.025,0-.049,0-.073a.041.041,0,0,1,0,.073" transform="translate(-3.257 -2.911)" fill="#fde9ea"/>
        <path id="パス_129" data-name="パス 129" d="M11.516,22.668h.1a.067.067,0,0,1-.1,0" transform="translate(-1.697 -3.341)" fill="#751019"/>
        <path id="パス_130" data-name="パス 130" d="M22.1,19.574c0-.022,0-.045,0-.067.031.024.028.046,0,.067" transform="translate(-3.256 -2.875)" fill="#fde9ea"/>
        <path id="パス_131" data-name="パス 131" d="M11.765,22.667h.1a.065.065,0,0,1-.1,0" transform="translate(-1.734 -3.341)" fill="#751019"/>
        <path id="パス_132" data-name="パス 132" d="M11.125,5.879c.028-.008.047,0,.049.031-.03.01-.044,0-.049-.031" transform="translate(-1.64 -0.866)" fill="#751019"/>
        <path id="パス_133" data-name="パス 133" d="M74.89,9.511a.214.214,0,0,1-.014-.039s.01-.009.016-.014a.282.282,0,0,1,.008.037c0,.005-.007.011-.01.016" transform="translate(-11.035 -1.394)" fill="#751019"/>
        <path id="パス_134" data-name="パス 134" d="M22.1,19.326a.208.208,0,0,1-.012-.039c0-.005.008-.011.012-.016.032.019.031.037,0,.055" transform="translate(-3.255 -2.84)" fill="#fde9ea"/>
        <path id="パス_135" data-name="パス 135" d="M48.977,16.9a.049.049,0,0,1,0-.08.05.05,0,0,1,0,.08" transform="translate(-7.215 -2.479)" fill="#751019"/>
        <path id="パス_136" data-name="パス 136" d="M126.948,7.225c-.035.01-.052,0-.038-.037.032-.008.045,0,.038.037" transform="translate(-18.703 -1.059)" fill="#751019"/>
        <path id="パス_137" data-name="パス 137" d="M85.187,19.157c.021-.023.032-.015.037.012-.02.017-.032.014-.037-.012" transform="translate(-12.555 -2.821)" fill="#751019"/>
        <path id="パス_138" data-name="パス 138" d="M48.983,17.134c-.033-.023-.031-.047,0-.071a.365.365,0,0,1,.012.049c0,.007-.008.014-.012.022" transform="translate(-7.215 -2.515)" fill="#751019"/>
        <path id="パス_139" data-name="パス 139" d="M22.1,19.079a.208.208,0,0,1-.012-.039c0-.005.008-.011.012-.017.03.019.032.038,0,.056" transform="translate(-3.255 -2.804)" fill="#fde9ea"/>
        <path id="パス_140" data-name="パス 140" d="M22.1,18.843a.331.331,0,0,1-.013-.048c0-.007.008-.014.012-.021.032.023.032.046,0,.069" transform="translate(-3.255 -2.767)" fill="#fde9ea"/>
        <path id="パス_141" data-name="パス 141" d="M74.688,7.571c-.038,0-.051-.02-.033-.056q.055.006.033.056" transform="translate(-11.001 -1.108)" fill="#751019"/>
        <path id="パス_142" data-name="パス 142" d="M21.864,14.113l-.023-.006v-.023l.021.007Z" transform="translate(-3.219 -2.076)" fill="#fde9ea"/>
        <path id="パス_143" data-name="パス 143" d="M74.568,7.384l-.023-.007,0-.023.021.007Z" transform="translate(-10.986 -1.084)" fill="#751019"/>
        <path id="パス_144" data-name="パス 144" d="M48.99,19.034l-.011-.01.013-.009.01.01Z" transform="translate(-7.218 -2.803)" fill="#751019"/>
        <path id="パス_145" data-name="パス 145" d="M83.853,19.037l-.009-.015.012-.014.017.026-.02,0" transform="translate(-12.357 -2.801)" fill="#751019"/>
        <path id="パス_146" data-name="パス 146" d="M85.095,19.107l.014-.006,0,.014-.014.005Z" transform="translate(-12.541 -2.815)" fill="#751019"/>
        <path id="パス_147" data-name="パス 147" d="M74.891,9.211l-.014,0,.014,0v.009" transform="translate(-11.035 -1.356)" fill="#751019"/>
        <path id="パス_148" data-name="パス 148" d="M74.894,9.948l-.015-.009.015-.009v.018" transform="translate(-11.035 -1.464)" fill="#751019"/>
        <path id="パス_149" data-name="パス 149" d="M147.07,15.926l0-.019.019,0,0,.019Z" transform="translate(-21.674 -2.344)" fill="#751019"/>
        <path id="パス_150" data-name="パス 150" d="M142.145,19.525V19.5l.02,0v.019Z" transform="translate(-20.949 -2.874)" fill="#751019"/>
        <path id="パス_151" data-name="パス 151" d="M74.873,10.505a.242.242,0,0,1-.01-.026l.014-.006a.02.02,0,0,1,0,.032" transform="translate(-11.033 -1.544)" fill="#751019"/>
        <path id="パス_152" data-name="パス 152" d="M42.179,20.013c.016-.031.032-.028.048,0l-.026.009Z" transform="translate(-6.216 -2.946)" fill="#751019"/>
        <path id="パス_153" data-name="パス 153" d="M22.772,4.869l0-.011.012,0,0,.01Z" transform="translate(-3.355 -0.716)" fill="#751019"/>
        <path id="パス_154" data-name="パス 154" d="M33.75,21.112c-.006-.008-.012-.014-.017-.022l.018,0,.008.013Z" transform="translate(-4.971 -3.108)" fill="#751019"/>
        <path id="パス_155" data-name="パス 155" d="M33.731,21.421c-.005-.009-.01-.02-.016-.029l.018-.007a.02.02,0,0,1,0,.036" transform="translate(-4.969 -3.152)" fill="#751019"/>
        <path id="パス_156" data-name="パス 156" d="M132.432,21.593l-.018,0,.017-.007v.011" transform="translate(-19.515 -3.181)" fill="#751019"/>
        <path id="パス_157" data-name="パス 157" d="M8.518,3.761l-.024,0L8.48,3.745c.019-.009.032,0,.038.015" transform="translate(-1.25 -0.552)" fill="#751019"/>
        <path id="パス_158" data-name="パス 158" d="M126.883,3.141l-.013.005V3.132l.012,0Z" transform="translate(-18.698 -0.461)" fill="#751019"/>
        <path id="パス_159" data-name="パス 159" d="M20.051,22.638l.01-.014.009.015h-.02" transform="translate(-2.955 -3.334)" fill="#751019"/>
        <path id="パス_160" data-name="パス 160" d="M74.813,10.985l-.019-.01.016-.013.009.011Z" transform="translate(-11.023 -1.616)" fill="#751019"/>
        <path id="パス_161" data-name="パス 161" d="M12.016,22.662a.026.026,0,0,1,.038,0l-.038,0" transform="translate(-1.771 -3.339)" fill="#751019"/>
        <path id="パス_162" data-name="パス 162" d="M12.268,22.658a.021.021,0,0,1,.033,0l-.016.014Z" transform="translate(-1.808 -3.338)" fill="#751019"/>
        <path id="パス_163" data-name="パス 163" d="M33.427,23v-.019h.018V23Z" transform="translate(-4.926 -3.387)" fill="#751019"/>
        <path id="パス_164" data-name="パス 164" d="M63.5,1.594l-.047-.044c.03,0,.049.012.047.044" transform="translate(-9.352 -0.229)" fill="#751019"/>
        <path id="パス_165" data-name="パス 165" d="M21.747,13.98h-.02l0-.02h.019Z" transform="translate(-3.202 -2.058)" fill="#f69c9e"/>
        <path id="パス_166" data-name="パス 166" d="M127.013,7.294,127,7.3l0-.013.013,0Z" transform="translate(-18.717 -1.073)" fill="#751019"/>
        <path id="パス_167" data-name="パス 167" d="M146.323,6.582c-1.611.113-3.165.054-4.718.052-.573,0-1.145.009-1.718.014a.728.728,0,0,1-.263-.008c-.141-.055-.375.049-.414-.179a.486.486,0,0,1,.419-.554,12.346,12.346,0,0,1,1.666-.031c.882,0,1.765.011,2.646-.009.668-.014,1.339.009,2.007-.032a2.108,2.108,0,0,1,.708.068c.211.061.342.183.3.417s-.2.282-.408.274c-.1,0-.193-.011-.23-.014" transform="translate(-20.515 -0.86)" fill="#fde9ea"/>
        <path id="パス_168" data-name="パス 168" d="M133.893,11.24a1.19,1.19,0,0,1-.865.217.687.687,0,0,0-.626.194l-.012,0,.013-.009c-.011.065-.023.129-.034.193a.591.591,0,0,0,.014.524c.009.05.018.1.027.152-.03.029-.032.055.007.078l0,.133c-.081.133-.039.292-.133.436-.163.247-.34.293-.565.084a.954.954,0,0,1-.288-.68,7.416,7.416,0,0,1,.1-1.705c.047-.268.3-.2.471-.194a4.424,4.424,0,0,0,.676.078.449.449,0,0,0,.379-.235.68.68,0,0,1,1.113-.054.228.228,0,0,1,.026.242.856.856,0,0,0-.087.35l-.072.091c-.049-.005-.1-.014-.075.065l-.043.032-.017-.012Z" transform="translate(-19.368 -1.502)" fill="#fde9ea"/>
        <path id="パス_169" data-name="パス 169" d="M131.418,6.985a4.75,4.75,0,0,1,.2-1.428,1.076,1.076,0,0,1,1-.7,5.144,5.144,0,0,1,.818.043c.272.034.348.142.363.418.014.26-.169.264-.344.292-.252.04-.5.094-.755.125a.54.54,0,0,0-.486.5,2.372,2.372,0,0,0-.084.771,1.281,1.281,0,0,1-.157.65.262.262,0,0,1-.268.173c-.131-.005-.17-.1-.21-.2a2.074,2.074,0,0,1-.078-.643" transform="translate(-19.368 -0.716)" fill="#fde9ea"/>
        <path id="パス_170" data-name="パス 170" d="M135.67,7.44a.725.725,0,0,1,.209-.489.216.216,0,0,1,.271-.1.249.249,0,0,1,.187.277c-.032.2-.079.4-.124.6a.125.125,0,0,1-.159.1c-.142-.031-.3-.043-.361-.212a.879.879,0,0,1-.022-.178" transform="translate(-19.994 -1.008)" fill="#fde9ea"/>
        <path id="パス_171" data-name="パス 171" d="M114.094,9.6a5.98,5.98,0,0,1,1.365.113c.147.044.2.1.217.241.043.474-.045.567-.515.576a9.654,9.654,0,0,1-1.421.005c-.695-.095-1.413.155-2.083-.161a.754.754,0,0,1-.305-.518c.043-.2.222-.178.364-.179.793-.006,1.586,0,2.379,0V9.6" transform="translate(-16.41 -1.414)" fill="#fde9ea"/>
        <path id="パス_172" data-name="パス 172" d="M114.033,14.449a.728.728,0,0,1-.106,0c-.371-.051-.678,0-.79.422a.447.447,0,0,1-.123.167.433.433,0,0,1-.391.112c-.14-.024-.114-.181-.132-.284a1.488,1.488,0,0,1,.059-.668.59.59,0,0,1,.42-.433,4.712,4.712,0,0,1,1.785-.084.354.354,0,0,1,.332.416c-.005.229-.16.318-.367.328-.229.011-.458,0-.687,0v.021" transform="translate(-16.576 -2.009)" fill="#fde9ea"/>
        <path id="パス_173" data-name="パス 173" d="M121.228,14.44a3.087,3.087,0,0,1-1-.069c-.184-.048-.331-.121-.335-.333s.13-.276.332-.314a5.435,5.435,0,0,1,1.42-.065.484.484,0,0,1,.466.419c.055.223-.042.34-.253.358s-.422,0-.633,0" transform="translate(-17.67 -2.01)" fill="#fde9ea"/>
        <path id="パス_174" data-name="パス 174" d="M64.258,11.379c-.073.344-.058.7-.15,1.045a3.482,3.482,0,0,1-.395.945,1.811,1.811,0,0,0-.313.921c-.005.178-.045.381-.318.351-.226-.024-.29-.132-.254-.418a.533.533,0,0,1,.119-.31,1.81,1.81,0,0,0,.425-1.071c.09-.88.132-1.762.148-2.645.01-.593.09-.659.7-.652.211,0,.424.009.636,0a.4.4,0,0,1,.4.279c.067.172.054.338-.188.362-.161.016-.221.088-.188.24-.574.154-.588.252-.628.747l-.014.005.013.007c0,.063,0,.126,0,.189" transform="translate(-9.258 -1.407)" fill="#fde9ea"/>
        <path id="パス_175" data-name="パス 175" d="M92.784,8.854a1.964,1.964,0,0,1-.679.792.51.51,0,0,0-.182.282,5.067,5.067,0,0,1-.729,1.288c-.588.843-1.3,1.591-1.944,2.387a4.089,4.089,0,0,1-.935.939c-.072.047-.133.129-.233.075a.265.265,0,0,1-.118-.222.471.471,0,0,1,.176-.416,13.328,13.328,0,0,0,1.049-1.3.572.572,0,0,0,.152-.324.455.455,0,0,1,.191-.3,1.8,1.8,0,0,0,.466-.56,26.33,26.33,0,0,0,1.245-2.34c.264-.7.7-.642,1.25-.4a.874.874,0,0,0,.291.1" transform="translate(-12.963 -1.266)" fill="#fde9ea"/>
        <path id="パス_176" data-name="パス 176" d="M85.97,11.269a7.142,7.142,0,0,0,.174-1.077,1.694,1.694,0,0,1,.558-.8,3.189,3.189,0,0,0,.645-.875,4.056,4.056,0,0,1,1.107-1.165.418.418,0,0,1,.522,0c.162.139.119.331.029.5a1.226,1.226,0,0,1-.16.238c-.721.815-1.254,1.771-2.008,2.565a3.044,3.044,0,0,0-.609.81c-.029.065-.072.135-.158.1-.114-.045-.088-.156-.1-.3" transform="translate(-12.67 -1.07)" fill="#fde9ea"/>
        <path id="パス_177" data-name="パス 177" d="M84.261,10.085c-.013.174-.134.269-.327.273a.55.55,0,0,1-.446-.482c0-.177.212-.309.508-.314.13,0,.269.258.265.523" transform="translate(-12.304 -1.409)" fill="#fde9ea"/>
        <path id="パス_178" data-name="パス 178" d="M16.667,6.5l-.139-.07a.73.73,0,0,0-.413-.215L16.106,6.2c0-.111-.072-.1-.137-.07-.17.09-.3.208-.225.425a2.56,2.56,0,0,0-.564.911,7.065,7.065,0,0,1-.818,1.452,15.682,15.682,0,0,1-1.616,1.928,4.914,4.914,0,0,1-.518.549,4.41,4.41,0,0,1-1.235.346,1.668,1.668,0,0,1-.709.036c-.093-.027-.2-.038-.235-.144s.061-.16.124-.211a6.648,6.648,0,0,1,.775-.575,7.957,7.957,0,0,0,1.547-1.4A14.042,14.042,0,0,0,13.834,7.6a3.041,3.041,0,0,0,.424-.834A2.569,2.569,0,0,1,15,5.684a.683.683,0,0,1,.648-.13,4.121,4.121,0,0,0,1.463.286c.167-.014.352.032.395.2.05.2.124.421-.061.607l-.06,0a.059.059,0,0,0-.088-.02,1.608,1.608,0,0,1-.623-.122l0-.011-.009.008" transform="translate(-1.48 -0.814)" fill="#fde9ea"/>
        <path id="パス_179" data-name="パス 179" d="M16.934,16.916c-1.5,0-2.991.064-4.487-.02-.113-.007-.229,0-.343,0l-.082.006-.119.032-.016-.005v.016a1.565,1.565,0,0,0-.14.746.733.733,0,0,1-.051.4c-.077.015-.153.036-.231.044-.324.036-.491-.081-.5-.4-.016-.389,0-.779.006-1.168a.394.394,0,0,1,.4-.423,2.375,2.375,0,0,1,.58-.026,7.9,7.9,0,0,0,1.181-.067c1.208.005,2.415-.078,3.623-.02a1.606,1.606,0,0,1,.41.094c.138.046.325.078.309.267a.549.549,0,0,1-.324.442c-.067.034-.161.006-.217.078" transform="translate(-1.615 -2.36)" fill="#fde9ea"/>
        <path id="パス_180" data-name="パス 180" d="M4.038,6.767a.458.458,0,0,0-.508.191,1.177,1.177,0,0,1-.728.315c-.18.045-.275-.113-.358-.252a.411.411,0,0,1-.005-.484,1.882,1.882,0,0,1,1.467-.7,1.1,1.1,0,0,1,.765.133c.155.1.283.2.261.409s-.2.243-.351.3c-.049.018-.1.026-.151.04l-.117-.006H4.3a.384.384,0,0,0-.257.051" transform="translate(-0.348 -0.858)" fill="#fde9ea"/>
        <path id="パス_181" data-name="パス 181" d="M3.62,11.069c.286.055.581.107.873.167a.175.175,0,0,1,.16.178.228.228,0,0,1-.16.217,2.374,2.374,0,0,0-.963.686.534.534,0,0,1-.621.161c-.292-.1-.542-.349-.533-.546a.691.691,0,0,1,.586-.726c.214-.048.43-.09.657-.136" transform="translate(-0.35 -1.631)" fill="#fde9ea"/>
        <path id="パス_182" data-name="パス 182" d="M44.636,8.571l-.159-.02a.652.652,0,0,0-.446,0,6.884,6.884,0,0,1-1,.022c-.871.005-1.742,0-2.612,0-.135,0-.282-.042-.4.061-.109,0-.2.039-.192.157.005.237.024.474.038.711,0,.153.006.305.009.458a7.576,7.576,0,0,0-.065,1.276c.038.739.012,1.48.016,2.221a.468.468,0,0,0,.038.3c0,.049,0,.1.006.145-.093.066-.1.179-.153.266a.381.381,0,0,1-.668,0,1.287,1.287,0,0,1-.175-.566c-.084-1.4-.04-2.805,0-4.208a7.675,7.675,0,0,0-.018-.828,2.232,2.232,0,0,1,.122-.653c.018-.078.1-.087.164-.114a2.263,2.263,0,0,1,.756-.111,27.948,27.948,0,0,1,3.76-.024c.8.049.8.057.986.907" transform="translate(-5.721 -1.122)" fill="#fde9ea"/>
        <path id="パス_183" data-name="パス 183" d="M34.309,10.619a1.034,1.034,0,0,0-.359-.081,1.014,1.014,0,0,1-.513-.193A.341.341,0,0,1,33.308,10c.024-.147.144-.148.258-.172a5.456,5.456,0,0,1,1.29-.1,7.926,7.926,0,0,0,1.19-.051c.18-.023.269.035.252.224a1.649,1.649,0,0,0,0,.311.443.443,0,0,1-.233.479,9.774,9.774,0,0,0-1.758-.072" transform="translate(-4.908 -1.426)" fill="#fde9ea"/>
        <path id="パス_184" data-name="パス 184" d="M28.05,6.348c-.2-.37-.2-.365.148-.689a2.208,2.208,0,0,1,1.012-.67,2.75,2.75,0,0,1,.76-.068c.182.011.283.069.193.277a.554.554,0,0,1-.172.252,6.612,6.612,0,0,0-.7.57,1.07,1.07,0,0,1-1.23.332l-.005,0" transform="translate(-4.114 -0.725)" fill="#fde9ea"/>
        <path id="パス_185" data-name="パス 185" d="M132.538,12.647a.589.589,0,0,1-.015-.524,1.2,1.2,0,0,1,.015.524" transform="translate(-19.523 -1.787)" fill="#751019"/>
        <path id="パス_186" data-name="パス 186" d="M134.4,11.365c-.027-.08.026-.07.076-.066,0,.053-.025.073-.076.066" transform="translate(-19.806 -1.665)" fill="#751019"/>
        <path id="パス_187" data-name="パス 187" d="M132.585,12.993c-.039-.023-.037-.049-.008-.078.037.023.034.049.008.078" transform="translate(-19.536 -1.904)" fill="#751019"/>
        <path id="パス_188" data-name="パス 188" d="M134.32,11.418l.009-.017.017.012-.01.016Z" transform="translate(-19.796 -1.68)" fill="#751019"/>
        <path id="パス_189" data-name="パス 189" d="M132.571,11.9l-.013.009.012,0V11.9" transform="translate(-19.536 -1.753)" fill="#751019"/>
        <path id="パス_190" data-name="パス 190" d="M64.5,11.46v.013l-.013-.008Z" transform="translate(-9.504 -1.689)" fill="#751019"/>
        <path id="パス_191" data-name="パス 191" d="M16.725,6.657c-.072-.217.055-.334.225-.425.065-.035.138-.041.137.07-.182.059-.183.294-.362.355" transform="translate(-2.462 -0.915)" fill="#fde9ea"/>
        <path id="パス_192" data-name="パス 192" d="M17.166,6.329a.725.725,0,0,1,.412.215c-.181.008-.37.032-.412-.215" transform="translate(-2.53 -0.933)" fill="#fde9ea"/>
        <path id="パス_193" data-name="パス 193" d="M18.557,6.809a.059.059,0,0,1,.088.02.059.059,0,0,1-.088-.02" transform="translate(-2.735 -1.002)" fill="#fde9ea"/>
        <path id="パス_194" data-name="パス 194" d="M17.812,6.662l.009-.008,0,.011-.009.007Z" transform="translate(-2.625 -0.981)" fill="#751019"/>
        <path id="パス_195" data-name="パス 195" d="M12.208,17.049l.083-.006c-.026.035-.053.038-.083.006" transform="translate(-1.799 -2.512)" fill="#751019"/>
        <path id="パス_196" data-name="パス 196" d="M12.049,17.1V17.08l.016.006,0,.015Z" transform="translate(-1.776 -2.517)" fill="#751019"/>
        <path id="パス_197" data-name="パス 197" d="M4.646,6.87l-.008.014L4.63,6.87h.016" transform="translate(-0.682 -1.013)" fill="#751019"/>
        <path id="パス_198" data-name="パス 198" d="M40.028,14.167a.476.476,0,0,1-.039-.3c0-.74.022-1.482-.015-2.22a7.665,7.665,0,0,1,.064-1.276q0,1.9-.009,3.8" transform="translate(-5.89 -1.528)" fill="#fde9ea"/>
        <path id="パス_199" data-name="パス 199" d="M40.033,9.682c-.014-.237-.032-.473-.038-.71,0-.118.084-.159.193-.157-.209.262-.081.581-.154.867" transform="translate(-5.894 -1.299)" fill="#fde9ea"/>
        <path id="パス_200" data-name="パス 200" d="M44.932,8.706a.654.654,0,0,1,.447,0,.872.872,0,0,1-.447,0" transform="translate(-6.622 -1.277)" fill="#fde9ea"/>
      </g>
    </g>
  </g>
</svg>
