<?xml version="1.0" encoding="UTF-8"?>
<svg xmlns="http://www.w3.org/2000/svg" version="1.1" width="300" height="300" viewBox="0 0 300 300"><rect x="0" y="0" width="300" height="300" fill="#ffffff"/><g transform="scale(9.091)"><g transform="translate(0,0)"><path fill-rule="evenodd" d="M9 0L9 1L8 1L8 2L9 2L9 3L8 3L8 4L10 4L10 7L11 7L11 4L12 4L12 5L13 5L13 6L12 6L12 9L14 9L14 11L16 11L16 12L15 12L15 13L14 13L14 12L13 12L13 13L12 13L12 11L13 11L13 10L11 10L11 11L10 11L10 9L11 9L11 8L6 8L6 9L5 9L5 8L0 8L0 10L1 10L1 13L3 13L3 14L2 14L2 16L3 16L3 17L4 17L4 18L3 18L3 21L2 21L2 23L3 23L3 24L2 24L2 25L5 25L5 24L4 24L4 23L7 23L7 24L6 24L6 25L8 25L8 27L9 27L9 28L8 28L8 33L10 33L10 31L11 31L11 29L12 29L12 30L13 30L13 31L12 31L12 33L13 33L13 32L14 32L14 33L16 33L16 32L14 32L14 31L16 31L16 30L15 30L15 29L19 29L19 30L17 30L17 31L19 31L19 32L20 32L20 33L21 33L21 32L23 32L23 31L24 31L24 29L25 29L25 30L26 30L26 31L25 31L25 32L24 32L24 33L26 33L26 31L27 31L27 32L31 32L31 33L32 33L32 32L31 32L31 31L32 31L32 30L29 30L29 28L31 28L31 27L32 27L32 26L33 26L33 24L32 24L32 26L30 26L30 25L29 25L29 24L31 24L31 23L32 23L32 22L33 22L33 21L32 21L32 20L31 20L31 19L32 19L32 18L33 18L33 17L32 17L32 16L31 16L31 15L32 15L32 14L33 14L33 13L31 13L31 15L30 15L30 16L31 16L31 19L30 19L30 17L29 17L29 15L28 15L28 14L27 14L27 13L30 13L30 12L31 12L31 11L32 11L32 10L33 10L33 9L32 9L32 8L31 8L31 9L30 9L30 8L29 8L29 9L30 9L30 10L29 10L29 11L27 11L27 9L28 9L28 8L27 8L27 9L26 9L26 8L25 8L25 6L24 6L24 9L23 9L23 5L24 5L24 4L25 4L25 3L24 3L24 4L22 4L22 7L21 7L21 6L20 6L20 7L21 7L21 8L20 8L20 9L18 9L18 8L19 8L19 6L18 6L18 8L16 8L16 7L17 7L17 5L15 5L15 4L18 4L18 5L21 5L21 4L18 4L18 3L19 3L19 1L20 1L20 0L19 0L19 1L18 1L18 3L17 3L17 1L15 1L15 0L13 0L13 1L11 1L11 2L10 2L10 0ZM21 0L21 2L20 2L20 3L22 3L22 2L23 2L23 1L24 1L24 2L25 2L25 1L24 1L24 0L23 0L23 1L22 1L22 0ZM13 1L13 2L12 2L12 4L13 4L13 5L14 5L14 4L15 4L15 3L14 3L14 2L15 2L15 1ZM10 3L10 4L11 4L11 3ZM13 3L13 4L14 4L14 3ZM8 5L8 7L9 7L9 5ZM13 6L13 8L14 8L14 9L15 9L15 10L16 10L16 11L17 11L17 12L16 12L16 13L15 13L15 14L14 14L14 13L13 13L13 14L12 14L12 13L11 13L11 12L10 12L10 13L9 13L9 15L8 15L8 16L7 16L7 15L5 15L5 14L7 14L7 13L8 13L8 12L7 12L7 11L8 11L8 10L9 10L9 9L6 9L6 10L4 10L4 9L3 9L3 11L5 11L5 12L7 12L7 13L5 13L5 14L4 14L4 15L5 15L5 16L7 16L7 17L6 17L6 18L8 18L8 19L11 19L11 18L13 18L13 19L12 19L12 21L11 21L11 20L9 20L9 21L6 21L6 22L8 22L8 23L9 23L9 24L8 24L8 25L10 25L10 26L9 26L9 27L10 27L10 26L13 26L13 27L12 27L12 29L15 29L15 28L18 28L18 27L19 27L19 29L22 29L22 31L23 31L23 29L24 29L24 28L23 28L23 26L24 26L24 23L25 23L25 22L26 22L26 21L27 21L27 20L28 20L28 19L27 19L27 20L26 20L26 19L25 19L25 18L26 18L26 17L27 17L27 18L29 18L29 17L27 17L27 16L28 16L28 15L27 15L27 14L26 14L26 13L27 13L27 12L26 12L26 11L25 11L25 10L26 10L26 9L24 9L24 10L23 10L23 9L22 9L22 8L21 8L21 9L20 9L20 10L19 10L19 11L17 11L17 10L18 10L18 9L16 9L16 8L14 8L14 6ZM15 6L15 7L16 7L16 6ZM6 10L6 11L7 11L7 10ZM21 10L21 12L20 12L20 13L19 13L19 12L17 12L17 13L16 13L16 14L15 14L15 16L16 16L16 17L19 17L19 18L20 18L20 20L23 20L23 18L24 18L24 17L25 17L25 16L26 16L26 14L25 14L25 13L26 13L26 12L24 12L24 11L22 11L22 10ZM30 10L30 11L29 11L29 12L30 12L30 11L31 11L31 10ZM21 12L21 13L20 13L20 14L19 14L19 13L18 13L18 14L17 14L17 15L16 15L16 16L18 16L18 14L19 14L19 15L21 15L21 13L22 13L22 14L23 14L23 15L22 15L22 16L21 16L21 17L20 17L20 16L19 16L19 17L20 17L20 18L22 18L22 17L24 17L24 15L25 15L25 14L23 14L23 13L22 13L22 12ZM10 13L10 17L9 17L9 16L8 16L8 18L11 18L11 13ZM0 14L0 16L1 16L1 14ZM13 14L13 15L12 15L12 17L13 17L13 18L15 18L15 19L14 19L14 20L15 20L15 21L16 21L16 22L14 22L14 21L12 21L12 22L13 22L13 23L12 23L12 25L13 25L13 24L14 24L14 25L16 25L16 26L15 26L15 27L14 27L14 28L15 28L15 27L18 27L18 26L17 26L17 25L19 25L19 26L20 26L20 25L21 25L21 26L23 26L23 25L21 25L21 24L23 24L23 22L24 22L24 21L26 21L26 20L25 20L25 19L24 19L24 21L18 21L18 20L17 20L17 19L18 19L18 18L17 18L17 19L16 19L16 18L15 18L15 17L14 17L14 16L13 16L13 15L14 15L14 14ZM1 17L1 19L0 19L0 25L1 25L1 19L2 19L2 17ZM4 18L4 21L5 21L5 20L7 20L7 19L5 19L5 18ZM29 19L29 21L28 21L28 22L29 22L29 21L30 21L30 23L31 23L31 20L30 20L30 19ZM16 20L16 21L17 21L17 23L16 23L16 25L17 25L17 24L18 24L18 23L19 23L19 24L21 24L21 23L22 23L22 22L21 22L21 23L20 23L20 22L18 22L18 21L17 21L17 20ZM10 21L10 22L11 22L11 21ZM14 23L14 24L15 24L15 23ZM26 23L26 24L29 24L29 23ZM10 24L10 25L11 25L11 24ZM25 25L25 28L28 28L28 25ZM26 26L26 27L27 27L27 26ZM29 26L29 27L30 27L30 26ZM20 27L20 28L22 28L22 29L23 29L23 28L22 28L22 27ZM9 28L9 29L11 29L11 28ZM26 29L26 30L27 30L27 31L29 31L29 30L27 30L27 29ZM9 30L9 31L10 31L10 30ZM19 30L19 31L20 31L20 32L21 32L21 30ZM17 32L17 33L18 33L18 32ZM0 0L0 7L7 7L7 0ZM1 1L1 6L6 6L6 1ZM2 2L2 5L5 5L5 2ZM26 0L26 7L33 7L33 0ZM27 1L27 6L32 6L32 1ZM28 2L28 5L31 5L31 2ZM0 26L0 33L7 33L7 26ZM1 27L1 32L6 32L6 27ZM2 28L2 31L5 31L5 28Z" fill="#000000"/></g></g></svg>
