<svg xmlns="http://www.w3.org/2000/svg" width="57.214" height="18.693" viewBox="0 0 57.214 18.693">
  <g id="パス_223" data-name="パス 223" transform="translate(1.726 15.048)" fill="#444" stroke-linecap="round" stroke-linejoin="round">
    <path d="M 48.04247665405273 2.144535779953003 C 45.58255767822266 2.144535779953003 43.5710563659668 1.282115697860718 42.06386947631836 -0.4187642931938171 L 41.18789672851562 -1.407314300537109 L 42.05766677856445 -2.401334285736084 L 43.18559646606445 -3.690394401550293 L 44.24938201904297 -4.906142711639404 C 44.06569290161133 -5.016584873199463 43.91083908081055 -5.124837875366211 43.78072738647461 -5.232934474945068 L 43.75786590576172 -5.251924514770508 L 43.73577880859375 -5.271804332733154 C 43.65462875366211 -5.344844341278076 43.56500625610352 -5.433874130249023 43.46180725097656 -5.543964385986328 L 43.45989608764648 -5.545994281768799 L 43.4579963684082 -5.548034191131592 C 42.68240737915039 -6.381594181060791 42.27245712280273 -7.436474323272705 42.27245712280273 -8.598634719848633 C 42.27245712280273 -10.05271434783936 42.83435821533203 -11.30079460144043 43.89742660522461 -12.20793437957764 C 44.93945693969727 -13.09731388092041 46.31191635131836 -13.5483341217041 47.97655868530273 -13.54834461212158 C 49.06178665161133 -13.54834461212158 50.05782699584961 -13.38040447235107 50.93700790405273 -13.04920387268066 L 50.94386672973633 -13.04661464691162 L 50.95070648193359 -13.04396438598633 C 51.65943908691406 -12.76903438568115 52.36348724365234 -12.35087394714355 53.04331588745117 -11.80110454559326 L 54.14518737792969 -10.91001415252686 L 53.31811904907227 -9.75931453704834 L 52.30737686157227 -8.35306453704834 L 51.3979377746582 -7.08775520324707 C 51.8535270690918 -6.835989952087402 52.22066879272461 -6.578040599822998 52.51286697387695 -6.306714534759521 C 53.47915649414062 -5.404364109039307 53.98827743530273 -4.217344284057617 53.98827743530273 -2.871094226837158 C 53.98827743530273 -1.224454283714294 53.29660797119141 0.1378557085990906 51.9880485534668 1.06855571269989 C 50.97835922241211 1.783195734024048 49.65181732177734 2.144535779953003 48.04247665405273 2.144535779953003 Z M 44.48137283325195 -4.773813724517822 L 45.43610763549805 -3.698584318161011 C 46.16011810302734 -2.883184194564819 46.99063873291016 -2.503414392471313 48.04980850219727 -2.503414392471313 C 48.53570556640625 -2.503414392471313 48.75410079956055 -2.602845907211304 48.83161544799805 -2.651324510574341 C 48.85834503173828 -2.670455694198608 48.87329483032227 -2.684932708740234 48.87928771972656 -2.691749095916748 C 48.88190460205078 -2.701789617538452 48.88622665405273 -2.727061986923218 48.88622665405273 -2.768554210662842 C 48.88622665405273 -2.815455198287964 48.8798713684082 -2.833834886550903 48.87961578369141 -2.834534645080566 C 48.87961578369141 -2.83453369140625 48.87961578369141 -2.834533214569092 48.87961578369141 -2.834533214569092 C 48.8795166015625 -2.834532022476196 48.86851501464844 -2.852389574050903 48.8293571472168 -2.884127140045166 C 48.78893280029297 -2.913029670715332 48.47894287109375 -3.119077682495117 47.23805618286133 -3.606164216995239 L 46.95707702636719 -3.717064380645752 L 46.45622634887695 -3.915924310684204 L 46.43742752075195 -3.923384189605713 L 46.41883850097656 -3.931354284286499 C 46.39373779296875 -3.942039489746094 46.35063552856445 -3.958979845046997 46.28995513916016 -3.982590436935425 C 45.51716232299805 -4.274352550506592 44.92827987670898 -4.531127452850342 44.48137283325195 -4.773813724517822 Z M 47.32367324829102 -8.800701141357422 C 47.32666015625 -8.79853630065918 47.32988739013672 -8.796252250671387 47.33336639404297 -8.793854713439941 L 47.33871841430664 -8.79017448425293 L 47.34402847290039 -8.786444664001465 C 47.37064743041992 -8.76833438873291 47.64352798461914 -8.592934608459473 48.75891876220703 -8.195004463195801 L 48.76250839233398 -8.193724632263184 L 48.76608657836914 -8.192423820495605 L 49.35201644897461 -7.980024337768555 C 49.93907165527344 -7.768776893615723 50.44979095458984 -7.559340000152588 50.89251327514648 -7.34726095199585 L 50.05671691894531 -8.140554428100586 C 49.46843719482422 -8.69892406463623 48.81210708618164 -8.958984375 47.99120712280273 -8.958984375 C 47.5324592590332 -8.958984375 47.36827850341797 -8.870673179626465 47.34668350219727 -8.857667922973633 C 47.33015060424805 -8.840329170227051 47.32501983642578 -8.832178115844727 47.32367324829102 -8.800701141357422 Z M 39.10263824462891 2.041995763778687 L 37.93652725219727 2.041995763778687 L 36.17870712280273 2.041995763778687 L 35.09270858764648 2.041995763778687 L 34.75367736816406 1.010265707969666 L 33.6005859375 -2.498791933059692 L 32.44748687744141 1.010265707969666 L 32.10845947265625 2.041995763778687 L 31.02245712280273 2.041995763778687 L 29.2646484375 2.041995763778687 L 28.09853744506836 2.041995763778687 L 27.81096839904785 0.9118956923484802 L 25.17773818969727 -9.436473846435547 L 25.17773818969727 -8.644043922424316 L 23.67773818969727 -8.644043922424316 L 18.8642578125 -8.644043922424316 L 18.8642578125 -8.172364234924316 L 22.9453182220459 -8.172364234924316 L 24.4453182220459 -8.172364234924316 L 24.4453182220459 -6.672364234924316 L 24.4453182220459 -5.053714275360107 L 24.4453182220459 -3.553714275360107 L 22.9453182220459 -3.553714275360107 L 18.8642578125 -3.553714275360107 L 18.8642578125 -2.803714275360107 L 23.89013671875 -2.803714275360107 L 25.39013671875 -2.803714275360107 L 25.39013671875 -1.303714275360107 L 25.39013671875 0.373535692691803 L 25.39013671875 1.873535752296448 L 23.89013671875 1.873535752296448 L 15.44531726837158 1.873535752296448 L 13.94531726837158 1.873535752296448 L 13.94531726837158 0.373535692691803 L 13.94531726837158 -11.77734470367432 L 13.94531726837158 -13.27734470367432 L 15.44531726837158 -13.27734470367432 L 23.67773818969727 -13.27734470367432 L 24.20039749145508 -13.27734470367432 L 26.1298885345459 -13.27734470367432 L 28.12206840515137 -13.27734470367432 L 29.31257820129395 -13.27734470367432 L 29.58288764953613 -12.11793422698975 L 30.45376014709473 -8.382672309875488 L 31.2899284362793 -11.22637462615967 L 31.6065673828125 -12.30322456359863 L 32.72900772094727 -12.30322456359863 L 34.47216796875 -12.30322456359863 L 35.59460830688477 -12.30322456359863 L 35.91124725341797 -11.22637462615967 L 36.74332809448242 -8.396570205688477 L 37.61095809936523 -12.11793422698975 L 37.88126754760742 -13.27734470367432 L 39.07177734375 -13.27734470367432 L 41.0712890625 -13.27734470367432 L 43.00077819824219 -13.27734470367432 L 42.52496719360352 -11.40744400024414 L 39.39020919799805 0.9118956923484802 L 39.10263824462891 2.041995763778687 Z M 12.8232479095459 1.873535752296448 L 11.3232479095459 1.873535752296448 L 9.418947219848633 1.873535752296448 L 8.599038124084473 1.873535752296448 L 8.156367301940918 1.183405756950378 L 4.693357467651367 -4.215417385101318 L 4.693357467651367 0.373535692691803 L 4.693357467651367 1.873535752296448 L 3.193357706069946 1.873535752296448 L 1.274417638778687 1.873535752296448 L -0.2255823463201523 1.873535752296448 L -0.2255823463201523 0.373535692691803 L -0.2255823463201523 -11.77734470367432 L -0.2255823463201523 -13.27734470367432 L 1.274417638778687 -13.27734470367432 L 3.852537631988525 -13.27734470367432 L 4.674227714538574 -13.27734470367432 L 5.116597652435303 -12.58490467071533 L 7.918947696685791 -8.19841480255127 L 7.918947696685791 -11.77734470367432 L 7.918947696685791 -13.27734470367432 L 9.418947219848633 -13.27734470367432 L 11.3232479095459 -13.27734470367432 L 12.8232479095459 -13.27734470367432 L 12.8232479095459 -11.77734470367432 L 12.8232479095459 0.373535692691803 L 12.8232479095459 1.873535752296448 Z" stroke="none"/>
    <path d="M 47.97655868530273 -12.04834461212158 C 46.67284774780273 -12.0483341217041 45.6376953125 -11.72119426727295 44.87109756469727 -11.06689453125 C 44.13866806030273 -10.44189453125 43.77245712280273 -9.619144439697266 43.77245712280273 -8.598634719848633 C 43.77245712280273 -7.807614326477051 44.03368759155273 -7.131344318389893 44.55614852905273 -6.56982421875 C 44.62939834594727 -6.491694450378418 44.6904296875 -6.4306640625 44.7392578125 -6.386714458465576 C 45.05663681030273 -6.123044490814209 45.75243759155273 -5.78857421875 46.82665634155273 -5.383304119110107 C 46.91454696655273 -5.349124431610107 46.9755859375 -5.324704170227051 47.009765625 -5.310054302215576 L 47.78612899780273 -5.002444267272949 C 48.83105850219727 -4.592284202575684 49.49023818969727 -4.277344226837158 49.76366806030273 -4.057614326477051 C 50.17870712280273 -3.725584506988525 50.38622665405273 -3.295894622802734 50.38622665405273 -2.7685546875 C 50.38622665405273 -2.187504768371582 50.14696884155273 -1.733394622802734 49.66845703125 -1.406254768371582 C 49.26317596435547 -1.137694358825684 48.72362899780273 -1.003414154052734 48.04980850219727 -1.003414154052734 C 46.5654296875 -1.003414154052734 45.32030868530273 -1.56982421875 44.31444549560547 -2.702633857727051 L 43.18652725219727 -1.41357421875 C 44.40234756469727 -0.04150390625 46.02099609375 0.644536018371582 48.04247665405273 0.644536018371582 C 49.34130859375 0.644536018371582 50.36669921875 0.3784160614013672 51.11864852905273 -0.153803825378418 C 52.03173828125 -0.8032245635986328 52.48827743530273 -1.708984375 52.48827743530273 -2.871094703674316 C 52.48827743530273 -3.808594226837158 52.15624618530273 -4.587404251098633 51.4921875 -5.207524299621582 C 51.01366806030273 -5.651854515075684 50.12987899780273 -6.105954170227051 48.84081649780273 -6.56982421875 L 48.25487899780273 -6.782224178314209 C 47.35155868530273 -7.104494094848633 46.76073837280273 -7.363284111022949 46.48241806030273 -7.558594226837158 C 46.04296875 -7.861324310302734 45.82323837280273 -8.266604423522949 45.82323837280273 -8.7744140625 C 45.82323837280273 -9.218744277954102 45.974609375 -9.597164154052734 46.27734756469727 -9.909664154052734 C 46.6337890625 -10.27587413787842 47.205078125 -10.458984375 47.99120712280273 -10.458984375 C 49.19237899780273 -10.458984375 50.22509765625 -10.04882431030273 51.08935928344727 -9.228513717651367 L 52.10009765625 -10.63476467132568 C 51.53857803344727 -11.08886432647705 50.974609375 -11.42578411102295 50.40819931030273 -11.64550399780273 C 49.69530868530273 -11.91406440734863 48.884765625 -12.04834461212158 47.97655868530273 -12.04834461212158 M 1.274417877197266 -11.77734470367432 L 1.274417877197266 0.3735361099243164 L 3.193359375 0.3735361099243164 L 3.193359375 -5.668944358825684 C 3.193359375 -7.148434162139893 3.12255859375 -8.588864326477051 2.98095703125 -9.990234375 L 3.061515808105469 -9.990234375 C 3.442378997802734 -9.091794013977051 3.906246185302734 -8.217774391174316 4.453128814697266 -7.3681640625 L 9.418949127197266 0.3735361099243164 L 11.32323837280273 0.3735361099243164 L 11.32323837280273 -11.77734470367432 L 9.418949127197266 -11.77734470367432 L 9.418949127197266 -6.37939453125 C 9.418949127197266 -5.080564498901367 9.467777252197266 -3.745114326477051 9.565425872802734 -2.373044013977051 L 9.5068359375 -2.373044013977051 C 9.013668060302734 -3.510744094848633 8.549808502197266 -4.421384334564209 8.115238189697266 -5.104984283447266 L 3.8525390625 -11.77734470367432 L 1.274417877197266 -11.77734470367432 M 15.44530868530273 -11.77734470367432 L 15.44530868530273 0.3735361099243164 L 23.89013671875 0.3735361099243164 L 23.89013671875 -1.303714752197266 L 17.3642578125 -1.303714752197266 L 17.3642578125 -5.053714275360107 L 22.9453067779541 -5.053714275360107 L 22.9453067779541 -6.672364234924316 L 17.3642578125 -6.672364234924316 L 17.3642578125 -10.14404392242432 L 23.67773818969727 -10.14404392242432 L 23.67773818969727 -11.77734470367432 L 15.44530868530273 -11.77734470367432 M 26.1298885345459 -11.77734470367432 L 29.2646484375 0.5419960021972656 L 31.02245712280273 0.5419960021972656 L 33.05859756469727 -5.654294490814209 C 33.2587890625 -6.259764194488525 33.4296875 -7.089844226837158 33.5712890625 -8.144534111022949 L 33.62987518310547 -8.144534111022949 C 33.76171875 -7.124024391174316 33.9326171875 -6.293944358825684 34.142578125 -5.654294490814209 L 36.17870712280273 0.5419960021972656 L 37.93652725219727 0.5419960021972656 L 41.0712890625 -11.77734470367432 L 39.07177734375 -11.77734470367432 L 37.5263671875 -5.148924350738525 C 37.31640625 -4.260254383087158 37.11864852905273 -3.239744186401367 36.93310546875 -2.087404251098633 L 36.8818359375 -2.087404251098633 C 36.73534774780273 -2.927244186401367 36.486328125 -3.947754383087158 36.134765625 -5.148924350738525 L 34.47216796875 -10.80322456359863 L 32.72900772094727 -10.80322456359863 L 31.06640815734863 -5.148924350738525 C 30.70995712280273 -3.962404251098633 30.45849800109863 -2.94189453125 30.31200790405273 -2.087404251098633 L 30.26806831359863 -2.087404251098633 C 30.07275772094727 -3.244624137878418 29.87255859375 -4.265134334564209 29.66747856140137 -5.148924350738525 L 28.12206840515137 -11.77734470367432 L 26.1298885345459 -11.77734470367432 M 47.97653961181641 -15.04834461212158 C 47.97653961181641 -15.04834461212158 47.97654724121094 -15.04834461212158 47.97655868530273 -15.04834461212158 C 49.24303817749023 -15.04834461212158 50.41698837280273 -14.84800434112549 51.46579742431641 -14.45290374755859 C 51.47493743896484 -14.44945430755615 51.48406600952148 -14.44596481323242 51.49317932128906 -14.44243431091309 C 52.34689712524414 -14.1112642288208 53.18577575683594 -13.61500453948975 53.98652648925781 -12.96744441986084 C 55.22336578369141 -11.96721458435059 55.46451950073242 -10.17550468444824 54.53614807128906 -8.883853912353516 L 53.52540588378906 -7.477604389190674 C 53.51614761352539 -7.464718818664551 53.50679016113281 -7.451920509338379 53.49734497070312 -7.439205169677734 C 53.50946426391602 -7.428155899047852 53.52156448364258 -7.417022705078125 53.53351593017578 -7.405924320220947 C 53.53558731079102 -7.404004096984863 53.53765869140625 -7.402074337005615 53.53972625732422 -7.400144100189209 C 54.81447601318359 -6.209744453430176 55.48827743530273 -4.643624305725098 55.48827743530273 -2.871094703674316 C 55.48827743530273 -0.7489547729492188 54.55395889282227 1.084285736083984 52.85741806030273 2.290915489196777 C 52.85554885864258 2.292245864868164 52.85367584228516 2.293575286865234 52.851806640625 2.294896125793457 C 51.58651733398438 3.190455436706543 49.96842956542969 3.644536018371582 48.04247665405273 3.644536018371582 C 45.20991516113281 3.644536018371582 42.77875900268555 2.608601570129395 41.00525665283203 0.6475839614868164 L 40.84387969970703 1.281795501708984 C 40.50556945800781 2.611345291137695 39.30844879150391 3.541996002197266 37.93652725219727 3.541996002197266 L 36.17870712280273 3.541996002197266 C 35.10569763183594 3.541996002197266 34.13311767578125 2.971510887145996 33.6005859375 2.07642650604248 C 33.06804656982422 2.971514701843262 32.0954704284668 3.541996002197266 31.02245712280273 3.541996002197266 L 29.2646484375 3.541996002197266 C 28.07485198974609 3.541996002197266 27.01655960083008 2.842104911804199 26.53586769104004 1.789031028747559 C 26.03023910522461 2.732121467590332 25.03508758544922 3.373536109924316 23.89013671875 3.373536109924316 L 15.44530868530273 3.373536109924316 C 14.64711761474609 3.373536109924316 13.9217529296875 3.061827659606934 13.38427352905273 2.553481101989746 C 12.84679412841797 3.061827659606934 12.12142562866211 3.373536109924316 11.32323837280273 3.373536109924316 L 9.418949127197266 3.373536109924316 C 8.397087097167969 3.373536109924316 7.445499420166016 2.853395462036133 6.893787384033203 1.99327564239502 L 6.156665802001953 0.8441038131713867 C 5.930877685546875 2.277427673339844 4.69012451171875 3.373536109924316 3.193359375 3.373536109924316 L 1.274417877197266 3.373536109924316 C -0.3824310302734375 3.373536109924316 -1.725582122802734 2.030385971069336 -1.725582122802734 0.3735361099243164 L -1.725582122802734 -11.77734470367432 C -1.725582122802734 -13.43419456481934 -0.3824310302734375 -14.77734375 1.274417877197266 -14.77734375 L 3.8525390625 -14.77734375 C 4.876346588134766 -14.77734375 5.8294677734375 -14.25523376464844 6.380657196044922 -13.39245414733887 L 6.659404754638672 -12.95613193511963 C 7.117431640625 -14.02700328826904 8.180557250976562 -14.77734375 9.418949127197266 -14.77734375 L 11.32323837280273 -14.77734375 C 12.12142562866211 -14.77734375 12.84679412841797 -14.46563625335693 13.38427352905273 -13.95728969573975 C 13.9217529296875 -14.46563625335693 14.64711761474609 -14.77734375 15.44530868530273 -14.77734375 L 23.67773818969727 -14.77734375 C 24.11490631103516 -14.77734375 24.53014183044434 -14.68387603759766 24.90472030639648 -14.51576805114746 C 25.28533363342285 -14.68605709075928 25.70209503173828 -14.77734375 26.1298885345459 -14.77734375 L 28.12206840515137 -14.77734375 C 29.28116989135742 -14.77734375 30.31319999694824 -14.11356163024902 30.81039047241211 -13.10951519012451 C 31.33625221252441 -13.54685688018799 32.00937652587891 -13.80322456359863 32.72900772094727 -13.80322456359863 L 34.47216796875 -13.80322456359863 C 35.18944549560547 -13.80322456359863 35.86049270629883 -13.54855155944824 36.38559341430664 -13.11382389068604 C 36.88362121582031 -14.11539745330811 37.91437530517578 -14.77734375 39.07177734375 -14.77734375 L 41.0712890625 -14.77734375 C 41.96197509765625 -14.77734375 42.8046989440918 -14.38164901733398 43.37345123291016 -13.70089912414551 C 44.6229133605957 -14.59545516967773 46.16835021972656 -15.04832649230957 47.97653961181641 -15.04834461212158 Z" stroke="none" fill="#fff"/>
  </g>
</svg>
