<?xml version="1.0" encoding="UTF-8"?><svg id="_レイヤー_1" data-name="グループ 22" xmlns="http://www.w3.org/2000/svg" xmlns:xlink="http://www.w3.org/1999/xlink"  width="49.031" height="56.351" viewBox="0 0 49.031 56.351">
  <defs>
    <clipPath id="clip-path">
      <rect id="長方形_52" data-name="長方形 52" width="49.031" height="56.351" fill="#f69c9e"/>
    </clipPath>
  </defs>
  <g id="res-g" data-name="グループ 21" clip-path="url(#clip-path)">
    <path id="パス_219" data-name="パス 219" d="M47.869,38.232h0a5.4,5.4,0,0,0-2.64-4.41l-.012-.006-.085-.044-.037-.019L32.776,28.795l-1.84-1.7a20.823,20.823,0,0,0,4.193-5.509c.164-.309.3-.633.447-.949a11.825,11.825,0,0,0,3-2.705,4.22,4.22,0,0,0,.908-2.472,3.471,3.471,0,0,0-1.081-2.451A4.654,4.654,0,0,0,37.5,12.3a12.64,12.64,0,0,0-4.12-8.718A13.2,13.2,0,0,0,24.622,0a13.2,13.2,0,0,0-8.756,3.583,12.652,12.652,0,0,0-4.115,8.622l-.085.019a4.54,4.54,0,0,0-1.044.787,3.471,3.471,0,0,0-1.079,2.451,4.208,4.208,0,0,0,.908,2.472,11.813,11.813,0,0,0,3,2.706l.245.1a23.292,23.292,0,0,0,2.05,3.467,19.452,19.452,0,0,0,2.366,2.7l-1.9,1.9L3.934,33.753l-.11.057-.012.006-.01.006a5.4,5.4,0,0,0-2.64,4.41L0,56.351H49.031Zm-15-7.534,1.7.684,1.38,6.393-3.8.951,2.449,3.265L26.215,52.36ZM29.062,8.586c.042-.111.071-.227.107-.341.044-.156.1-.307.127-.468a7.7,7.7,0,0,0,.029-.954H34.37l.406,2.02h-5.81c.037-.084.064-.172.1-.258M24.515,3.305a3.578,3.578,0,0,1,3.572,3.572c0,.005,0,.009,0,.014v0c0,.005,0,.009,0,.014a3.617,3.617,0,0,1-.063.625,3.589,3.589,0,0,1-.1.359c-.024.075-.044.151-.071.224a3.342,3.342,0,0,1-.21.45l-.03.059a4.132,4.132,0,0,1-.315.463s0,0,0,0a3.525,3.525,0,0,1-5.56,0s0,0,0,0a3.912,3.912,0,0,1-.315-.463c-.01-.02-.02-.04-.032-.06a3.556,3.556,0,0,1-.208-.447c-.027-.074-.047-.152-.071-.229a3.259,3.259,0,0,1-.1-.356,3.6,3.6,0,0,1-.063-.625c0-.005,0-.009,0-.014v0s0-.008,0-.014a3.576,3.576,0,0,1,3.572-3.572M14.744,6.823h4.963a8.573,8.573,0,0,0,.027.952c.03.163.085.316.13.474.034.112.063.227.1.335.034.087.061.175.1.26H14.289Zm-.279,24.558,1.7-.682,6.676,21.689-8.4-10.4,2.447-3.265-3.8-.951ZM1.847,54.619,2.891,38.344h0a3.674,3.674,0,0,1,1.752-3.007l.014-.008,8.354-3.362L11.552,38.73l3.124.781L12.8,42.019l10.174,12.6ZM21.393,41.808l-3.7-12.024,1.752-1.751.387.3a11.051,11.051,0,0,0,1.615.912l2.021,3.767Zm-.575-14.9a17.7,17.7,0,0,1-5.176-6.137,19.813,19.813,0,0,1-1.7-4.355l-.166-.608a18.649,18.649,0,0,1-.56-3.291c4.232.109,5.9-1.663,6.394-2.375h1.311a4.819,4.819,0,0,0,7.183,0h2.3a9.37,9.37,0,0,0,5.2,1.782l.037,0,.1-.005c.029.326.054.654.054.99A18.71,18.71,0,0,1,32.09,23.2a15.765,15.765,0,0,1-3.664,3.713,6.838,6.838,0,0,1-3.8,1.384,6.839,6.839,0,0,1-3.8-1.384M27.458,29.4a10.753,10.753,0,0,0,1.954-1.063l.164-.134,1.751,1.614L27.687,41.67l-2.053-8.658Zm-1.4,25.223,10.174-12.6-1.883-2.507,3.126-.781L36.02,31.967l8.352,3.363.015.008a3.674,3.674,0,0,1,1.752,3.007l1.044,16.275ZM24.515,8.109a1.231,1.231,0,1,0-1.231-1.231,1.233,1.233,0,0,0,1.231,1.231" fill="#f69c9e"/>
  </g>
</svg>
