<svg xmlns="http://www.w3.org/2000/svg" xmlns:xlink="http://www.w3.org/1999/xlink" width="57.614" height="62.746" viewBox="0 0 57.614 62.746">
  <defs>
    <clipPath id="clip-path">
      <rect id="長方形_53" data-name="長方形 53" width="43.763" height="51.756" fill="#f69c9e"/>
    </clipPath>
  </defs>
  <g id="グループ_24" data-name="グループ 24" transform="matrix(0.951, -0.309, 0.309, 0.951, 0, 13.523)">
    <g id="グループ_23" data-name="グループ 23" clip-path="url(#clip-path)">
      <path id="パス_220" data-name="パス 220" d="M28.759,16.512a1.477,1.477,0,0,0-.032-2.056,1.4,1.4,0,0,0-2.012.033l-8.472,8.93-.794-.786L25.92,13.7a1.477,1.477,0,0,0-.032-2.055,1.4,1.4,0,0,0-2.013.031L15.4,20.609l-.793-.785,8.471-8.929a1.479,1.479,0,0,0-.032-2.057,1.4,1.4,0,0,0-2.012.034L12.564,17.8l-.794-.786,8.472-8.93a1.477,1.477,0,0,0-.032-2.056,1.4,1.4,0,0,0-2.012.033l-8.472,8.93-.794-.786L17.4,5.275A1.476,1.476,0,0,0,17.37,3.22a1.4,1.4,0,0,0-2.012.032L6.886,12.181,6.092,11.4l8.471-8.93A1.476,1.476,0,0,0,14.532.41a1.4,1.4,0,0,0-2.012.034L3.63,9.814A6.9,6.9,0,0,0,1.636,11.35,6.662,6.662,0,0,0,.126,13.595.49.49,0,0,0,0,13.94a.556.556,0,0,0,.163.356L35.868,49.629v0l0,0,.138.137a.479.479,0,0,0,.135.078,4.79,4.79,0,0,0,.528.618,4.193,4.193,0,0,0,6.013.041,4.411,4.411,0,0,0-.352-6.129c-.086-.083-.183-.141-.274-.216-.012-.014-.015-.036-.027-.048a24.919,24.919,0,0,0-2.686-1.934L29.58,34.333A17.594,17.594,0,0,0,27.924,33l-4.8-4.748,8.472-8.93a1.476,1.476,0,0,0-.033-2.055,1.4,1.4,0,0,0-2.011.032l-8.472,8.93-.794-.786Z" transform="translate(0 -0.001)" fill="#f69c9e"/>
    </g>
  </g>
</svg>
