<svg id="グループ_39" data-name="グループ 39" xmlns="http://www.w3.org/2000/svg" xmlns:xlink="http://www.w3.org/1999/xlink" width="50.909" height="50" viewBox="0 0 50.909 50">
  <defs>
    <clipPath id="clip-path">
      <rect id="長方形_67" data-name="長方形 67" width="50.909" height="50" fill="none"/>
    </clipPath>
  </defs>
  <g id="グループ_36" data-name="グループ 36" transform="translate(0 0)" clip-path="url(#clip-path)">
    <path id="パス_233" data-name="パス 233" d="M.073,72.9c.093-.284.073-.585.139-.874A8.718,8.718,0,0,1,.53,70.873c.132-.35.226-.716.377-1.064.086-.2.243-.361.313-.547a3.24,3.24,0,0,1,.35-.656,10.167,10.167,0,0,1,1.617-1.928A9.461,9.461,0,0,1,8.51,64.25a5.443,5.443,0,0,1,.621-.038c.09,0,.123-.016.143-.122a9.481,9.481,0,0,1,.664-2.04A9.879,9.879,0,0,1,11.3,59.821a9.621,9.621,0,0,1,1.619-1.539A8.608,8.608,0,0,1,15.281,57a10.146,10.146,0,0,1,1.9-.5,6.253,6.253,0,0,1,.811-.086c.246-.006.493-.053.738-.04a10.064,10.064,0,0,1,3.616.766,9.122,9.122,0,0,1,2.746,1.779c.114.111.154.027.218-.035a8.855,8.855,0,0,1,2.3-1.57,9.238,9.238,0,0,1,3.007-.857,8.324,8.324,0,0,1,1.2-.07,10.474,10.474,0,0,1,1.915.2,9.66,9.66,0,0,1,3.365,1.426A9.531,9.531,0,0,1,41.1,63.976c.029.14.08.184.223.192a9.535,9.535,0,0,1,2.861.577A10.08,10.08,0,0,1,46.226,65.8,9.6,9.6,0,0,1,48,67.348a9.041,9.041,0,0,1,1.773,2.85,10.623,10.623,0,0,1,.614,2.378,10.177,10.177,0,0,1,.043,2.067,9.626,9.626,0,0,1-2.177,5.334c-.317.395-.7.725-1.048,1.085a.487.487,0,0,0-.147.482c.042.258.088.52.111.782a12.958,12.958,0,0,1,.1,1.78c-.03.612-.094,1.22-.179,1.828a13.2,13.2,0,0,1-.9,3.272,14.254,14.254,0,0,1-1.219,2.228,15.006,15.006,0,0,1-2.482,2.844,16.6,16.6,0,0,1-1.826,1.431c-.412.285-.834.558-1.265.8a15.89,15.89,0,0,1-1.582.813c-.606.258-1.211.522-1.828.751s-1.23.427-1.854.609c-.528.154-1.067.277-1.6.394-.733.159-1.466.312-2.211.415-.7.1-1.411.161-2.118.229-.631.061-1.262.066-1.893.1-.4.021-.794.016-1.184.013-.66,0-1.325-.008-1.985-.071-.624-.059-1.252-.1-1.871-.192-.9-.136-1.8-.289-2.684-.493a27.964,27.964,0,0,1-2.728-.757,23.132,23.132,0,0,1-3.443-1.46,20.541,20.541,0,0,1-2.4-1.473,10.748,10.748,0,0,1-1.519-1.248c-.1-.1-.23-.176-.335-.28a14.57,14.57,0,0,1-2.411-3.076,12.335,12.335,0,0,1-1.605-4.275c-.047-.314-.067-.653-.134-.947a8.5,8.5,0,0,1-.126-1.6A7.071,7.071,0,0,1,3.925,82.7c.045-.317.056-.638.113-.955.024-.137-.122-.169-.2-.224A10.045,10.045,0,0,1,2.281,80,9.318,9.318,0,0,1,.947,77.908a8.167,8.167,0,0,1-.661-1.973c-.074-.386-.114-.778-.172-1.167,0-.017-.027-.031-.042-.046V72.9M9.7,65.638a8.116,8.116,0,0,0-1.711.179,7.276,7.276,0,0,0-2.207.817A7.23,7.23,0,0,0,4.062,67.9a9.106,9.106,0,0,0-.733.75,9.129,9.129,0,0,0-1.184,2.044,7.109,7.109,0,0,0-.571,2.192,9.346,9.346,0,0,0,.255,3.126,9.209,9.209,0,0,0,.9,2.093,8.033,8.033,0,0,0,.739,1.017,6.923,6.923,0,0,0,1.289,1.247c.268.193.547.37.826.546.066.042.133.081.084.155a.781.781,0,0,0-.065.288,8.642,8.642,0,0,0-.239,1.949c0,.461,0,.928.018,1.392a11.122,11.122,0,0,0,.256,1.9A10.544,10.544,0,0,0,6.73,89.535a12.208,12.208,0,0,0,1.341,2c.352.419.745.793,1.1,1.2a3.226,3.226,0,0,0,.672.584,6.846,6.846,0,0,1,.5.474,15.84,15.84,0,0,0,1.827,1.236A16.514,16.514,0,0,0,14.6,96.253c.229.1.444.279.725.2.122.216.373.22.559.3a17.213,17.213,0,0,0,2.044.662c.448.136.913.214,1.372.31.722.152,1.452.259,2.184.353.448.057.9.1,1.347.147.745.074,1.493.109,2.237.115.543,0,1.09.019,1.637-.021s1.076-.059,1.614-.1c.764-.056,1.519-.168,2.274-.284a22.321,22.321,0,0,0,2.8-.6c.762-.219,1.52-.448,2.262-.729a20.831,20.831,0,0,0,3.876-1.938,14.726,14.726,0,0,0,3.609-3.213A12.041,12.041,0,0,0,45.208,87.6a13.8,13.8,0,0,0,.564-3.11,10.647,10.647,0,0,0-.061-1.856,4.5,4.5,0,0,0-.061-.545c-.087-.4-.15-.807-.21-1.212-.023-.157,0-.352.143-.416A2.823,2.823,0,0,0,46.172,80a7.5,7.5,0,0,0,1.836-2.3,8.549,8.549,0,0,0,.794-2.142,10.544,10.544,0,0,0,.184-1.55,5.467,5.467,0,0,0-.034-.69,8.184,8.184,0,0,0-1.727-4.585,7.781,7.781,0,0,0-1.507-1.474,8.167,8.167,0,0,0-2.706-1.323,10.131,10.131,0,0,0-1.482-.244,4.637,4.637,0,0,0-1.309.007c-.341.055-.414-.027-.429-.378a4.9,4.9,0,0,0-.075-.612,11.3,11.3,0,0,0-.347-1.332,8,8,0,0,0-.86-1.834,7.223,7.223,0,0,0-.747-.946,7.341,7.341,0,0,0-1.493-1.354,8.267,8.267,0,0,0-1.3-.7,8.415,8.415,0,0,0-3.08-.685,7.543,7.543,0,0,0-1.777.178A7.974,7.974,0,0,0,26.8,59.565a7.856,7.856,0,0,0-1.435,1.451c-.16.208-.2.2-.351,0a7.139,7.139,0,0,0-1.99-1.845,8.7,8.7,0,0,0-2.229-1.01c-.3-.087-.611-.178-.91-.253a4.4,4.4,0,0,0-.842-.04,7.734,7.734,0,0,0-1.762.127,9.312,9.312,0,0,0-1.736.5,8.2,8.2,0,0,0-2.513,1.647c-.23.214-.405.484-.614.712a6.7,6.7,0,0,0-.992,1.482,7.1,7.1,0,0,0-.651,1.9,6.784,6.784,0,0,0-.195,1.3c0,.178-.086.208-.207.17a3.26,3.26,0,0,0-.671-.062" transform="translate(-0.068 -52.852)" fill="#7f4f21"/>
    <path id="パス_234" data-name="パス 234" d="M31.929,88.094a3.254,3.254,0,0,1,.671.062c.121.038.207.009.207-.17a6.778,6.778,0,0,1,.195-1.3,7.1,7.1,0,0,1,.651-1.9,6.7,6.7,0,0,1,.993-1.482c.209-.228.384-.5.614-.712a8.2,8.2,0,0,1,2.513-1.647,9.3,9.3,0,0,1,1.736-.5,7.734,7.734,0,0,1,1.762-.127,4.4,4.4,0,0,1,.842.04c.3.075.607.166.91.253a8.7,8.7,0,0,1,2.229,1.01,7.14,7.14,0,0,1,1.99,1.845c.153.209.191.213.351,0a7.862,7.862,0,0,1,1.435-1.451,7.973,7.973,0,0,1,3.316-1.527,7.546,7.546,0,0,1,1.777-.178A8.414,8.414,0,0,1,57.2,81a8.272,8.272,0,0,1,1.3.7,7.339,7.339,0,0,1,1.493,1.354,7.218,7.218,0,0,1,.747.946,7.992,7.992,0,0,1,.86,1.834,11.309,11.309,0,0,1,.347,1.332,4.91,4.91,0,0,1,.075.612c.015.351.088.434.429.378a4.635,4.635,0,0,1,1.309-.007,10.132,10.132,0,0,1,1.482.244,8.167,8.167,0,0,1,2.706,1.323,7.782,7.782,0,0,1,1.507,1.474,8.184,8.184,0,0,1,1.727,4.585,5.477,5.477,0,0,1,.034.69,10.564,10.564,0,0,1-.184,1.55,8.549,8.549,0,0,1-.794,2.142,7.5,7.5,0,0,1-1.836,2.3,2.824,2.824,0,0,1-.588.456c-.14.064-.167.259-.143.416.06.406.123.812.21,1.212a4.5,4.5,0,0,1,.061.545A10.655,10.655,0,0,1,68,106.944a13.8,13.8,0,0,1-.564,3.11,12.042,12.042,0,0,1-2.061,3.861,14.728,14.728,0,0,1-3.609,3.213,20.835,20.835,0,0,1-3.876,1.938c-.742.281-1.5.51-2.262.729a22.321,22.321,0,0,1-2.8.6c-.756.115-1.511.228-2.274.284-.538.04-1.077.059-1.614.1s-1.094.025-1.637.021c-.744-.005-1.492-.041-2.237-.115-.45-.044-.9-.089-1.347-.147-.732-.094-1.462-.2-2.184-.353-.459-.1-.924-.175-1.372-.31a17.2,17.2,0,0,1-2.044-.662c-.187-.083-.438-.087-.559-.3-.281.078-.5-.106-.725-.2a16.518,16.518,0,0,1-2.426-1.228,15.84,15.84,0,0,1-1.827-1.236,6.82,6.82,0,0,0-.5-.474,3.226,3.226,0,0,1-.672-.584c-.359-.408-.752-.782-1.1-1.2a12.21,12.21,0,0,1-1.341-2,10.547,10.547,0,0,1-1.089-2.931,11.128,11.128,0,0,1-.256-1.9c-.016-.464-.023-.932-.018-1.392a8.649,8.649,0,0,1,.239-1.949.78.78,0,0,1,.065-.288c.049-.073-.018-.113-.084-.155-.279-.176-.559-.353-.826-.546a6.925,6.925,0,0,1-1.289-1.247,8.034,8.034,0,0,1-.739-1.018,9.213,9.213,0,0,1-.9-2.093,9.347,9.347,0,0,1-.255-3.126,7.109,7.109,0,0,1,.571-2.192,9.133,9.133,0,0,1,1.183-2.044,9.115,9.115,0,0,1,.733-.75,8.085,8.085,0,0,1,3.93-2.083,8.112,8.112,0,0,1,1.711-.179m3.621,21.858a4.768,4.768,0,0,0,.095,1.122,3.187,3.187,0,0,0,.716,1.539,4.174,4.174,0,0,0,3.11,1.377c.516.014,1.033.028,1.55,0a16,16,0,0,0,1.6-.217c.444-.068.869-.222,1.3-.323a10.865,10.865,0,0,0,1.424-.414,11.454,11.454,0,0,0,2.41-1.179.185.185,0,0,1,.232,0c.279.176.558.352.849.506a14.427,14.427,0,0,0,2.755,1.057,18.52,18.52,0,0,0,2.575.514,11.377,11.377,0,0,0,1.582.064,5.293,5.293,0,0,0,3.042-.855,2.871,2.871,0,0,0,1.141-1.529,5.123,5.123,0,0,0,.123-2.786,2.911,2.911,0,0,0-.137-.68c-.179-.309-.288-.646-.468-.949a3.711,3.711,0,0,0-.3-.554c-.257-.287-.484-.6-.756-.874a4.709,4.709,0,0,0-.8-.772,11.69,11.69,0,0,0-2.107-1.126c-.068-.024-.157-.061-.144-.132.036-.189-.113-.276-.186-.407a8.728,8.728,0,0,0-1.271-1.893c-.281-.293-.59-.558-.856-.871a2.237,2.237,0,0,0-.575-.382c-.188-.11-.309-.3-.5-.392-.391-.189-.8-.346-1.182-.55a4.933,4.933,0,0,0-.874-.322,5.075,5.075,0,0,0-1.018-.2,3.592,3.592,0,0,0-.6-.114,1.96,1.96,0,0,1-.951-.02c-.043-.016-.076.015-.1.045-.068.086-.162.076-.255.079a5.321,5.321,0,0,0-1.444.257A8.418,8.418,0,0,0,44.1,99.6a8.6,8.6,0,0,0-2.6,2.132,6.751,6.751,0,0,0-1.185,1.937.509.509,0,0,1-.3.314,7.071,7.071,0,0,0-1.385.721,10.182,10.182,0,0,0-1.392,1.189,6.477,6.477,0,0,0-1.233,1.947,5.231,5.231,0,0,0-.443,2.113M57.771,97.628a1.931,1.931,0,0,0,.083,1.031,5.37,5.37,0,0,0,.545,1.155,5.855,5.855,0,0,0,1.05,1.12,4.286,4.286,0,0,0,1.3.658,3.951,3.951,0,0,0,1.273.119,2.721,2.721,0,0,0,1.047-.113,4.819,4.819,0,0,0,1.678-.937,3.883,3.883,0,0,0,.715-.8,4.574,4.574,0,0,0,.7-2.16,11.139,11.139,0,0,0-.007-1.259c-.017-.189.031-.374,0-.571-.022-.149-.115-.247-.135-.384a5.449,5.449,0,0,0-.265-1.021,5.721,5.721,0,0,0-.717-1.421,2.442,2.442,0,0,0-.95-.816,2.964,2.964,0,0,0-2.152-.143,4.488,4.488,0,0,0-1.395.753c-.145.113-.326.156-.456.306-.427.488-.935.9-1.328,1.424a3,3,0,0,0-.351.538,9.041,9.041,0,0,0-.56,1.334,1.93,1.93,0,0,0-.133.591c.027.2,0,.392.052.6M42.007,95.4a2.062,2.062,0,0,0,1.165-.168,4.481,4.481,0,0,0,1.8-1.176,5.925,5.925,0,0,0,1.088-2.047,1.911,1.911,0,0,0,0-.472,3.326,3.326,0,0,0,.035-.783,4.47,4.47,0,0,0-.355-1.161,7.223,7.223,0,0,0-.7-1.291,9.388,9.388,0,0,0-1.214-1.311,4.935,4.935,0,0,0-2.685-1.335,2.3,2.3,0,0,0-1.228.172,3.3,3.3,0,0,0-1.148.955c-.362.457-.5,1.024-.829,1.494.053.383-.172.711-.211,1.083a6.866,6.866,0,0,0-.091,1.277c.021.261-.048.537-.011.785a3.981,3.981,0,0,0,.28,1.221,5.915,5.915,0,0,0,.535,1.025,3.067,3.067,0,0,0,.613.75,4.359,4.359,0,0,0,1.515.81c.19.037.368.2.549.2.275-.008.551,0,.886-.025m11.484.011a4.8,4.8,0,0,0,.9-.082,4.182,4.182,0,0,0,3.3-3.83c.032-.42,0-.839.033-1.256a3.7,3.7,0,0,0-.162-1.261c-.039-.143,0-.326-.063-.4a1.923,1.923,0,0,1-.252-.563,4.179,4.179,0,0,0-1.317-1.884,2.754,2.754,0,0,0-2.994-.1A6.768,6.768,0,0,0,51,87.49a4.388,4.388,0,0,0-.485.539c-.374.554-.688,1.149-1.023,1.729a.2.2,0,0,0-.022.111,3.691,3.691,0,0,1-.076.5c-.01.157-.159.273-.115.425a1.865,1.865,0,0,1,.024.783,1.714,1.714,0,0,0,.108.815,3.556,3.556,0,0,0,.485.988,5.447,5.447,0,0,0,.622.862,6.128,6.128,0,0,0,1.48.928,4.441,4.441,0,0,0,.834.237,2.07,2.07,0,0,0,.659,0M37.609,97.561c0-.154,0-.309,0-.465a2.165,2.165,0,0,0-.04-.583,5.084,5.084,0,0,0-.546-1.165c-.073-.11-.03-.257-.124-.344-.359-.333-.583-.772-.917-1.129a6.515,6.515,0,0,0-1.613-1.34,3.476,3.476,0,0,0-1.382-.561,3.268,3.268,0,0,0-1.419.128,1.631,1.631,0,0,0-.6.283,5.226,5.226,0,0,0-1.34,2.057,7.087,7.087,0,0,0-.432,2.317c0,.3-.051.629-.027.916a3.4,3.4,0,0,0,.216,1.038,4.343,4.343,0,0,0,.407,1,5.467,5.467,0,0,0,1,1.085,4.254,4.254,0,0,0,6.445-1.515,3.055,3.055,0,0,0,.272-.787c.021-.122.182-.183.149-.251-.113-.231.008-.461-.046-.689" transform="translate(-22.294 -75.308)" fill="#fff"/>
    <path id="パス_235" data-name="パス 235" d="M212.714,386.808a6.03,6.03,0,0,1,.511-2.435,7.466,7.466,0,0,1,1.422-2.244,11.743,11.743,0,0,1,1.6-1.37,8.15,8.15,0,0,1,1.6-.831.587.587,0,0,0,.347-.362,7.78,7.78,0,0,1,1.366-2.232,9.912,9.912,0,0,1,3-2.457,9.7,9.7,0,0,1,1.659-.72,6.129,6.129,0,0,1,1.664-.3c.108,0,.216.008.294-.091.027-.034.064-.07.114-.052a2.26,2.26,0,0,0,1.1.023,4.138,4.138,0,0,1,.687.132,5.851,5.851,0,0,1,1.173.228,5.679,5.679,0,0,1,1.007.371c.442.234.911.416,1.362.633.221.107.361.326.577.452a2.581,2.581,0,0,1,.663.44c.306.361.662.666.986,1a10.059,10.059,0,0,1,1.466,2.182c.084.152.256.252.214.47-.016.082.087.124.166.152a13.478,13.478,0,0,1,2.429,1.3,5.433,5.433,0,0,1,.92.89c.314.315.575.677.871,1.007a4.271,4.271,0,0,1,.351.638c.208.349.334.738.54,1.094a3.35,3.35,0,0,1,.158.784,5.905,5.905,0,0,1-.142,3.211,3.309,3.309,0,0,1-1.315,1.763,6.1,6.1,0,0,1-3.507.985,13.1,13.1,0,0,1-1.824-.074,21.345,21.345,0,0,1-2.968-.592,16.632,16.632,0,0,1-3.176-1.218c-.335-.178-.658-.381-.979-.584a.213.213,0,0,0-.267,0,13.2,13.2,0,0,1-2.778,1.359,12.512,12.512,0,0,1-1.641.477c-.5.117-.991.295-1.5.373a18.443,18.443,0,0,1-1.844.25c-.6.03-1.191.014-1.786,0a4.812,4.812,0,0,1-3.585-1.587,3.673,3.673,0,0,1-.825-1.774,5.5,5.5,0,0,1-.109-1.293" transform="translate(-201.466 -351.694)" fill="#fde9ea" stroke="#f69c9e" stroke-linejoin="round" stroke-width="2"/>
    <path id="パス_236" data-name="パス 236" d="M568.6,273.52c-.054-.238-.028-.463-.059-.686a2.206,2.206,0,0,1,.152-.677,10.37,10.37,0,0,1,.641-1.527,3.43,3.43,0,0,1,.4-.616c.45-.6,1.031-1.071,1.52-1.629.149-.171.356-.22.522-.35a5.134,5.134,0,0,1,1.6-.861,3.392,3.392,0,0,1,2.462.164,2.793,2.793,0,0,1,1.087.933,6.541,6.541,0,0,1,.821,1.626,6.229,6.229,0,0,1,.3,1.168c.024.157.13.269.155.439.033.225-.022.436,0,.653a12.714,12.714,0,0,1,.007,1.441,5.234,5.234,0,0,1-.8,2.472,4.438,4.438,0,0,1-.818.92,5.513,5.513,0,0,1-1.921,1.072,3.112,3.112,0,0,1-1.2.13,4.519,4.519,0,0,1-1.456-.136,4.9,4.9,0,0,1-1.49-.753,6.7,6.7,0,0,1-1.2-1.282,6.145,6.145,0,0,1-.624-1.322,2.209,2.209,0,0,1-.095-1.18" transform="translate(-533.452 -251.454)" fill="#f69c9e"/>
    <path id="パス_237" data-name="パス 237" d="M250.9,176.7c-.376.03-.686.019-.995.028-.2.006-.4-.18-.616-.223a4.892,4.892,0,0,1-1.7-.91,3.444,3.444,0,0,1-.689-.842,6.645,6.645,0,0,1-.6-1.151,4.468,4.468,0,0,1-.315-1.371c-.042-.278.035-.589.012-.881a7.713,7.713,0,0,1,.1-1.434c.044-.418.3-.786.237-1.216.364-.528.524-1.165.931-1.678a3.709,3.709,0,0,1,1.289-1.072,2.582,2.582,0,0,1,1.379-.193,5.542,5.542,0,0,1,3.015,1.5,10.54,10.54,0,0,1,1.364,1.473,8.113,8.113,0,0,1,.783,1.45,5.018,5.018,0,0,1,.4,1.3,3.734,3.734,0,0,1-.04.879,2.143,2.143,0,0,1,0,.53,6.656,6.656,0,0,1-1.221,2.3,5.033,5.033,0,0,1-2.02,1.321,2.316,2.316,0,0,1-1.308.189" transform="translate(-231.185 -156.618)" fill="#f69c9e"/>
    <path id="パス_238" data-name="パス 238" d="M437.723,176.7a2.321,2.321,0,0,1-.74,0,4.981,4.981,0,0,1-.936-.266,6.876,6.876,0,0,1-1.662-1.042,6.113,6.113,0,0,1-.7-.968,3.992,3.992,0,0,1-.545-1.109,1.925,1.925,0,0,1-.121-.915,2.093,2.093,0,0,0-.027-.879c-.049-.171.118-.3.129-.477a4.152,4.152,0,0,0,.085-.565.23.23,0,0,1,.025-.124c.376-.651.728-1.32,1.148-1.941a4.923,4.923,0,0,1,.544-.6,7.6,7.6,0,0,1,2.18-1.644,3.093,3.093,0,0,1,3.362.116,4.693,4.693,0,0,1,1.479,2.116,2.159,2.159,0,0,0,.283.632c.068.083.027.29.071.45a4.154,4.154,0,0,1,.182,1.416c-.034.468,0,.939-.037,1.41a4.7,4.7,0,0,1-3.709,4.3,5.379,5.379,0,0,1-1.014.093" transform="translate(-406.51 -156.603)" fill="#f69c9e"/>
    <path id="パス_239" data-name="パス 239" d="M119.882,273.571c.061.26-.077.524.053.789.038.077-.147.148-.171.287a3.5,3.5,0,0,1-.312.9,4.871,4.871,0,0,1-7.381,1.736,6.261,6.261,0,0,1-1.144-1.243,4.972,4.972,0,0,1-.466-1.15,3.892,3.892,0,0,1-.247-1.189c-.027-.329.036-.7.031-1.049a8.117,8.117,0,0,1,.494-2.654,5.986,5.986,0,0,1,1.535-2.355,1.869,1.869,0,0,1,.689-.324,3.742,3.742,0,0,1,1.626-.146,3.981,3.981,0,0,1,1.583.642,7.46,7.46,0,0,1,1.847,1.535c.382.409.639.912,1.05,1.293.107.1.058.267.142.394a5.822,5.822,0,0,1,.626,1.334,2.48,2.48,0,0,1,.046.668c0,.178,0,.356,0,.532" transform="translate(-104.408 -251.251)" fill="#f69c9e"/>
  </g>
</svg>
