<svg xmlns="http://www.w3.org/2000/svg" xmlns:xlink="http://www.w3.org/1999/xlink" width="302" height="301" viewBox="0 0 302 301">
  <defs>
    <clipPath id="clip-path">
      <rect id="長方形_67" data-name="長方形 67" width="302" height="301" transform="translate(0 0)" fill="none"/>
    </clipPath>
    <clipPath id="clip-path-2">
      <rect id="長方形_36" data-name="長方形 36" width="120.558" height="18.451" fill="#fde9ea"/>
    </clipPath>
  </defs>
  <g id="グループ_53" data-name="グループ 53" transform="translate(-64 -3406)">
    <g id="グループ_37" data-name="グループ 37" transform="translate(64 3406)">
      <g id="グループ_36" data-name="グループ 36" transform="translate(0 0)" clip-path="url(#clip-path)">
        <path id="パス_233" data-name="パス 233" d="M.073,155.153c.557-1.695.435-3.5.827-5.22a52.08,52.08,0,0,1,1.9-6.889c.788-2.094,1.347-4.279,2.251-6.354.516-1.187,1.454-2.154,1.868-3.267A19.356,19.356,0,0,1,9.01,129.5a60.742,60.742,0,0,1,9.659-11.519,56.521,56.521,0,0,1,31.808-14.505,32.523,32.523,0,0,1,3.707-.229c.539,0,.734-.1.855-.729a56.645,56.645,0,0,1,3.966-12.19,59.018,59.018,0,0,1,8.16-13.311,57.478,57.478,0,0,1,9.674-9.194,51.427,51.427,0,0,1,14.088-7.69,60.614,60.614,0,0,1,11.351-3,37.359,37.359,0,0,1,4.844-.516c1.471-.038,2.947-.314,4.409-.242,7.44.364,14.7,1.537,21.6,4.575a54.5,54.5,0,0,1,16.408,10.631c.679.661.921.159,1.305-.211a52.9,52.9,0,0,1,13.728-9.381,55.187,55.187,0,0,1,17.965-5.123,49.729,49.729,0,0,1,7.149-.419,62.574,62.574,0,0,1,11.443,1.218,57.711,57.711,0,0,1,20.1,8.52,56.94,56.94,0,0,1,23.932,35.656c.174.836.477,1.1,1.335,1.144a56.962,56.962,0,0,1,17.095,3.446,60.22,60.22,0,0,1,12.207,6.32,57.332,57.332,0,0,1,10.591,9.233,54.014,54.014,0,0,1,10.593,17.03,63.467,63.467,0,0,1,3.668,14.2,60.8,60.8,0,0,1,.259,12.346,57.512,57.512,0,0,1-13.006,31.864c-1.893,2.359-4.164,4.333-6.26,6.484a2.911,2.911,0,0,0-.877,2.877c.248,1.538.525,3.108.664,4.673a77.41,77.41,0,0,1,.571,10.632c-.179,3.658-.563,7.291-1.072,10.924a78.871,78.871,0,0,1-5.375,19.546,85.155,85.155,0,0,1-7.283,13.31,89.649,89.649,0,0,1-14.826,16.99,99.188,99.188,0,0,1-10.909,8.547c-2.459,1.7-4.983,3.334-7.555,4.79a94.914,94.914,0,0,1-9.452,4.855c-3.62,1.543-7.233,3.118-10.921,4.484-3.642,1.349-7.346,2.551-11.075,3.639-3.156.921-6.372,1.653-9.588,2.351-4.378.951-8.76,1.867-13.212,2.477-4.211.577-8.431.96-12.656,1.368-3.769.364-7.54.4-11.309.6-2.36.127-4.745.1-7.071.08-3.941-.028-7.917-.048-11.86-.423-3.729-.355-7.478-.591-11.178-1.148-5.373-.81-10.729-1.729-16.037-2.945a167.062,167.062,0,0,1-16.3-4.523,138.188,138.188,0,0,1-20.569-8.722,122.717,122.717,0,0,1-14.31-8.8,64.211,64.211,0,0,1-9.077-7.455c-.593-.619-1.374-1.05-2-1.671A87.046,87.046,0,0,1,33.968,261.99c-4.56-7.973-8.206-16.363-9.591-25.54-.283-1.875-.4-3.9-.8-5.658a50.771,50.771,0,0,1-.753-9.537,42.245,42.245,0,0,1,.262-7.565c.27-1.892.337-3.814.676-5.706.146-.816-.728-1.007-1.17-1.34a60.006,60.006,0,0,1-9.326-9.081A55.666,55.666,0,0,1,5.3,185.075a48.8,48.8,0,0,1-3.947-11.789c-.442-2.305-.682-4.649-1.026-6.974-.015-.1-.163-.184-.25-.274V155.153m57.534-43.382a48.488,48.488,0,0,0-10.223,1.067A43.466,43.466,0,0,0,34.2,117.721c-3.69,2.178-7.352,4.359-10.3,7.56-1.415,1.538-3.168,2.809-4.379,4.483a54.539,54.539,0,0,0-7.071,12.209c-1.641,4.251-3.183,8.537-3.41,13.094-.312,6.269-.272,12.521,1.524,18.673a55.016,55.016,0,0,0,5.4,12.507,47.991,47.991,0,0,0,4.418,6.079,41.36,41.36,0,0,0,7.7,7.452c1.6,1.153,3.267,2.211,4.936,3.262.4.249.794.484.5.923a4.666,4.666,0,0,0-.39,1.722,51.628,51.628,0,0,0-1.43,11.643c-.029,2.752.015,5.545.107,8.318a66.445,66.445,0,0,0,1.53,11.381,62.993,62.993,0,0,0,6.5,17.513,72.933,72.933,0,0,0,8.013,11.923c2.1,2.5,4.45,4.738,6.6,7.174a19.274,19.274,0,0,0,4.012,3.487,40.907,40.907,0,0,1,3.012,2.83,94.626,94.626,0,0,0,10.914,7.382,98.659,98.659,0,0,0,14.493,7.338c1.371.568,2.654,1.67,4.333,1.2.726,1.289,2.226,1.314,3.34,1.81,3.914,1.743,8.116,2.714,12.213,3.954,2.674.81,5.454,1.277,8.2,1.854,4.316.906,8.675,1.546,13.048,2.106,2.679.343,5.361.611,8.048.877,4.449.44,8.919.652,13.365.684,3.244.024,6.515.111,9.783-.127,3.206-.234,6.426-.35,9.64-.587,4.562-.337,9.073-1.007,13.588-1.7a133.357,133.357,0,0,0,16.74-3.59c4.555-1.309,9.081-2.678,13.512-4.356a124.448,124.448,0,0,0,23.157-11.578,87.979,87.979,0,0,0,21.562-19.194,71.938,71.938,0,0,0,12.312-23.065,82.463,82.463,0,0,0,3.37-18.579,63.607,63.607,0,0,0-.366-11.089,26.862,26.862,0,0,0-.366-3.258c-.518-2.393-.895-4.819-1.253-7.243-.138-.935.023-2.1.857-2.485a16.864,16.864,0,0,0,3.515-2.725,44.828,44.828,0,0,0,10.969-13.727,51.073,51.073,0,0,0,4.742-12.8,63,63,0,0,0,1.1-9.262,32.664,32.664,0,0,0-.205-4.125,48.893,48.893,0,0,0-10.318-27.393,46.482,46.482,0,0,0-9-8.809,48.79,48.79,0,0,0-16.165-7.905,60.527,60.527,0,0,0-8.855-1.459,27.7,27.7,0,0,0-7.821.042c-2.038.331-2.473-.163-2.563-2.26a29.257,29.257,0,0,0-.449-3.654,67.543,67.543,0,0,0-2.076-7.959A47.77,47.77,0,0,0,229.7,87.321a43.155,43.155,0,0,0-4.462-5.654,43.858,43.858,0,0,0-8.921-8.091,49.385,49.385,0,0,0-7.738-4.185,50.274,50.274,0,0,0-18.4-4.091,45.063,45.063,0,0,0-10.614,1.063,47.639,47.639,0,0,0-19.813,9.123,46.937,46.937,0,0,0-8.572,8.666c-.958,1.244-1.183,1.223-2.1-.029A42.651,42.651,0,0,0,137.194,73.1,51.959,51.959,0,0,0,123.88,67.07c-1.808-.521-3.647-1.063-5.436-1.511a26.273,26.273,0,0,0-5.031-.239,46.207,46.207,0,0,0-10.525.758,55.631,55.631,0,0,0-10.371,3.014A48.994,48.994,0,0,0,77.5,78.929c-1.376,1.28-2.42,2.89-3.67,4.252A40,40,0,0,0,67.9,92.034a42.428,42.428,0,0,0-3.889,11.322,40.53,40.53,0,0,0-1.162,7.772c0,1.065-.513,1.242-1.237,1.014a19.469,19.469,0,0,0-4.007-.371" transform="translate(-0.046 -35.384)" fill="#7f4f21"/>
        <path id="パス_234" data-name="パス 234" d="M72.487,126.805a19.441,19.441,0,0,1,4.007.371c.724.228,1.235.051,1.237-1.014a40.5,40.5,0,0,1,1.162-7.772,42.434,42.434,0,0,1,3.888-11.322,40,40,0,0,1,5.93-8.853c1.25-1.362,2.293-2.971,3.67-4.252A48.982,48.982,0,0,1,107.4,84.126a55.6,55.6,0,0,1,10.371-3.014,46.207,46.207,0,0,1,10.525-.758,26.31,26.31,0,0,1,5.031.239c1.788.449,3.628.99,5.436,1.511a51.978,51.978,0,0,1,13.314,6.033,42.656,42.656,0,0,1,11.888,11.02c.917,1.251,1.141,1.273,2.1.028a46.973,46.973,0,0,1,8.572-8.666A47.635,47.635,0,0,1,194.445,81.4a45.081,45.081,0,0,1,10.614-1.063,50.268,50.268,0,0,1,18.4,4.091A49.417,49.417,0,0,1,231.2,88.61a43.845,43.845,0,0,1,8.92,8.091,43.122,43.122,0,0,1,4.462,5.654,47.742,47.742,0,0,1,5.136,10.957,67.557,67.557,0,0,1,2.075,7.959,29.321,29.321,0,0,1,.45,3.654c.09,2.1.526,2.591,2.563,2.26a27.691,27.691,0,0,1,7.821-.042,60.528,60.528,0,0,1,8.855,1.459,48.794,48.794,0,0,1,16.165,7.905,46.492,46.492,0,0,1,9,8.809,48.891,48.891,0,0,1,10.318,27.393,32.729,32.729,0,0,1,.205,4.125,63.109,63.109,0,0,1-1.1,9.262,51.074,51.074,0,0,1-4.743,12.8,44.822,44.822,0,0,1-10.969,13.727,16.87,16.87,0,0,1-3.515,2.725c-.835.384-.995,1.55-.857,2.485.358,2.424.734,4.85,1.252,7.243a26.869,26.869,0,0,1,.367,3.258,63.652,63.652,0,0,1,.365,11.089A82.436,82.436,0,0,1,284.6,258a71.943,71.943,0,0,1-12.312,23.065,87.992,87.992,0,0,1-21.562,19.194,124.472,124.472,0,0,1-23.157,11.578c-4.431,1.678-8.958,3.047-13.512,4.356a133.352,133.352,0,0,1-16.74,3.59c-4.515.69-9.025,1.359-13.588,1.7-3.213.237-6.433.352-9.64.587-3.268.238-6.538.151-9.782.127-4.447-.033-8.917-.245-13.366-.685-2.687-.266-5.37-.534-8.048-.877-4.373-.56-8.733-1.2-13.048-2.107-2.742-.576-5.522-1.044-8.2-1.854-4.1-1.24-8.3-2.211-12.213-3.954-1.114-.5-2.614-.521-3.34-1.81-1.679.466-2.963-.635-4.333-1.2a98.68,98.68,0,0,1-14.493-7.338,94.638,94.638,0,0,1-10.914-7.382,40.741,40.741,0,0,0-3.012-2.83,19.272,19.272,0,0,1-4.012-3.487c-2.146-2.436-4.495-4.674-6.6-7.174a72.948,72.948,0,0,1-8.013-11.923,63.01,63.01,0,0,1-6.5-17.513,66.481,66.481,0,0,1-1.53-11.381c-.093-2.773-.136-5.566-.108-8.318a51.674,51.674,0,0,1,1.43-11.643,4.659,4.659,0,0,1,.39-1.721c.291-.439-.107-.674-.5-.924-1.669-1.05-3.337-2.109-4.936-3.261a41.371,41.371,0,0,1-7.7-7.452,47.993,47.993,0,0,1-4.418-6.079,55.04,55.04,0,0,1-5.4-12.507c-1.8-6.152-1.836-12.4-1.524-18.673.227-4.557,1.768-8.843,3.41-13.094A54.561,54.561,0,0,1,34.4,144.8c1.211-1.674,2.964-2.944,4.38-4.483,2.943-3.2,6.6-5.382,10.3-7.559a43.461,43.461,0,0,1,13.185-4.883,48.467,48.467,0,0,1,10.223-1.067M94.122,257.392a28.484,28.484,0,0,0,.565,6.7,19.039,19.039,0,0,0,4.275,9.2c4.922,5.445,11.268,8.031,18.583,8.226,3.085.082,6.171.165,9.258.009a95.568,95.568,0,0,0,9.557-1.294c2.654-.4,5.192-1.325,7.79-1.931a64.9,64.9,0,0,0,8.507-2.472,68.429,68.429,0,0,0,14.4-7.045,1.106,1.106,0,0,1,1.386.02c1.666,1.05,3.336,2.1,5.075,3.026a86.187,86.187,0,0,0,16.46,6.313,110.646,110.646,0,0,0,15.382,3.069,67.994,67.994,0,0,0,9.452.381,31.621,31.621,0,0,0,18.175-5.107,17.15,17.15,0,0,0,6.815-9.137,30.609,30.609,0,0,0,.735-16.645c-.32-1.367-.233-3.053-.818-4.064-1.068-1.844-1.72-3.861-2.8-5.669a22.174,22.174,0,0,0-1.821-3.308c-1.537-1.714-2.892-3.589-4.517-5.222-1.565-1.572-2.925-3.5-4.77-4.611-4.067-2.458-8.056-5.127-12.591-6.73-.407-.144-.939-.362-.858-.789.216-1.13-.675-1.649-1.109-2.434-2.205-3.992-4.391-7.968-7.6-11.312-1.679-1.752-3.526-3.334-5.112-5.2a13.367,13.367,0,0,0-3.437-2.281c-1.121-.656-1.844-1.79-2.992-2.344-2.338-1.129-4.77-2.07-7.061-3.283a29.476,29.476,0,0,0-5.219-1.921,30.319,30.319,0,0,0-6.08-1.183c-1.243-.114-2.525-.816-3.561-.683-1.944.249-3.791.562-5.682-.121-.259-.093-.453.091-.593.267-.406.515-.965.452-1.524.472a31.784,31.784,0,0,0-8.625,1.532,50.289,50.289,0,0,0-8.6,3.732,51.385,51.385,0,0,0-15.56,12.735,40.332,40.332,0,0,0-7.082,11.571,3.042,3.042,0,0,1-1.8,1.875c-2.805,1.339-5.769,2.344-8.276,4.305a60.827,60.827,0,0,0-8.318,7.1,38.7,38.7,0,0,0-7.369,11.63,31.25,31.25,0,0,0-2.649,12.622m132.754-73.627a11.534,11.534,0,0,0,.494,6.162c.988,2.3,1.678,4.769,3.259,6.9a34.98,34.98,0,0,0,6.274,6.692,25.6,25.6,0,0,0,7.779,3.93c2.4.826,5.039.7,7.6.71,2.119.007,4.26.127,6.256-.677,3.572-1.439,7.207-2.811,10.028-5.6a23.2,23.2,0,0,0,4.272-4.8c2.3-4.024,4.069-8.2,4.19-12.905a66.534,66.534,0,0,0-.039-7.522c-.1-1.132.185-2.235.015-3.409-.129-.89-.686-1.474-.808-2.294a32.552,32.552,0,0,0-1.585-6.1,34.179,34.179,0,0,0-4.286-8.492,14.59,14.59,0,0,0-5.676-4.873,17.71,17.71,0,0,0-12.855-.857,26.81,26.81,0,0,0-8.331,4.5c-.868.675-1.945.933-2.725,1.826-2.549,2.918-5.585,5.373-7.934,8.507a17.9,17.9,0,0,0-2.1,3.215c-1.138,2.637-2.632,5.153-3.345,7.97-.3,1.191-.932,2.555-.8,3.533.162,1.165.028,2.342.309,3.583M132.7,170.431c2.2.561,4.721-.18,6.961-1a26.771,26.771,0,0,0,10.748-7.027c3.257-3.564,4.884-7.872,6.5-12.228.307-.828-.048-1.881.026-2.82a19.871,19.871,0,0,0,.212-4.677,26.7,26.7,0,0,0-2.122-6.936c-1.3-2.625-2.377-5.446-4.165-7.714a56.091,56.091,0,0,0-7.255-7.835c-4.661-4.023-9.709-7.271-16.039-7.975a13.74,13.74,0,0,0-7.339,1.027,19.741,19.741,0,0,0-6.857,5.7c-2.164,2.73-3.014,6.116-4.952,8.926.314,2.287-1.028,4.248-1.26,6.47a41.02,41.02,0,0,0-.544,7.627c.125,1.558-.285,3.211-.063,4.69.368,2.44.514,4.938,1.674,7.3a35.346,35.346,0,0,0,3.194,6.123c1.176,1.543,2.126,3.465,3.663,4.481,2.837,1.875,5.53,4.143,9.05,4.84,1.133.224,2.2,1.217,3.279,1.184,1.641-.049,3.291.01,5.291-.15m68.608.063a28.65,28.65,0,0,0,5.4-.493,24.982,24.982,0,0,0,19.736-22.882c.193-2.51.014-5.012.2-7.5a22.1,22.1,0,0,0-.97-7.533c-.236-.852-.013-1.95-.378-2.393a11.492,11.492,0,0,1-1.506-3.363c-1.762-4.365-4.026-8.4-7.87-11.258-5.895-4.385-12.254-3.3-17.889-.619a40.434,40.434,0,0,0-11.6,8.75,26.218,26.218,0,0,0-2.9,3.219c-2.236,3.309-4.108,6.865-6.11,10.331a1.22,1.22,0,0,0-.133.661,22.048,22.048,0,0,1-.454,3.008c-.057.935-.948,1.631-.686,2.539a11.144,11.144,0,0,1,.146,4.676,10.24,10.24,0,0,0,.642,4.868,21.248,21.248,0,0,0,2.9,5.9c1.285,1.691,2.163,3.8,3.716,5.152a36.611,36.611,0,0,0,8.843,5.545,26.529,26.529,0,0,0,4.983,1.417,12.367,12.367,0,0,0,3.936-.022m-94.885,12.87c0-.918.012-1.847,0-2.776a12.934,12.934,0,0,0-.24-3.485,30.37,30.37,0,0,0-3.263-6.958c-.438-.66-.18-1.536-.739-2.054-2.146-1.989-3.486-4.614-5.479-6.748a38.92,38.92,0,0,0-9.634-8.005c-2.6-1.412-5.077-3.094-8.258-3.351a19.523,19.523,0,0,0-8.48.762c-1.247.457-2.715.807-3.593,1.691a31.224,31.224,0,0,0-8.007,12.287,42.342,42.342,0,0,0-2.579,13.843c.028,1.822-.3,3.757-.162,5.472a20.3,20.3,0,0,0,1.289,6.2c.829,1.987,1.146,4.328,2.431,6a32.663,32.663,0,0,0,5.969,6.484c6.2,4.694,13.059,6.47,20.655,4.844,8.139-1.742,14.227-6.256,17.85-13.9a18.253,18.253,0,0,0,1.627-4.7c.125-.728,1.09-1.1.892-1.5-.677-1.381.045-2.756-.274-4.114" transform="translate(-14.926 -50.418)" fill="#fff"/>
        <path id="パス_235" data-name="パス 235" d="M212.735,451.944c-.168-5.27,1.253-9.963,3.053-14.549a44.607,44.607,0,0,1,8.493-13.405c2.84-3.182,6.271-5.593,9.588-8.187,2.891-2.26,6.306-3.419,9.54-4.962a3.5,3.5,0,0,0,2.073-2.16c1.79-4.995,4.865-9.26,8.163-13.337a59.223,59.223,0,0,1,17.935-14.679,57.966,57.966,0,0,1,9.911-4.3,36.622,36.622,0,0,1,9.942-1.766c.644-.024,1.288.049,1.757-.544.161-.2.384-.416.683-.308,2.18.787,4.309.427,6.55.139,1.194-.153,2.672.655,4.1.787a34.948,34.948,0,0,1,7.008,1.363,33.937,33.937,0,0,1,6.016,2.215c2.64,1.4,5.444,2.483,8.139,3.784,1.323.638,2.156,1.946,3.449,2.7,1.373.8,3.026,1.526,3.961,2.628,1.828,2.156,3.956,3.979,5.892,6,3.695,3.855,6.215,8.437,8.756,13.039.5.905,1.527,1.5,1.278,2.806-.094.492.52.743.989.91,5.228,1.848,9.825,4.923,14.513,7.757,2.126,1.285,3.694,3.5,5.5,5.315,1.873,1.882,3.435,4.043,5.206,6.019.881.983,1.346,2.551,2.1,3.812,1.243,2.084,1.995,4.408,3.225,6.534.674,1.165.574,3.108.943,4.684a35.282,35.282,0,0,1-.847,19.185,19.766,19.766,0,0,1-7.855,10.531c-6.288,4.237-13.405,5.9-20.95,5.886a78.3,78.3,0,0,1-10.9-.439,127.554,127.554,0,0,1-17.731-3.537,99.343,99.343,0,0,1-18.973-7.276c-2-1.062-3.929-2.277-5.849-3.488a1.275,1.275,0,0,0-1.6-.024,78.879,78.879,0,0,1-16.6,8.12,74.738,74.738,0,0,1-9.806,2.849c-2.994.7-5.919,1.76-8.979,2.226a110.2,110.2,0,0,1-11.016,1.491c-3.559.179-7.116.084-10.672-.011-8.431-.224-15.747-3.2-21.42-9.481a21.942,21.942,0,0,1-4.928-10.6,32.833,32.833,0,0,1-.652-7.725" transform="translate(-145.535 -242.163)" fill="#fde9ea" stroke="#f69c9e" stroke-linejoin="round" stroke-width="10"/>
        <path id="パス_236" data-name="パス 236" d="M568.914,305.873c-.321-1.42-.168-2.767-.353-4.1-.156-1.119.565-2.68.911-4.043.816-3.223,2.525-6.1,3.827-9.12a20.5,20.5,0,0,1,2.4-3.678c2.688-3.587,6.162-6.4,9.078-9.735.893-1.022,2.125-1.316,3.118-2.089a30.679,30.679,0,0,1,9.533-5.147,20.267,20.267,0,0,1,14.709.981,16.7,16.7,0,0,1,6.5,5.576,39.081,39.081,0,0,1,4.9,9.717,37.21,37.21,0,0,1,1.814,6.979c.14.938.777,1.607.925,2.625.2,1.344-.131,2.606-.017,3.9a76.149,76.149,0,0,1,.045,8.607c-.138,5.388-2.167,10.162-4.794,14.767-1.257,2.2-3.144,3.772-4.888,5.494-3.228,3.188-7.387,4.757-11.474,6.4-2.284.92-4.734.783-7.158.774-2.934-.01-5.955.132-8.7-.812a29.3,29.3,0,0,1-8.9-4.5,40,40,0,0,1-7.179-7.657c-1.81-2.439-2.6-5.269-3.729-7.9a13.192,13.192,0,0,1-.566-7.051" transform="translate(-358.916 -174.046)" fill="#f69c9e"/>
        <path id="パス_237" data-name="パス 237" d="M275.408,231.23c-2.247.18-4.1.113-5.942.169-1.21.037-2.409-1.078-3.681-1.33-3.953-.782-6.977-3.329-10.163-5.435-1.726-1.141-2.793-3.3-4.113-5.032-1.59-2.086-2.443-4.552-3.586-6.876-1.3-2.647-1.467-5.452-1.88-8.192-.25-1.66.211-3.516.071-5.266a46.089,46.089,0,0,1,.61-8.564c.262-2.5,1.768-4.7,1.415-7.265,2.177-3.154,3.131-6.957,5.561-10.022a22.159,22.159,0,0,1,7.7-6.406,15.425,15.425,0,0,1,8.241-1.154c7.108.79,12.775,4.438,18.01,8.955a62.956,62.956,0,0,1,8.146,8.8c2.009,2.547,3.212,5.715,4.678,8.663a29.976,29.976,0,0,1,2.383,7.788,22.3,22.3,0,0,1-.238,5.251c-.084,1.055.315,2.237-.029,3.167-1.812,4.891-3.639,9.729-7.3,13.731a30.069,30.069,0,0,1-12.069,7.891c-2.517.926-5.346,1.758-7.817,1.127" transform="translate(-157.651 -111.241)" fill="#f69c9e"/>
        <path id="パス_238" data-name="パス 238" d="M461.293,231.281a13.87,13.87,0,0,1-4.418.024,29.75,29.75,0,0,1-5.594-1.591,41.078,41.078,0,0,1-9.928-6.225c-1.743-1.521-2.73-3.886-4.172-5.784a23.85,23.85,0,0,1-3.256-6.626,11.5,11.5,0,0,1-.722-5.465,12.505,12.505,0,0,0-.164-5.25c-.293-1.019.707-1.8.771-2.851.068-1.12.593-2.2.51-3.377a1.371,1.371,0,0,1,.15-.743c2.247-3.892,4.349-7.883,6.859-11.6a29.414,29.414,0,0,1,3.253-3.614,45.385,45.385,0,0,1,13.023-9.824c6.327-3.012,13.466-4.227,20.085.7,4.316,3.211,6.857,7.74,8.836,12.64a12.9,12.9,0,0,0,1.69,3.776c.409.5.16,1.73.424,2.687a24.816,24.816,0,0,1,1.089,8.457c-.2,2.8,0,5.607-.219,8.425a28.047,28.047,0,0,1-22.158,25.689,32.133,32.133,0,0,1-6.058.554" transform="translate(-274.818 -111.226)" fill="#f69c9e"/>
        <path id="パス_239" data-name="パス 239" d="M168.012,305.523c.366,1.555-.462,3.129.314,4.711.226.461-.879.883-1.022,1.717a20.9,20.9,0,0,1-1.864,5.383c-4.149,8.752-11.121,13.92-20.442,15.916-8.7,1.862-16.55-.172-23.654-5.547a37.406,37.406,0,0,1-6.836-7.426c-1.472-1.915-1.834-4.6-2.784-6.872a23.25,23.25,0,0,1-1.476-7.105c-.162-1.965.218-4.18.186-6.267-.084-5.5,1.268-10.677,2.954-15.854,1.809-5.554,5.167-10.035,9.17-14.071,1.005-1.013,2.686-1.414,4.114-1.937a22.358,22.358,0,0,1,9.712-.873c3.644.294,6.483,2.221,9.458,3.838a44.573,44.573,0,0,1,11.033,9.168c2.283,2.443,3.817,5.45,6.275,7.728.64.593.345,1.6.846,2.352a34.782,34.782,0,0,1,3.737,7.968,14.813,14.813,0,0,1,.275,3.992c.017,1.064,0,2.128,0,3.18" transform="translate(-75.56 -172.178)" fill="#f69c9e"/>
      </g>
    </g>
    <g id="グループ_33" data-name="グループ 33" transform="translate(0 -20)">
      <text id="SHOWA_Animal_Clinic" data-name="SHOWA Animal Clinic" transform="translate(156 3634.581)" fill="#7f4f21" font-size="7" font-family="BIZ-UDPGothic-Bold, BIZ UDPGothic" font-weight="700" letter-spacing="0.3em"><tspan x="0" y="0">SHOWA Animal Clinic</tspan></text>
      <g id="グループ_32" data-name="グループ 32" transform="translate(157 3605.712)">
        <g id="マスクグループ_12" data-name="マスクグループ 12" transform="translate(0 0)" clip-path="url(#clip-path-2)">
          <path id="パス_50" data-name="パス 50" d="M151.222,19.3a.81.81,0,0,1,.418.363.054.054,0,0,0,.016-.01.167.167,0,0,0,.014-.019v.1c-.024-.011-.042-.006-.042.022s.017.035.042.026v1.535c-.16-.042-.128.126-.128.16,0,.247-.178.363-.356.465a3.117,3.117,0,0,1-1.2.382.414.414,0,0,0-.28.018l-.105.013a.41.41,0,0,0-.279,0l-.255-.017a.461.461,0,0,0-.278,0l-.111,0a.158.158,0,0,0-.135,0,5.772,5.772,0,0,1-2.352-.518c-.064-.031-.133-.053-.2-.079-.028-.06-.061-.109-.141-.079l-.064-.057c.171-.121.411-.086.568-.238.007-.006.032,0,.047.008a3.483,3.483,0,0,1,.423.112,4.328,4.328,0,0,0,2.017.135A7.145,7.145,0,0,0,150.676,21a.271.271,0,0,0,.177-.262c.024-.357.048-.715.076-1.072.014-.182.04-.36.292-.358" transform="translate(-31.111 -4.12)" fill="#fde9ea"/>
          <path id="パス_51" data-name="パス 51" d="M147.55,15.318c-.253,0-.278.176-.293.358-.028.357-.051.715-.076,1.072a.269.269,0,0,1-.176.262,7.145,7.145,0,0,1-1.831.623,4.332,4.332,0,0,1-2.018-.135,3.448,3.448,0,0,0-.423-.112c-.015,0-.039-.014-.046-.008-.158.153-.4.117-.568.238a3.005,3.005,0,0,1-1.72-2.425c-.028-.326.02-.647-.024-.973a.534.534,0,0,0-.341-.442,9.15,9.15,0,0,0,.182-1.339.809.809,0,0,0-.024-.4c-.1-.232-.2-.261-.37-.085a1.236,1.236,0,0,0-.375.682,6.393,6.393,0,0,1-.984,2.4c-.167.266-.437.459-.551.755a.943.943,0,0,1-.5.525.986.986,0,0,0-.239.162,6.879,6.879,0,0,1-2.2,1.14,5.236,5.236,0,0,1-1.292.2c-.149.02-.271.048-.319.205a8.718,8.718,0,0,0-.755-.637,1.1,1.1,0,0,1-.393-.642c-.008-.063-.027-.143-.1-.151-.232-.024-.272-.193-.316-.367-.032-.128-.09-.217-.23-.087a4.8,4.8,0,0,1-.039-1.168c0-.147.094-.208.227-.239a3.469,3.469,0,0,1,.706-.035,4.63,4.63,0,0,0,1.9-.366,2.682,2.682,0,0,0,1.187-.839,1.32,1.32,0,0,1,.488-.42c.055.12.175.2.186.351s.1.1.189.035c.369-.255.756-.5.617-1.04,0-.013.007-.031.011-.046,0-.079.076-.1.114-.145.1-.135.326-.227.269-.422s-.289-.079-.429-.147a.079.079,0,0,0-.024,0,1.56,1.56,0,0,0-1.383.344c-.251.269-.5.544-.724.835a2.636,2.636,0,0,1-2.523,1.136,1.494,1.494,0,0,0-1.134.331.885.885,0,0,0-.337.632c-.11.847.043,1.7-.119,2.551-.04.209-.1.282-.313.3-.165.013-.356-.021-.488.129a.875.875,0,0,1-.536-.743,19.141,19.141,0,0,1-.2-2.457c.007-2.5,0-5,0-7.507a20.291,20.291,0,0,0-.044-2.143,3.747,3.747,0,0,0-.355-1.264,3.43,3.43,0,0,1-.219-1.645.478.478,0,0,1,.389-.441,3.425,3.425,0,0,1,.938-.142c.742,0,1.484,0,2.225.017a10.782,10.782,0,0,1,3,.5,3.015,3.015,0,0,0,.944.065c.636,0,1.273-.031,1.906.024a2.776,2.776,0,0,0,1.056-.039.377.377,0,0,0,.295-.334,3.474,3.474,0,0,0,.04-.717.319.319,0,0,1,.25-.352,1.383,1.383,0,0,1,1.417.219,2.388,2.388,0,0,0,.35.213,2.96,2.96,0,0,1,.809.609,1.422,1.422,0,0,0,1.287.393,4.369,4.369,0,0,1,2.586.326,1.87,1.87,0,0,1,.691.538c-.393.14-.495.279-.482.7q.04,1.268.089,2.536a.5.5,0,0,1-.385.6l-1.363.585a.914.914,0,0,0-.588.757c-.054.376-.062.375-.45.454-.064.013-.166.039-.079.109.159.127.3.324.529.311a.811.811,0,0,0,.739-.429.314.314,0,0,1,.156-.175c-.045.421.2.606.572.731a2.037,2.037,0,0,1,1.069.75c-.19.156-.159.372-.16.575,0,.295.007.59.018.885.005.148-.046.216-.208.219-.512.009-1.023.031-1.535.047a11.46,11.46,0,0,0-2.036.186.656.656,0,0,0-.5.794c.034.137.134.275.07.417a1.506,1.506,0,0,0,.075,1c.024.112.12.169.262.16a1.767,1.767,0,0,0,.47-.16,1.953,1.953,0,0,1,.022.212.42.42,0,0,0,.355.439,3.358,3.358,0,0,0,1.824.037,5.141,5.141,0,0,1,1.5-.061c.414.021.589.348.808.618M133.3,8.938a.778.778,0,0,1,.079-.323.21.21,0,0,0-.024-.223.628.628,0,0,0-1.027.05.415.415,0,0,1-.348.218,4.193,4.193,0,0,1-.625-.072c-.16,0-.39-.067-.434.179a6.9,6.9,0,0,0-.09,1.574.885.885,0,0,0,.266.626c.208.193.372.15.522-.078.087-.132.049-.279.124-.4a.824.824,0,0,1,0,.448c-.058.218.25.6.413.518a2.247,2.247,0,0,0,1.079-.9,7.974,7.974,0,0,0,.511-1.131,1.925,1.925,0,0,0,.091-.7c0-.048,0-.105-.053-.123s-.078.039-.107.076c-.1.127-.186.267-.377.264M143.5,5.412c.035,0,.124.009.213.013.19.009.342-.042.376-.252s-.087-.328-.28-.384a1.927,1.927,0,0,0-.654-.063c-.617.037-1.235.015-1.852.029-.812.018-1.627,0-2.441.007a11.378,11.378,0,0,0-1.536.028.449.449,0,0,0-.388.511c.036.212.252.114.382.165a.689.689,0,0,0,.242.008c.529-.006,1.056-.015,1.585-.014,1.432,0,2.866.056,4.352-.048m-12.691.5a1.915,1.915,0,0,0,.072.593c.037.094.072.181.193.186a.239.239,0,0,0,.246-.16,1.178,1.178,0,0,0,.146-.6,2.193,2.193,0,0,1,.077-.712A.5.5,0,0,1,132,4.767c.232-.03.464-.079.7-.116.161-.026.33-.03.318-.27s-.084-.354-.335-.385a4.841,4.841,0,0,0-.755-.04A.992.992,0,0,0,131,4.6a4.379,4.379,0,0,0-.188,1.318m5.4,1.867c-.073,0-.146,0-.219,0s-.145.016-.217.028c-.27.046-.279.082-.168.323.125.271.382.432.544.669a1.071,1.071,0,0,0,1.051.46.176.176,0,0,0,.18-.131.679.679,0,0,0,.03-.447c-.238-.566-.521-.971-1.2-.9m-2.055-1.716a.809.809,0,0,0,.02.164c.052.156.2.168.333.2a.115.115,0,0,0,.147-.09c.042-.185.086-.37.115-.557a.23.23,0,0,0-.172-.256.2.2,0,0,0-.25.092.669.669,0,0,0-.193.451" transform="translate(-27.44 -0.133)" fill="#f69c9e"/>
          <path id="パス_52" data-name="パス 52" d="M119.281,18.017a2.134,2.134,0,0,1-.879-1.41,1.651,1.651,0,0,0-.446-1.075c.173-.185.026-.328-.084-.45a1.556,1.556,0,0,0-.948-.526c-.175-.026-.336-.116-.475.061a1.492,1.492,0,0,1-.633-.531.781.781,0,0,0-.691-.407c0-.079,0-.159,0-.238a.523.523,0,0,0-.8-.469,3.83,3.83,0,0,0-.889.728,2.6,2.6,0,0,1-.983.754,3.591,3.591,0,0,1-1.371.286c-.489.012-.667.115-.717.617-.058.59-.03,1.18-.034,1.77s-.017.493-.492.5c-.107,0-.244-.035-.3.1a.331.331,0,0,1-.211.183c-.088.035-.157.086-.15.193-.173-.177-.353-.348-.518-.533a1.613,1.613,0,0,1-.276-1.041c-.03-.379-.02-.762-.016-1.143a2.32,2.32,0,0,0-.109-.584c-.032-.132-.11-.136-.216-.1a7.032,7.032,0,0,1,.157-1.27,8.372,8.372,0,0,0,.353-2.55,6.308,6.308,0,0,0-.068-1.88c-.02-.063.023-.122.042-.183a4.088,4.088,0,0,0,.308-1.047c.012-.286-.1-.4-.4-.4a.369.369,0,0,0-.382.393c-.02.672.257,1.31.214,1.989a8.729,8.729,0,0,1-.075,1.614c-.068.271-.115.545-.182.816a4.943,4.943,0,0,1-.437,1.216,2.18,2.18,0,0,0-.378.873.316.316,0,0,1-.091.165,10.911,10.911,0,0,1-1.694,1.741,3.023,3.023,0,0,1-1.233.7c-.252.041-.315.222-.32.44a4.119,4.119,0,0,1-.909-1.366,4.351,4.351,0,0,1-.238-1.218,1.038,1.038,0,0,1,.673-.975,11.043,11.043,0,0,0,1.361-.883,3.223,3.223,0,0,0,.641-.768.207.207,0,0,0-.083-.34.928.928,0,0,1-.163-.143c.049-.114.162-.031.235-.075s.219-.013.242-.131a2.424,2.424,0,0,1,.392-.683c.044-.079.145-.147.061-.255a.277.277,0,0,0-.3-.118,3.141,3.141,0,0,0-1.06.338c-.219.158-.5.17-.714.378-.116.114-.385.081-.572.164a4.019,4.019,0,0,1-.833-.9,1.162,1.162,0,0,1,.357-1.467c.646-.4,1.3-.778,1.921-1.223a.645.645,0,0,1,.307-.067c.146-.023.208-.061.138-.237a.689.689,0,0,0-.6-.481,1.287,1.287,0,0,1-.686-.343,6.883,6.883,0,0,1-1.278-1.566,1.224,1.224,0,0,1,.019-1.3c.356-.651.522-.692,1.191-.359a7.38,7.38,0,0,0,1.472.637,1.318,1.318,0,0,0,.262.051c.366.014.438-.068.437-.428a4.951,4.951,0,0,1,.155-1.757.421.421,0,0,1,.465-.319c1.783.009,3.567,0,5.35,0,.477,0,.485-.006.485-.465a6.584,6.584,0,0,1,.1-.9.118.118,0,0,1,.1-.116,1.851,1.851,0,0,1,1.518.523,1.64,1.64,0,0,0-.032.854.084.084,0,0,0,.083.075,1.209,1.209,0,0,0,.75-.059,14.56,14.56,0,0,0,2.795.085,17.579,17.579,0,0,1,2.491.215,1.57,1.57,0,0,1,.992.515c.072.082.223.086.228.227-.2-.068-.252.047-.264.2-.021.278-.046.558-.047.837a.3.3,0,0,1-.269.334,3.071,3.071,0,0,1-.775.084c-.632-.016-1.263,0-1.895-.029-1.107-.05-2.216-.053-3.324-.059-2.013-.009-4.027,0-6.04-.008a2.56,2.56,0,0,0-.651.09.513.513,0,0,0-.345.621c.04.2.172.246.5.185a.484.484,0,0,0,.161-.051.853.853,0,0,1,.47-.1c1.63-.006,3.26-.021,4.89-.022,2.339,0,4.678-.039,7.016.027.094,0,.2-.023.273.067a1.364,1.364,0,0,0,.1.845c-.021.142-.044.283-.062.426a8.612,8.612,0,0,1-.153,1.222.5.5,0,0,1-.347.389,1.809,1.809,0,0,1-.549.029c-.74.036-1.481,0-2.222.006a11.646,11.646,0,0,0-2.38.134.283.283,0,0,0-.172.488.532.532,0,0,0,.312.164,4.535,4.535,0,0,0,1.063.02,18.088,18.088,0,0,0,1.9.035c.495-.013.982.084,1.475.066-.089.284.154.479.2.726a1.715,1.715,0,0,0-.149.451,3.008,3.008,0,0,0,.006.761c0,1.643-.01,3.287.021,4.93a4.551,4.551,0,0,0,.141,1.653,1.944,1.944,0,0,1,.022.464c.006.086-.024.168-.128.17-.277,0-.548.046-.821.074-.31.031-.321.006-.275.322m-7.3-10.468c0,.023,0,.046,0,.068-.732,0-1.463,0-2.195,0-.131,0-.295-.016-.335.165a.694.694,0,0,0,.281.477c.619.293,1.281.061,1.922.149a8.7,8.7,0,0,0,1.311,0c.433-.008.514-.094.475-.531-.012-.128-.065-.182-.2-.223a5.473,5.473,0,0,0-1.259-.1m-.21,3.927v-.02c.212,0,.423.008.634,0,.19-.009.334-.092.338-.3a.327.327,0,0,0-.306-.384,4.364,4.364,0,0,0-1.647.077.546.546,0,0,0-.388.4,1.372,1.372,0,0,0-.054.616c.017.1-.007.241.122.262a.4.4,0,0,0,.361-.1.412.412,0,0,0,.113-.154c.1-.387.387-.437.729-.389a.807.807,0,0,0,.1,0m5.629-.009c.2,0,.391.013.584,0s.284-.125.234-.33a.446.446,0,0,0-.43-.386,5.014,5.014,0,0,0-1.31.06c-.186.035-.311.087-.306.289s.139.264.309.308a2.848,2.848,0,0,0,.92.064" transform="translate(-21.865 0)" fill="#f69c9e"/>
          <path id="パス_53" data-name="パス 53" d="M58.853,18a2.151,2.151,0,0,1-.923-.775.863.863,0,0,0-.563-.381c-.092-.026-.181-.064-.271-.1.14-.038.138-.188.223-.269.12-.116.049-.164-.061-.229a1.046,1.046,0,0,0-.751-.132,9.852,9.852,0,0,1-1.775.1c-.609,0-1.219-.024-1.827.041-.12.013-.253-.006-.291.153-.135-.112-.261-.234-.4-.334a1.306,1.306,0,0,1-.508-1.341.554.554,0,0,1,.539-.411c.746-.031.623-.328.374-.76a1.764,1.764,0,0,1-.216-1.395,3.388,3.388,0,0,0,.083-.857q0-2.267,0-4.533a3.344,3.344,0,0,0-.16-.986.524.524,0,0,0-.147-.217,3.065,3.065,0,0,1-.606-.89,1.02,1.02,0,0,1,.675-1.373.508.508,0,0,0,.372-.662,3.966,3.966,0,0,1-.131-1.535c-.006-.109.067-.174.173-.2a1.439,1.439,0,0,1,.411-.049c1.052,0,2.1,0,3.156,0a17.515,17.515,0,0,0,2.7-.26,2.531,2.531,0,0,1,.923.009.6.6,0,0,1,.379.2,1.834,1.834,0,0,0,.611.452.318.318,0,0,1,.064.069c-.178.039-.219.258-.4.293-.093.018-.118.1-.143.175a.729.729,0,0,1-.754.584c-.308.022-.617.027-.923.06-.372.041-.775.022-.994.424-.035.065-.123.1-.2.157a2.281,2.281,0,0,0,.887.182,11.463,11.463,0,0,0,1.843-.121.587.587,0,0,1,.562.263.665.665,0,0,0,.252.183c.381.213.767.418,1.148.632a1.148,1.148,0,0,1,.467.444,1.244,1.244,0,0,0,.548.528c.127.063.209.051.273-.085a3.512,3.512,0,0,0,.348-1.41,4.928,4.928,0,0,1,.138-1.326,2.577,2.577,0,0,0,.075-.784,1.4,1.4,0,0,1,0-.216c.067-.526.211-.651.761-.646a1.16,1.16,0,0,1,1.057.481,1.712,1.712,0,0,0-.058.634c-.024.647.033,1.3-.049,1.941a2.212,2.212,0,0,0-.034.573c.05.381.064.4.448.4.09,0,.179,0,.269,0,.208.315.54.26.849.269a3.426,3.426,0,0,1,1.15.146,1.438,1.438,0,0,1,.614.411,7.017,7.017,0,0,0-.013,1.061,9.622,9.622,0,0,1-.061,2.029c-.083.721-.248,1.426-.378,2.138-.076.409-.223.8-.3,1.2a4.876,4.876,0,0,1-.367,1.188,7.679,7.679,0,0,0-.487,1.249,2.649,2.649,0,0,1-.38.9,2.388,2.388,0,0,0-.443.888c-.135.6-.672.754-1.083,1.047-.093.067-.187.111-.229.22A3.854,3.854,0,0,1,64.139,15.8c-.079-.27-.291-.5-.238-.812a1.136,1.136,0,0,1,.068-.3,7.994,7.994,0,0,1,.969-1.781,12.187,12.187,0,0,0,1.344-2.379c.224-.453.359-.934.557-1.4.266-.615.189-.728-.477-.721-.072,0-.146.006-.219.009.108-.227.3-.231.513-.193.306.054.483-.136.387-.422-.07-.206-.271-.2-.432-.188a4.288,4.288,0,0,1-.828-.032.587.587,0,0,0-.719.453,6,6,0,0,1-.527,1.484,2.063,2.063,0,0,0-.271.69,2.691,2.691,0,0,1-.616,1.506,1.13,1.13,0,0,0-.151.351c-.05.127-.087.258-.142.382-.264.6-.673,1.122-.97,1.705a10.048,10.048,0,0,1-.658,1.013A7.277,7.277,0,0,1,60.44,16.6c-.146.127-.223.313-.387.43a13.844,13.844,0,0,1-1.2.97M62.3,8.446c-.031-.14.024-.207.173-.221.223-.022.236-.175.174-.334a.369.369,0,0,0-.373-.257c-.2,0-.392,0-.587,0-.561-.006-.634.055-.644.6-.014.816-.053,1.629-.136,2.44a1.666,1.666,0,0,1-.392.988.492.492,0,0,0-.11.286c-.034.263.026.363.234.385.252.027.289-.16.293-.325a1.674,1.674,0,0,1,.288-.849,3.19,3.19,0,0,0,.365-.872c.085-.323.071-.647.138-.965.076.172.021.363.083.537s.183.219.3.081a1.657,1.657,0,0,0,.567-1.087c0-.365-.009-.4-.374-.406" transform="translate(-10.987 -0.121)" fill="#f69c9e"/>
          <path id="パス_54" data-name="パス 54" d="M77.459,17.908a1.873,1.873,0,0,1-.823-1.479c-.03-.389,0-.783-.009-1.174a.4.4,0,0,1,.234-.386,2.474,2.474,0,0,1,.614-.23,3.877,3.877,0,0,0,2.258-1.576.709.709,0,0,0,.08-.728,1.413,1.413,0,0,0,.071-.471c.006-.2-.076-.292-.289-.29a5.676,5.676,0,0,0-1.24.06,2.271,2.271,0,0,1-.839-.032,2.37,2.37,0,0,1-.688-1.31,3.257,3.257,0,0,1,0-.574.556.556,0,0,1,.548-.535c.113-.007.227-.021.339-.035.308-.039.352-.118.23-.41-.012-.029-.018-.061-.028-.09.024,0,.047.008.071.009.405.028.818.1,1.107-.3a6.023,6.023,0,0,0,.935-1.489.376.376,0,0,0-.051-.382.4.4,0,0,0-.385-.159.677.677,0,0,0-.562.37,2.936,2.936,0,0,1-1.448,1.269c-.074-.048-.12-.124-.208-.161a1.185,1.185,0,0,1-.746-1.137c0-.016,0-.031,0-.048a2.2,2.2,0,0,1,.461-1.656,8.634,8.634,0,0,0,.97-1.9,3.927,3.927,0,0,0,.182-.89c.076-.421.257-.574.7-.571a1.743,1.743,0,0,1,.869.2c.238.134.418,0,.4-.271-.009-.119-.038-.238-.041-.356a.7.7,0,0,1,.956-.713,1.815,1.815,0,0,1,1.071.611,2.171,2.171,0,0,0,.354.322.66.66,0,0,0-.562.717,7.435,7.435,0,0,1,.008.837.492.492,0,0,0,.345.516c.208.1.33.039.356-.189.015-.132-.024-.271-.006-.4.055-.417-.009-.834.015-1.251a.806.806,0,0,1,.153.731c-.036.416.031.828.015,1.241A.184.184,0,0,0,83,3.774a4.5,4.5,0,0,0,.846.3,1.061,1.061,0,0,0,1-.452A15.04,15.04,0,0,0,86.3,1.53l.01-.021c.37-.708.8-.835,1.5-.417.365.218.709.47,1.055.717a.411.411,0,0,1,.105.552c-.006-.072-.01-.143-.02-.214a.488.488,0,0,0-.4-.428c-.233-.06-.316.117-.406.263a1.764,1.764,0,0,1-.35.363.652.652,0,0,0-.059.769.627.627,0,0,0,.739.02c.068-.054.138-.107.208-.16,0,.17-.1.33,0,.514a.744.744,0,0,0,.525.393c.875.175,1.694.519,2.545.766a9.153,9.153,0,0,1,1.756.581c.495.26,1.008.486,1.485.78a.952.952,0,0,1,.443.395,12.015,12.015,0,0,1-.1,2.114,2.549,2.549,0,0,1-.292.785,4.433,4.433,0,0,0-.429,1.028,2.04,2.04,0,0,1-.3.65,2.494,2.494,0,0,0-.4.783,2.84,2.84,0,0,1-.617,1.294.79.79,0,0,0-.215.42.585.585,0,0,1-.251.373,1.443,1.443,0,0,0-.365.443c-.124.205-.268.4-.389.607-.151.258-.439.437-.54.7-.205.538-.721.813-1.009,1.273a.311.311,0,0,1-.139.094c-.175.076-.377.108-.454.323-.02.056-.1.06-.153.043-.2-.057-.269.044-.289.214a.865.865,0,0,1-.294-.311c-.239-.372-.558-.682-.824-1.034-.151-.2-.391-.084-.595-.087a2.542,2.542,0,0,0,.493-1.193,1.4,1.4,0,0,1,.645-.976,5.944,5.944,0,0,0,1.16-1.187,1.584,1.584,0,0,1,.513-.466c.127.019.286.094.377.006.2-.192.44-.338.54-.628a2.185,2.185,0,0,1,.473-.8,3.87,3.87,0,0,0,1.04-2.106c.032-.194-.017-.289-.208-.321.247-.555.241-.631-.4-.685-.516-.044-.669.089-.872.611a2.377,2.377,0,0,1-.348.755,1.792,1.792,0,0,0-.369.614,2.674,2.674,0,0,1-.7,1.213.291.291,0,0,0-.07.123,7.172,7.172,0,0,1-1.174,1.779c-.28.384-.564.776-.875,1.142a4.415,4.415,0,0,0-.39.549,5.018,5.018,0,0,1-1.589,1.674c-.175.112-.389.238-.407.5-.292-.369-.657-.671-.966-1.023a1.162,1.162,0,0,0-.822-.433.816.816,0,0,0,.182-.057c.114-.068.291-.09.314-.235a1.382,1.382,0,0,0-.017-.616.225.225,0,0,0-.186-.168c-.41-.079-.6.223-.845.45-.171.159-.076.3-.028.449a.557.557,0,0,1-.353-.257c-.112-.2-.22-.21-.391-.057-.064.057-.09.154-.193.167a3.205,3.205,0,0,0-.392-1.364c-.03.032-.055.046-.06.066a13.865,13.865,0,0,0-.53,1.535.5.5,0,0,1-.08.223A5.207,5.207,0,0,1,80.1,16.638a12.836,12.836,0,0,1-2.638,1.27M89.989,7.09A.827.827,0,0,1,89.72,7c-.5-.225-.909-.282-1.153.367a23.978,23.978,0,0,1-1.148,2.158,1.654,1.654,0,0,1-.429.517.424.424,0,0,0-.177.277.518.518,0,0,1-.14.3,12.292,12.292,0,0,1-.967,1.2.434.434,0,0,0-.163.384.245.245,0,0,0,.109.2c.092.05.147-.026.214-.069a3.761,3.761,0,0,0,.864-.866c.6-.734,1.251-1.425,1.793-2.2a4.673,4.673,0,0,0,.672-1.189.471.471,0,0,1,.168-.26,1.82,1.82,0,0,0,.626-.732M83.974,9.5c.012.13-.013.232.093.274.078.031.118-.033.146-.093a2.789,2.789,0,0,1,.561-.747c.7-.732,1.188-1.614,1.853-2.366a1.115,1.115,0,0,0,.147-.219c.083-.158.123-.335-.027-.463a.385.385,0,0,0-.481,0,3.739,3.739,0,0,0-1.02,1.074,2.97,2.97,0,0,1-.595.807,1.561,1.561,0,0,0-.516.741,6.491,6.491,0,0,1-.16.993M79.6,8.712a.878.878,0,0,0,.6-.276.45.45,0,0,0,.119-.485c-.056-.186-.236-.3-.393-.408-.012-.009-.06.016-.082.035a1.019,1.019,0,0,0-.367.492.311.311,0,0,1-.119.2c-.1.069-.216.147-.164.288.058.157.215.144.409.154m3.135-.619c0-.244-.124-.485-.245-.482-.273,0-.47.126-.469.289a.507.507,0,0,0,.411.444c.179,0,.29-.091.3-.252" transform="translate(-16.349 -0.089)" fill="#f69c9e"/>
          <path id="パス_55" data-name="パス 55" d="M16.1,10.089a.822.822,0,0,0,.276.822c.064.058.12.127.179.19-.075.635-.086,1.272-.105,1.911-.04,1.259.146,2.515.058,3.775-.027.383-.1.477-.488.5a1.644,1.644,0,0,1-.292-.009,9.279,9.279,0,0,0-1.095-.079q-3.1,0-6.205,0c-.164,0-.322.039-.483.049a.267.267,0,0,0-.249.164.55.55,0,0,1-.3.267,2.031,2.031,0,0,1-.661-1.619,11.771,11.771,0,0,0,0-1.554c0-.147-.008-.307-.167-.4a.791.791,0,0,0,.051-.256c.042-.208.013-.44.174-.61a.58.58,0,0,0,.141-.37C7,12.283,6.868,11.695,6.9,11.1c.01-.2.026-.4.035-.6,0-.055,0-.12-.061-.145s-.109.018-.146.063c-.061.074-.167.138-.153.236a5.024,5.024,0,0,0,.006.785,3.446,3.446,0,0,1,.066,1.142c-.006.151-.04.3-.039.453,0,.334-.025.363-.36.319a1.611,1.611,0,0,0-.2-.009H.967a.481.481,0,0,0-.306.058c-.4-.179-.456-.559-.55-.909A4.2,4.2,0,0,1,0,11.41Q.008,7.181,0,2.953c0-.337,0-.342.344-.393a6.722,6.722,0,0,1,1-.053c.75,0,1.5-.017,2.247.017.561.025,1.122.02,1.681.054a1.369,1.369,0,0,1,1.09.444,1.918,1.918,0,0,0,.293.249c-.209-.009-.385.039-.386.286,0,1.162,0,2.324,0,3.485,0,.12.048.175.173.172.2-.006.406,0,.609-.006a1.084,1.084,0,0,0,.61-.212c.54-.383,1.063-.787,1.579-1.2a.337.337,0,0,0-.024-.607c-.109-.075-.251-.068-.341-.17.227-.023.448.042.678.031.5-.024.581-.106.617-.592.014-.2-.059-.241-.233-.262a5.132,5.132,0,0,0-1.5.021c-.094.017-.175.034-.215.127a1.908,1.908,0,0,1-.481-2.409A.562.562,0,0,1,8.2,1.593a4.545,4.545,0,0,1,1.412.02c.984.153,1.981.133,2.97.23.64.063,1.274.175,1.915.222a5.7,5.7,0,0,1,2.191.616.969.969,0,0,1,.555.51,4.219,4.219,0,0,1-.007,1.19,2.873,2.873,0,0,1-.308,1.273,5.092,5.092,0,0,0-.422.99,3.226,3.226,0,0,1-.277.935A14.466,14.466,0,0,0,15.531,9a1.089,1.089,0,0,1-.307.457.875.875,0,0,0-.309.677c-.024.271.035.322.316.31a1.653,1.653,0,0,0,.864-.359M3.405,5.781c-.016.086-.1.069-.152.092-.178.074-.356.39-.3.524a.8.8,0,0,0,.857.184c.359-.3.353-.521-.021-.8a.156.156,0,0,1-.024-.04A1.209,1.209,0,0,0,3.9,5.7c.142-.053.3-.082.324-.277s-.1-.286-.241-.378a1.02,1.02,0,0,0-.706-.122,1.736,1.736,0,0,0-1.354.643.38.38,0,0,0,.006.447c.076.128.164.275.33.233a1.088,1.088,0,0,0,.672-.29.42.42,0,0,1,.469-.176m5.9,9.062a.5.5,0,0,0,.308.046h3.96c.228,0,.458,0,.684-.014a.519.519,0,0,0,.555-.525c.017-.118.016-.239.021-.359s-.054-.19-.188-.2a1.558,1.558,0,0,1-.508-.039c.051-.067.138-.041.2-.072a.507.507,0,0,0,.3-.407c.013-.173-.159-.2-.286-.245a1.437,1.437,0,0,0-.378-.087c-1.114-.053-2.228.024-3.342.018a7.275,7.275,0,0,1-1.089.062A2.229,2.229,0,0,0,9,13.049a.364.364,0,0,0-.373.39c0,.359-.02.719-.006,1.078.012.291.167.4.466.367.072-.008.142-.028.213-.041m.614-4.751a.383.383,0,0,0,.412.344q1.4.031,2.807.05c.23,0,.33-.131.26-.343a3.186,3.186,0,0,0-.252-.569A4.169,4.169,0,0,1,12.7,8.547a1.156,1.156,0,0,1,.511-1.288c.506-.256.86-.7,1.372-.949a.4.4,0,0,0,.153-.6c.171-.171.1-.38.056-.561-.039-.151-.209-.194-.363-.181a3.8,3.8,0,0,1-1.35-.264.63.63,0,0,0-.6.12,2.372,2.372,0,0,0-.689,1,2.8,2.8,0,0,1-.39.769,13.027,13.027,0,0,1-1.236,1.7A7.363,7.363,0,0,1,8.736,9.587a6.133,6.133,0,0,0-.715.53c-.059.046-.145.1-.115.194s.131.108.217.133a1.535,1.535,0,0,0,.653-.033,4.066,4.066,0,0,0,1.141-.319m-6.9-1.055c-.21.043-.409.082-.606.126a.638.638,0,0,0-.54.671c-.009.181.222.413.492.5a.493.493,0,0,0,.573-.149,2.19,2.19,0,0,1,.888-.632.21.21,0,0,0,.148-.2.161.161,0,0,0-.148-.164c-.27-.055-.541-.1-.805-.154m1.228,1.484c0-.048,0-.1,0-.144-.018-.4-.282-.538-.629-.336a2.591,2.591,0,0,0-.493.308c-.083.076-.239.127-.173.277a.386.386,0,0,0,.364.274,1.209,1.209,0,0,1,.337.033c.455.13.582.046.594-.411" transform="translate(0 -0.33)" fill="#f69c9e"/>
          <path id="パス_56" data-name="パス 56" d="M31.686,5.335a.441.441,0,0,0,.54.189,2.163,2.163,0,0,1,1.118.15,2.966,2.966,0,0,0,.6.1c.225.01.293-.094.255-.294-.029-.149-.06-.3-.089-.446a1.829,1.829,0,0,1,.238-1.288.538.538,0,0,1,.592-.275,20.794,20.794,0,0,0,2.73.017c1.432-.044,2.861.026,4.291.081a1.373,1.373,0,0,1,.992.526c-.018.358-.05.716-.053,1.074-.007,1.094,0,2.188,0,3.282,0,.27.03.542.017.808-.032.687-.027,1.373,0,2.058.031.9,0,1.8.076,2.7a2.67,2.67,0,0,1-.093.92c-.07.257-.128.327-.407.305a6.936,6.936,0,0,0-.972-.039,9.611,9.611,0,0,1-1.364-.045c-.77-.063-1.542-.07-2.313-.109-.134-.006-.26,0-.311.167a.111.111,0,0,1-.181.052c-.359-.253-.616.018-.877.177-.2.126-.164.256.066.356a1.837,1.837,0,0,0,.781.146,3.078,3.078,0,0,1,.919.035.491.491,0,0,1-.284.044c-.659.017-1.319.024-1.978.051a1.216,1.216,0,0,1-1.157-.568,3.161,3.161,0,0,1-.688-2.1.235.235,0,0,0-.149-.289.4.4,0,0,1-.184-.241.886.886,0,0,0,.437-.937c-.017-.157-.069-.233-.235-.234a1.226,1.226,0,0,0-.727.146.5.5,0,0,1-.485.09,14.153,14.153,0,0,0-1.4-.345c-.18-.061-.289,0-.306.212-.024.278-.061.556-.062.836,0,1.484-.055,2.969.075,4.451a.6.6,0,0,1-.287.568,1.115,1.115,0,0,1-.576.24c-.211.012-.263.119-.257.293a1.928,1.928,0,0,1-.766-1.78,9.36,9.36,0,0,0,.006-1.738,2.5,2.5,0,0,1,.024-.831c.065-.268-.079-.418-.367-.411A.8.8,0,0,1,29,13.075a3.475,3.475,0,0,0,.4-.788c.029-.1.061-.212-.053-.279a.29.29,0,0,0-.323,0c-.1.067-.194.142-.292.215-.33.245-.58.586-.908.82s-.688.433-1.012.677c-.256.194-.515.4-.481.773a3.22,3.22,0,0,1-1.145-1.57,3.077,3.077,0,0,1-.314-1.268.762.762,0,0,1,.5-.757A15.276,15.276,0,0,0,27.874,9.5a.433.433,0,0,0-.094-.739,4.346,4.346,0,0,1,.776-.067.272.272,0,0,0,.293-.165.45.45,0,0,0-.4-.636c-.586-.023-1.169.041-1.754.036-.153,0-.2.071-.211.2a2.037,2.037,0,0,1-.76-2.108c.075-.318.2-.421.537-.437.2-.009.406,0,.609-.013a.824.824,0,0,0,.526-.147.989.989,0,0,0,1.135-.305,6.18,6.18,0,0,1,.649-.526.506.506,0,0,0,.16-.232c.083-.192-.01-.245-.178-.255a2.536,2.536,0,0,0-.7.062,2.044,2.044,0,0,0-.934.618c-.319.3-.323.294-.135.636-.153.046-.233-.039-.278-.16a.733.733,0,0,0-.214-.316,3.523,3.523,0,0,1-.54-.726,2.6,2.6,0,0,1-.238-1.941c.022-.241.262-.341.5-.337.864.016,1.72-.064,2.58-.134a11.325,11.325,0,0,0,2.621-.551,2.621,2.621,0,0,1,.953-.178c.337.02.678.068.771.481.024.111.124.161.2.228-.112.252-.168.549-.408.714a4.657,4.657,0,0,1-1.049.553c-.236.087-.463.2-.692.3a.9.9,0,0,0-.555.857,3.462,3.462,0,0,0,.1,1.068c.026.1,0,.219.126.263s.213-.045.3-.115c.037-.03.076-.058.114-.087m2.368,3.441a.407.407,0,0,0,.216-.442,1.522,1.522,0,0,1,0-.287c.015-.174-.067-.228-.233-.206a7.536,7.536,0,0,1-1.1.047,5,5,0,0,0-1.191.089c-.105.023-.216.024-.238.159a.313.313,0,0,0,.119.321.935.935,0,0,0,.474.178.976.976,0,0,1,.331.075.838.838,0,0,1,.287.458.217.217,0,0,0,.2.2.782.782,0,0,1,.614.455.658.658,0,0,0,.361.305c.151.051.341.034.348-.14.016-.412.121-.85-.193-1.215M41.21,7.1c-.173-.784-.175-.791-.91-.837a25.784,25.784,0,0,0-3.469.022,2.087,2.087,0,0,0-.7.1c-.059.025-.135.033-.151.105a2.06,2.06,0,0,0-.112.6,7.082,7.082,0,0,1,.017.764c-.033,1.294-.073,2.587,0,3.882a1.187,1.187,0,0,0,.161.522.351.351,0,0,0,.616,0c.05-.08.056-.185.142-.245.064.459.064.461.557.462q1.711,0,3.423,0c.344,0,.343-.007.344-.354,0-.966-.02-1.933.029-2.9.035-.709.034-1.42.049-2.13" transform="translate(-5.308 -0.228)" fill="#f69c9e"/>
          <path id="パス_57" data-name="パス 57" d="M41.343,16.8a3.078,3.078,0,0,0-.919-.035,1.837,1.837,0,0,1-.781-.146c-.23-.1-.271-.23-.066-.356.261-.159.518-.43.877-.177a.111.111,0,0,0,.181-.052c.05-.162.177-.173.311-.167.771.039,1.543.046,2.313.109a9.611,9.611,0,0,0,1.364.045,6.936,6.936,0,0,1,.972.039c.279.022.337-.048.407-.305a2.67,2.67,0,0,0,.093-.92c-.072-.9-.044-1.8-.075-2.7-.024-.685-.028-1.371,0-2.058.013-.266-.017-.538-.017-.808,0-1.094,0-2.188,0-3.282,0-.359.034-.717.052-1.074a.792.792,0,0,0,.2.128.912.912,0,0,1,.657.979c.015.579.087,1.157.057,1.737a1.34,1.34,0,0,0-.039.379c0,.957,0,1.915,0,2.871,0,.533.009,1.067.013,1.6,0,.047,0,.094,0,.14a.286.286,0,0,0,.011.239l0,.159a.726.726,0,0,0-.008.431c0,.044,0,.089.005.132a.967.967,0,0,0-.007.437l0,.13a.045.045,0,0,0,0,.073c0,.04,0,.08,0,.12-.028.021-.03.043,0,.065,0,.045,0,.09,0,.135a.315.315,0,0,0-.013.252l.007.12a1.933,1.933,0,0,0,.02.645l-.007.319-.012.008.01.01c-.085.565-.369.734-1,.74-1.439.013-2.877.021-4.316.031-.013-.027-.028-.029-.043,0l-.252.007" transform="translate(-8.417 -1.049)" fill="#fde9ea"/>
          <path id="パス_58" data-name="パス 58" d="M9.4,20.272A.547.547,0,0,0,9.7,20a.268.268,0,0,1,.249-.164c.161-.01.319-.049.484-.048q3.1,0,6.2,0a9.44,9.44,0,0,1,1.095.079,1.578,1.578,0,0,0,.292.009c.393-.024.462-.119.488-.5.087-1.26-.1-2.516-.057-3.776.02-.638.031-1.275.1-1.91.164.111.379.093.54.209l0,.018h.017l.071.079v.021l.021.006.035.054a3.036,3.036,0,0,0,.14.607c0,.041.006.082.008.122a6.311,6.311,0,0,0,.027,1.266c0,.156,0,.311,0,.467l-.046.4.021.612c0,.044,0,.089,0,.134,0,.006-.013.013-.013.02a.308.308,0,0,0,.013.044l0,.131c0,.006-.013.011-.012.016a.124.124,0,0,0,.013.036v.144s-.013.01-.013.015a.124.124,0,0,0,.013.036c0,.045,0,.09,0,.135,0,.02,0,.041,0,.062v.127c0,.023,0,.045,0,.068,0,.042,0,.084,0,.126,0,.006-.013.013-.011.019a.156.156,0,0,0,.011.042c0,.046,0,.091,0,.136a.377.377,0,0,0-.009.248c0,.043,0,.087,0,.13,0,.022,0,.045,0,.068l0,.126a.3.3,0,0,0-.006.207,3.48,3.48,0,0,1-.134.813.32.32,0,0,1-.276.255,4.626,4.626,0,0,1-1.179.041l-.009-.014-.009.013-6.091.014a.018.018,0,0,0-.03,0l-.163,0a.024.024,0,0,0-.035,0l-.109,0h-.285a4.928,4.928,0,0,1-1.092-.046.7.7,0,0,1-.573-.437" transform="translate(-2.006 -2.923)" fill="#fde9ea"/>
          <path id="パス_59" data-name="パス 59" d="M60.849,19.9a13.57,13.57,0,0,0,1.2-.97c.163-.116.24-.3.386-.429a7.234,7.234,0,0,0,1.29-1.428,10.038,10.038,0,0,0,.658-1.012c.3-.584.706-1.105.97-1.705.055-.124.093-.256.142-.382a1.134,1.134,0,0,1,.151-.35,2.684,2.684,0,0,0,.616-1.506,2.035,2.035,0,0,1,.272-.69,5.99,5.99,0,0,0,.526-1.484.587.587,0,0,1,.72-.453,4.409,4.409,0,0,0,.827.032c.162-.01.363-.019.432.187.1.286-.08.477-.386.422-.215-.039-.406-.033-.513.194a1.633,1.633,0,0,0-.553.965c-.249.816-.516,1.627-.783,2.438a3.565,3.565,0,0,1-.2.437c-.179.367-.326.746-.482,1.122A12.1,12.1,0,0,1,64.8,17.43,15.95,15.95,0,0,1,62.233,20.2a.977.977,0,0,1-1.069.19.42.42,0,0,1-.315-.494" transform="translate(-12.983 -2.023)" fill="#fde9ea"/>
          <path id="パス_60" data-name="パス 60" d="M93,19.171c.02-.17.09-.272.289-.214.056.016.133.013.153-.044.076-.215.278-.248.454-.323a.313.313,0,0,0,.139-.1c.288-.459.8-.734,1.009-1.273.1-.262.389-.441.54-.7.121-.207.265-.4.389-.607a1.461,1.461,0,0,1,.365-.443.583.583,0,0,0,.251-.373.791.791,0,0,1,.215-.419,2.846,2.846,0,0,0,.617-1.295,2.508,2.508,0,0,1,.4-.783,2.028,2.028,0,0,0,.3-.651,4.4,4.4,0,0,1,.429-1.027,2.571,2.571,0,0,0,.292-.785,12.026,12.026,0,0,0,.1-2.114c.163.134.319.275.488.4a.617.617,0,0,1,.271.552,9.67,9.67,0,0,1-.059,1.555,6.763,6.763,0,0,1-.43,1.33c-.345.879-.744,1.734-1.153,2.586-.345.72-.825,1.356-1.216,2.047a22.706,22.706,0,0,1-1.934,2.666,2.055,2.055,0,0,1-.809.593.554.554,0,0,1-.511-.046A2.574,2.574,0,0,1,93,19.171" transform="translate(-19.846 -1.713)" fill="#fde9ea"/>
          <path id="パス_61" data-name="パス 61" d="M69.037,18.8c.042-.109.136-.153.229-.22.411-.293.948-.451,1.083-1.047a2.376,2.376,0,0,1,.443-.888,2.656,2.656,0,0,0,.38-.9,7.679,7.679,0,0,1,.487-1.249,4.92,4.92,0,0,0,.367-1.188c.082-.407.229-.8.3-1.205.131-.711.295-1.417.378-2.137a9.576,9.576,0,0,0,.061-2.029,7.026,7.026,0,0,1,.013-1.062l.491.275c0,.045.017.077.072.073a.21.21,0,0,0,.025.028v.021l.02.006.066.1c-.017.032,0,.049.031.051l.064.144c.024.287.05.575.074.862.006.09.013.18.018.27l-.012,0,.013,0c0,.064,0,.128,0,.192-.005,0-.015.009-.015.013a.228.228,0,0,0,.013.037c0,.108,0,.215,0,.323l-.013.009.014.008c0,.137-.009.274-.013.411l-.013.006a.129.129,0,0,0,.009.024c-.016.118-.032.237-.049.355l-.015.011.017.009a4.271,4.271,0,0,1-.144.762c-.141.816-.352,1.616-.491,2.434a17.8,17.8,0,0,1-1.283,4c-.224.523-.511,1.021-.769,1.53a.365.365,0,0,1-.205.182,2.858,2.858,0,0,1-1.319.113c-.135-.013-.37-.072-.334-.325" transform="translate(-14.732 -1.468)" fill="#fde9ea"/>
          <path id="パス_62" data-name="パス 62" d="M93.045,14.283a1.584,1.584,0,0,0-.513.466,5.964,5.964,0,0,1-1.16,1.187,1.4,1.4,0,0,0-.646.975,2.53,2.53,0,0,1-.492,1.193,2.824,2.824,0,0,1-1.618,1.147c-.047.012-.083.015-.1-.02-.116-.2-.356-.3-.44-.523.017-.257.231-.384.407-.5a5.014,5.014,0,0,0,1.589-1.675,4.393,4.393,0,0,1,.39-.549c.311-.366.6-.758.875-1.141a7.187,7.187,0,0,0,1.174-1.779.3.3,0,0,1,.07-.124,2.685,2.685,0,0,0,.7-1.213,1.789,1.789,0,0,1,.369-.613A2.376,2.376,0,0,0,94,10.364c.2-.523.356-.656.872-.612.637.055.643.13.395.685a1.12,1.12,0,0,0-.332.4c-.252.544-.522,1.079-.794,1.614-.325.636-.711,1.229-1.095,1.828" transform="translate(-18.794 -2.08)" fill="#fde9ea"/>
          <path id="パス_63" data-name="パス 63" d="M122.8,5.3c-.074-.09-.179-.064-.273-.067-2.339-.066-4.677-.028-7.016-.027-1.63,0-3.26.017-4.889.022a.863.863,0,0,0-.47.1.478.478,0,0,1-.161.051c-.325.062-.457.012-.5-.185a.513.513,0,0,1,.345-.621,2.561,2.561,0,0,1,.651-.09c2.014,0,4.027,0,6.04.009,1.108,0,2.217.008,3.324.058.632.029,1.263.013,1.895.029a3.066,3.066,0,0,0,.775-.083.3.3,0,0,0,.269-.334c0-.279.026-.558.047-.838.012-.155.068-.271.264-.2l.059,0v.013l.012,0a1,1,0,0,1,.4.884c-.024.341-.009.685,0,1.027,0,.127-.039.208-.176.2-.2-.02-.387.14-.6.063" transform="translate(-23.362 -0.662)" fill="#fde9ea"/>
          <path id="パス_64" data-name="パス 64" d="M123.839,20.51c-.046-.315-.035-.289.275-.322.273-.028.545-.069.821-.074.1,0,.135-.084.128-.169a1.952,1.952,0,0,0-.021-.465,4.548,4.548,0,0,1-.142-1.653c-.031-1.642-.02-3.286-.021-4.929a3.008,3.008,0,0,1,0-.761,1.679,1.679,0,0,1,.149-.451c.617,0,.85-.007.8.842-.016.262.013.527.013.791,0,1.964-.006,3.929.008,5.894,0,.5-.123.979-.1,1.474.006.12-.088.138-.174.155a4.935,4.935,0,0,1-1.265.033.5.5,0,0,1-.467-.365" transform="translate(-26.423 -2.494)" fill="#fde9ea"/>
          <path id="パス_65" data-name="パス 65" d="M130.315,20.884c.132-.151.323-.116.488-.129.208-.017.272-.09.313-.3.162-.846.008-1.7.118-2.55a.889.889,0,0,1,.337-.632,1.5,1.5,0,0,1,1.135-.332,2.633,2.633,0,0,0,2.523-1.136c.225-.29.473-.565.724-.835a1.561,1.561,0,0,1,1.383-.343.06.06,0,0,1,.024,0c.14.068.374-.047.429.147s-.166.287-.27.422c-.037.048-.116.065-.113.144a1.333,1.333,0,0,0-1,.7,1.315,1.315,0,0,0-.488.42,2.681,2.681,0,0,1-1.186.839,4.646,4.646,0,0,1-1.9.366,3.419,3.419,0,0,0-.706.035c-.132.031-.227.092-.226.239a4.8,4.8,0,0,0,.039,1.168,4.506,4.506,0,0,0,.045.982l-.015.006.017,0c.014.156.028.311.042.466-.079.164.037.322.018.484-.008.023-.017.045-.024.067-.145.384-.148.355-.573.4a1.949,1.949,0,0,1-.868-.072c-.163-.053-.236-.131-.219-.3.008-.085.05-.189-.042-.264" transform="translate(-27.809 -3.118)" fill="#fde9ea"/>
          <path id="パス_66" data-name="パス 66" d="M134.656,21.053c.046-.157.168-.186.319-.2a5.272,5.272,0,0,0,1.292-.2,6.9,6.9,0,0,0,2.2-1.141,1.034,1.034,0,0,1,.239-.162.938.938,0,0,0,.5-.525,4.9,4.9,0,0,1,.552-.755,6.4,6.4,0,0,0,.983-2.394,1.236,1.236,0,0,1,.375-.682c.175-.177.271-.148.37.084a.81.81,0,0,1,.024.4,9.155,9.155,0,0,1-.182,1.34,1.518,1.518,0,0,1-.2.538,5.54,5.54,0,0,0-.462.989l-.106.168-.018,0v.019a7.028,7.028,0,0,1-2.206,2.268,5.148,5.148,0,0,1-2.17.72,7.344,7.344,0,0,1-.852.048c-.43-.013-.548-.1-.663-.519" transform="translate(-28.735 -3.175)" fill="#fde9ea"/>
          <path id="パス_67" data-name="パス 67" d="M104.231,19.338c.006-.218.068-.4.32-.44a3.031,3.031,0,0,0,1.233-.7,10.911,10.911,0,0,0,1.694-1.741.318.318,0,0,0,.091-.166,2.172,2.172,0,0,1,.378-.872,4.938,4.938,0,0,0,.437-1.217c.068-.27.115-.545.182-.815a8.731,8.731,0,0,0,.075-1.614c.043-.679-.234-1.317-.214-1.989a.369.369,0,0,1,.382-.393c.306,0,.414.109.4.395a4.093,4.093,0,0,1-.308,1.048c-.019.061-.061.12-.042.182a6.313,6.313,0,0,1,.068,1.881,8.368,8.368,0,0,1-.353,2.549,7.036,7.036,0,0,0-.157,1.27,3.794,3.794,0,0,1-1.247,1.684,6.98,6.98,0,0,1-1.415,1.048,2.136,2.136,0,0,1-1.145.235c-.229-.014-.286-.2-.382-.345" transform="translate(-22.243 -2.004)" fill="#fde9ea"/>
          <path id="パス_68" data-name="パス 68" d="M31.347,21.054c-.006-.175.046-.281.257-.293a1.115,1.115,0,0,0,.576-.24.6.6,0,0,0,.287-.568c-.13-1.482-.076-2.967-.075-4.451,0-.28.038-.558.062-.835.017-.21.126-.274.306-.213a14.152,14.152,0,0,1,1.4.345.5.5,0,0,0,.485-.09,1.226,1.226,0,0,1,.727-.146c.166,0,.218.077.235.234a.886.886,0,0,1-.437.937,1.067,1.067,0,0,1-1.1-.425c.056-.215-.149-.26-.26-.3-.153-.056-.265.087-.356.208a.4.4,0,0,0-.252.4c-.035.422.006.842.009,1.264.006.93.014,1.86.021,2.789l-.017,0,.016.02c0,.071-.009.141-.013.212l-.017.006.015.027q-.015.276-.03.551a6.509,6.509,0,0,0-.168.632c-.009.013-.018.026-.027.039h-.017v.017c-.323.422-.787.315-1.213.281-.2-.017-.318-.23-.423-.4" transform="translate(-6.689 -3.08)" fill="#fde9ea"/>
          <path id="パス_69" data-name="パス 69" d="M111,21.6c-.007-.107.062-.158.15-.193a.332.332,0,0,0,.211-.183c.055-.135.192-.1.3-.1.476-.012.488.1.492-.5s-.024-1.18.034-1.77c.05-.5.227-.606.716-.617a3.588,3.588,0,0,0,1.371-.286,2.6,2.6,0,0,0,.984-.754,3.831,3.831,0,0,1,.889-.728.522.522,0,0,1,.8.469c0,.079,0,.159,0,.238a8.009,8.009,0,0,1-2.391,1.663,1.925,1.925,0,0,1-1.184.135c-.016,0-.032,0-.048,0-.366-.039-.389-.024-.39.327,0,.783-.009,1.565,0,2.346,0,.192-.038.257-.249.256-.352,0-.7.032-1.056,0a.8.8,0,0,1-.631-.3" transform="translate(-23.687 -3.495)" fill="#fde9ea"/>
          <path id="パス_70" data-name="パス 70" d="M123.778,9.955c-.493.018-.98-.078-1.475-.066a17.877,17.877,0,0,1-1.9-.035,4.534,4.534,0,0,1-1.063-.02.53.53,0,0,1-.313-.164.283.283,0,0,1,.173-.488,11.7,11.7,0,0,1,2.38-.134c.74-.009,1.481.031,2.222-.006a1.784,1.784,0,0,0,.549-.029.5.5,0,0,0,.347-.389,8.715,8.715,0,0,0,.153-1.222c.018-.142.041-.283.062-.426l.085.016c.021.079.061.129.155.094l.059.06c-.013.035,0,.043.035.034l.041.042,0,.012.012,0a.93.93,0,0,1,.291.7,6.984,6.984,0,0,1-.049,1.209.489.489,0,0,1-.273.377,1.509,1.509,0,0,1-.665.245,2.135,2.135,0,0,0-.817.2" transform="translate(-25.382 -1.489)" fill="#fde9ea"/>
          <path id="パス_71" data-name="パス 71" d="M146.717,16.6a1.739,1.739,0,0,1-.47.16c-.142.01-.238-.047-.262-.16a1.5,1.5,0,0,1-.076-1c.064-.142-.036-.28-.07-.417a.655.655,0,0,1,.5-.794,11.4,11.4,0,0,1,2.037-.186c.512-.016,1.023-.038,1.535-.046.163,0,.214-.072.208-.219-.011-.295-.02-.59-.018-.885,0-.2-.029-.42.16-.575.511.167.58.286.588.963,0,.272-.02.544-.006.815a1.221,1.221,0,0,1-.119.524c-.077.185-.331.236-.538.264a6.243,6.243,0,0,1-.8.064c-.79.006-1.58,0-2.37,0-.035-.047-.065-.042-.089.009l-.105.065-.017,0,0,.017-.036.035c-.05-.007-.07.016-.066.062l-.122.16c-.185.165-.029.289.053.422.007.034.013.067.02.1-.034.051-.017.086.036.109l.033.143a.139.139,0,0,0,0,.217c0,.053-.006.106-.008.159" transform="translate(-31.118 -2.663)" fill="#fde9ea"/>
          <path id="パス_72" data-name="パス 72" d="M77.688,21.478a12.936,12.936,0,0,0,2.638-1.27,5.218,5.218,0,0,0,1.163-1.243.507.507,0,0,0,.081-.223,13.922,13.922,0,0,1,.53-1.535c0-.019.029-.033.06-.065a3.186,3.186,0,0,1,.391,1.363l-.009.106-.011.013.008.014a2.8,2.8,0,0,0-.134.522,3.653,3.653,0,0,1-1.872,2.16,11.01,11.01,0,0,1-1.218.6,2.025,2.025,0,0,1-1.476.022c-.2-.062-.129-.3-.151-.466" transform="translate(-16.579 -3.658)" fill="#fde9ea"/>
          <path id="パス_73" data-name="パス 73" d="M148.985,9.118a.311.311,0,0,0-.156.175.815.815,0,0,1-.739.429c-.233.012-.37-.184-.529-.311-.087-.07.016-.1.08-.109.388-.079.4-.077.45-.453a.915.915,0,0,1,.588-.758c.455-.194.908-.39,1.362-.585a.5.5,0,0,0,.385-.6q-.048-1.268-.089-2.536c-.013-.418.088-.558.481-.7a.606.606,0,0,1,.435.665c0,.98-.042,1.959-.1,2.939-.044.794-.16.992-.969,1.117a1.8,1.8,0,0,0-1.2.724" transform="translate(-31.482 -0.784)" fill="#fde9ea"/>
          <path id="パス_74" data-name="パス 74" d="M20.14,10.536a1.648,1.648,0,0,1-.864.359c-.281.011-.339-.04-.316-.311a.88.88,0,0,1,.309-.677,1.1,1.1,0,0,0,.308-.456,14.2,14.2,0,0,1,.7-1.426,3.231,3.231,0,0,0,.277-.936,5.068,5.068,0,0,1,.422-.989,2.875,2.875,0,0,0,.307-1.273,4.248,4.248,0,0,0,.008-1.19,1.136,1.136,0,0,0,.452.3c.129.105.123.293.253.4a.277.277,0,0,1-.026.257h-.01l0,.01A8.677,8.677,0,0,1,21.2,7.856c-.311.8-.64,1.6-.975,2.39a2.244,2.244,0,0,0-.083.291" transform="translate(-4.045 -0.776)" fill="#fde9ea"/>
          <path id="パス_75" data-name="パス 75" d="M.84,15.8a.486.486,0,0,1,.306-.058H6.231a1.478,1.478,0,0,1,.2.009c.334.044.363.014.359-.319,0-.151.034-.3.039-.453a3.467,3.467,0,0,0-.067-1.142,5.015,5.015,0,0,1-.006-.784c-.013-.1.093-.163.154-.237.035-.045.082-.086.145-.062s.064.089.061.144c-.009.2-.026.4-.035.6-.032.59.1,1.178.028,1.769a.577.577,0,0,1-.141.37c-.16.169-.131.4-.174.61a.8.8,0,0,1-.051.256c-.529,0-1.058.011-1.587.012q-1.759,0-3.517,0a.591.591,0,0,1-.692-.5A1.74,1.74,0,0,0,.84,15.8" transform="translate(-0.179 -2.721)" fill="#fde9ea"/>
          <path id="パス_76" data-name="パス 76" d="M33.358,5.528l-.114.088c-.088.07-.173.16-.3.114s-.1-.164-.126-.263a3.484,3.484,0,0,1-.1-1.068.9.9,0,0,1,.555-.857c.23-.1.456-.216.692-.3a4.657,4.657,0,0,0,1.049-.553c.24-.165.3-.463.408-.714.688.109.879.4.657,1.052a.721.721,0,0,1-.411.475,6.943,6.943,0,0,0-.813.432,2.881,2.881,0,0,1-.9.348c-.345.067-.463.312-.543.6a3.524,3.524,0,0,0-.065.377c-.062.041-.063.083,0,.124l.019.15" transform="translate(-6.981 -0.421)" fill="#fde9ea"/>
          <path id="パス_77" data-name="パス 77" d="M26.732,17.453c-.035-.374.224-.58.481-.773.324-.245.684-.444,1.012-.678s.577-.574.908-.82c.1-.072.192-.148.292-.215a.289.289,0,0,1,.323,0c.114.068.082.177.053.279a3.475,3.475,0,0,1-.4.788.8.8,0,0,0-.141.368,3.3,3.3,0,0,1-1.3.964c-.121.061-.241.125-.361.188-.117.033-.244-.034-.359.033l-.109.006a.161.161,0,0,0-.184,0,.551.551,0,0,1-.214-.135" transform="translate(-5.704 -3.183)" fill="#fde9ea"/>
          <path id="パス_78" data-name="パス 78" d="M52.918,20.623c.039-.158.171-.14.291-.153.608-.065,1.218-.037,1.828-.041a9.847,9.847,0,0,0,1.774-.1,1.048,1.048,0,0,1,.751.131c.109.066.181.114.061.229-.085.082-.083.232-.223.27-.566.069-1.133.126-1.7.212a5.9,5.9,0,0,1-.873.023,8.651,8.651,0,0,1-1.34-.024c-.5-.076-.4-.1-.574-.545" transform="translate(-11.293 -4.334)" fill="#fde9ea"/>
          <path id="パス_79" data-name="パス 79" d="M61.842,3.3A11.463,11.463,0,0,1,60,3.421a2.3,2.3,0,0,1-.887-.182c.073-.057.161-.093.2-.157.219-.4.622-.383.994-.424.307-.033.616-.038.923-.06a.729.729,0,0,0,.754-.584c.025-.079.05-.157.143-.175.183-.035.225-.252.4-.293l0,0,.043.04a.949.949,0,0,1-.422,1.6c-.1.034-.207.07-.31.105" transform="translate(-12.614 -0.33)" fill="#fde9ea"/>
          <path id="パス_80" data-name="パス 80" d="M8.747,7.675c-.2,0-.406,0-.609.006-.124,0-.173-.052-.173-.172,0-1.162,0-2.324,0-3.485,0-.247.177-.295.386-.286l.014.006.013.017.022,0c.3.08.355.279.35.563-.017,1.117-.007,2.236-.008,3.353" transform="translate(-1.7 -0.798)" fill="#fde9ea"/>
          <path id="パス_81" data-name="パス 81" d="M77.848,9.567A2.942,2.942,0,0,0,79.3,8.3a.676.676,0,0,1,.562-.37.4.4,0,0,1,.385.159.378.378,0,0,1,.05.381,6,6,0,0,1-.935,1.489c-.289.4-.7.328-1.107.3-.024,0-.047-.006-.071-.009a.328.328,0,0,1-.335-.375c0-.1,0-.2,0-.306" transform="translate(-16.612 -1.691)" fill="#fde9ea"/>
          <path id="パス_82" data-name="パス 82" d="M70.281,4.865c-.09,0-.179,0-.269,0-.383,0-.4-.02-.448-.4a2.213,2.213,0,0,1,.034-.573c.081-.646.024-1.294.048-1.941a1.746,1.746,0,0,1,.058-.634,1.458,1.458,0,0,0,.319.238.631.631,0,0,1,.409.75,16.308,16.308,0,0,1-.053,1.744c-.05.273-.039.55-.1.82" transform="translate(-14.843 -0.28)" fill="#fde9ea"/>
          <path id="パス_83" data-name="パス 83" d="M103.682,14.073c.187-.083.456-.051.572-.165.211-.207.495-.219.714-.377a3.141,3.141,0,0,1,1.06-.338.275.275,0,0,1,.3.118c.084.108-.017.176-.06.255a2.407,2.407,0,0,0-.393.683c-.023.118-.163.084-.242.131s-.186-.039-.235.075l-.083.032a.057.057,0,0,0-.087.026,2.353,2.353,0,0,1-.587.214.849.849,0,0,1-.96-.654" transform="translate(-22.126 -2.813)" fill="#fde9ea"/>
          <path id="パス_84" data-name="パス 84" d="M26.92,9.971c.009-.128.058-.2.211-.2.585,0,1.168-.059,1.754-.036a.45.45,0,0,1,.4.636.272.272,0,0,1-.293.165,4.346,4.346,0,0,0-.776.067c-.146-.009-.292-.013-.437-.031a1.25,1.25,0,0,1-.86-.6" transform="translate(-5.745 -2.077)" fill="#fde9ea"/>
          <path id="パス_85" data-name="パス 85" d="M91.675,3.324c-.069.053-.139.106-.208.161a.627.627,0,0,1-.739-.021.652.652,0,0,1,.059-.769,1.764,1.764,0,0,0,.35-.363c.09-.146.174-.323.406-.263a.488.488,0,0,1,.4.428c.01.071.014.143.021.214a2.077,2.077,0,0,1-.289.614" transform="translate(-19.34 -0.439)" fill="#fde9ea"/>
          <path id="パス_86" data-name="パス 86" d="M10.443,5.048c.04-.094.12-.111.215-.127a5.105,5.105,0,0,1,1.5-.02c.175.021.248.062.233.261-.035.486-.12.569-.617.592-.229.011-.451-.053-.677-.031l-.078-.035c0-.029-.018-.035-.044-.028a1.666,1.666,0,0,1-.536-.612" transform="translate(-2.229 -1.036)" fill="#fde9ea"/>
          <path id="パス_87" data-name="パス 87" d="M77.761,14.625a2.267,2.267,0,0,0,.838.032,5.633,5.633,0,0,1,1.24-.06c.215,0,.3.1.29.29a1.451,1.451,0,0,1-.071.47c-.453,0-.906.015-1.358.009a.553.553,0,0,1-.411-.222,4.178,4.178,0,0,0-.528-.521" transform="translate(-16.594 -3.114)" fill="#fde9ea"/>
          <path id="パス_88" data-name="パス 88" d="M84.159,1.883c-.024.417.04.834-.015,1.251-.018.132.021.271.006.4-.026.227-.148.29-.357.189a.494.494,0,0,1-.345-.516,7.621,7.621,0,0,0-.007-.837A.66.66,0,0,1,84,1.656c.077.059.165.11.156.227" transform="translate(-17.806 -0.354)" fill="#fde9ea"/>
          <path id="パス_89" data-name="パス 89" d="M85.044,18.815c-.049-.153-.144-.289.028-.449.245-.227.435-.529.846-.45a.224.224,0,0,1,.185.168,1.382,1.382,0,0,1,.017.616c-.023.146-.2.168-.314.236a.79.79,0,0,1-.182.057l-.227-.019a.089.089,0,0,0-.117-.026l-.1-.045c0-.025-.013-.032-.034-.011l-.061-.031,0-.014-.013.006a.13.13,0,0,1-.025-.036" transform="translate(-18.133 -3.821)" fill="#fde9ea"/>
          <path id="パス_90" data-name="パス 90" d="M120.244,18.554c.139-.177.3-.088.475-.061a1.556,1.556,0,0,1,.948.526c.11.121.256.264.084.45a4.458,4.458,0,0,1-1.507-.915" transform="translate(-25.66 -3.937)" fill="#fde9ea"/>
          <path id="パス_91" data-name="パス 91" d="M118.285,1.567c-.239.151-.5.067-.75.059a.085.085,0,0,1-.083-.075A1.648,1.648,0,0,1,117.484.7a1.811,1.811,0,0,0,.285.184.879.879,0,0,1,.517.686" transform="translate(-25.055 -0.149)" fill="#fde9ea"/>
          <path id="パス_92" data-name="パス 92" d="M48.971,13.381c0-.533-.013-1.067-.013-1.6,0-.957,0-1.914,0-2.871A1.369,1.369,0,0,1,49,8.53q.006,1.532.009,3.062c0,.447,0,.894,0,1.34a1.151,1.151,0,0,1-.033.448" transform="translate(-10.448 -1.82)" fill="#fde9ea"/>
          <path id="パス_93" data-name="パス 93" d="M142.305,19.018a5.648,5.648,0,0,1,.461-.989c.029.292-.163.5-.288.732a2.922,2.922,0,0,1-.173.256" transform="translate(-30.368 -3.848)" fill="#fde9ea"/>
          <path id="パス_94" data-name="パス 94" d="M34.036,15.369c.09-.121.2-.264.356-.208.111.04.315.085.259.3-.19-.126-.414-.032-.614-.091" transform="translate(-7.263 -3.233)" fill="#fde9ea"/>
          <path id="パス_95" data-name="パス 95" d="M22.745,4.422c-.13-.105-.124-.294-.253-.4.244,0,.3.086.253.4" transform="translate(-4.8 -0.858)" fill="#fde9ea"/>
          <path id="パス_96" data-name="パス 96" d="M74.85,8.626c-.025-.287-.05-.575-.075-.862a1.183,1.183,0,0,1,.075.862" transform="translate(-15.957 -1.657)" fill="#fde9ea"/>
          <path id="パス_97" data-name="パス 97" d="M22.054,14.794a2.992,2.992,0,0,1-.141-.608c.208.168.167.389.141.608" transform="translate(-4.676 -3.027)" fill="#fde9ea"/>
          <path id="パス_98" data-name="パス 98" d="M33.483,22.76a6.5,6.5,0,0,1,.167-.632.683.683,0,0,1-.167.632" transform="translate(-7.145 -4.722)" fill="#fde9ea"/>
          <path id="パス_99" data-name="パス 99" d="M22.121,16.38a6.31,6.31,0,0,1-.026-1.266,6.953,6.953,0,0,1,.026,1.266" transform="translate(-4.71 -3.225)" fill="#fde9ea"/>
          <path id="パス_100" data-name="パス 100" d="M22.094,18.329a3.86,3.86,0,0,1,.026-1.012,4.684,4.684,0,0,1-.026,1.012" transform="translate(-4.71 -3.696)" fill="#fde9ea"/>
          <path id="パス_101" data-name="パス 101" d="M146.815,16.679c-.083-.133-.238-.256-.053-.422.042.138.144.268.053.422" transform="translate(-31.3 -3.469)" fill="#fde9ea"/>
          <path id="パス_102" data-name="パス 102" d="M132.5,22.672c.019-.162-.1-.32-.018-.484.1.158.157.318.018.484" transform="translate(-28.265 -4.735)" fill="#fde9ea"/>
          <path id="パス_103" data-name="パス 103" d="M27.378,18.3c.114-.067.241,0,.358-.033a.291.291,0,0,1-.358.033" transform="translate(-5.842 -3.898)" fill="#fde9ea"/>
          <path id="パス_104" data-name="パス 104" d="M48.993,18.434a1.931,1.931,0,0,1-.02-.645,1.62,1.62,0,0,1,.02.645" transform="translate(-10.447 -3.796)" fill="#fde9ea"/>
          <path id="パス_105" data-name="パス 105" d="M150.284,23.175a.41.41,0,0,1,.279,0,.265.265,0,0,1-.279,0" transform="translate(-32.07 -4.941)" fill="#751019"/>
          <path id="パス_106" data-name="パス 106" d="M146.956,17.459a.139.139,0,0,1,0-.217.148.148,0,0,1,0,.217" transform="translate(-31.349 -3.68)" fill="#fde9ea"/>
          <path id="パス_107" data-name="パス 107" d="M48.969,15.813a.732.732,0,0,1,.008-.431.888.888,0,0,1-.008.431" transform="translate(-10.444 -3.283)" fill="#fde9ea"/>
          <path id="パス_108" data-name="パス 108" d="M48.969,16.535a.977.977,0,0,1,.006-.437.773.773,0,0,1-.006.437" transform="translate(-10.445 -3.435)" fill="#fde9ea"/>
          <path id="パス_109" data-name="パス 109" d="M150.773,23.157a.414.414,0,0,1,.28-.019.515.515,0,0,1-.28.019" transform="translate(-32.175 -4.934)" fill="#751019"/>
          <path id="パス_110" data-name="パス 110" d="M27,18.306a.16.16,0,0,1,.183,0,.139.139,0,0,1-.183,0" transform="translate(-5.763 -3.901)" fill="#fde9ea"/>
          <path id="パス_111" data-name="パス 111" d="M126.793,7.085c-.094.035-.134-.014-.156-.094.089-.027.14,0,.156.094" transform="translate(-27.024 -1.49)" fill="#fde9ea"/>
          <path id="パス_112" data-name="パス 112" d="M33.5,6.267c-.061-.042-.061-.084,0-.124.062.042.06.083,0,.124" transform="translate(-7.139 -1.311)" fill="#fde9ea"/>
          <path id="パス_113" data-name="パス 113" d="M48.962,17.569a.317.317,0,0,1,.013-.253.271.271,0,0,1-.013.253" transform="translate(-10.444 -3.696)" fill="#751019"/>
          <path id="パス_114" data-name="パス 114" d="M48.981,15.114a.286.286,0,0,1-.011-.239.27.27,0,0,1,.011.239" transform="translate(-10.446 -3.174)" fill="#fde9ea"/>
          <path id="パス_115" data-name="パス 115" d="M22.087,20.491a.372.372,0,0,1,.009-.248.263.263,0,0,1-.009.248" transform="translate(-4.71 -4.32)" fill="#fde9ea"/>
          <path id="パス_116" data-name="パス 116" d="M149.606,23.155a.461.461,0,0,1,.278,0,.371.371,0,0,1-.278,0" transform="translate(-31.926 -4.937)" fill="#751019"/>
          <path id="パス_117" data-name="パス 117" d="M145.871,22.3c.079-.03.113.019.141.079a.106.106,0,0,1-.141-.079" transform="translate(-31.129 -4.756)" fill="#751019"/>
          <path id="パス_118" data-name="パス 118" d="M85.362,19.227a.089.089,0,0,1,.117.026.083.083,0,0,1-.117-.026" transform="translate(-18.216 -4.101)" fill="#751019"/>
          <path id="パス_119" data-name="パス 119" d="M22.091,21.176a.293.293,0,0,1,.006-.207.2.2,0,0,1-.006.207" transform="translate(-4.711 -4.475)" fill="#fde9ea"/>
          <path id="パス_120" data-name="パス 120" d="M147.223,15.817c.024-.051.054-.056.089-.009a.055.055,0,0,1-.089.009" transform="translate(-31.417 -3.367)" fill="#751019"/>
          <path id="パス_121" data-name="パス 121" d="M146.91,17.03c-.052-.024-.07-.058-.036-.109a.066.066,0,0,1,.036.109" transform="translate(-31.339 -3.611)" fill="#751019"/>
          <path id="パス_122" data-name="パス 122" d="M74.5,7.3c-.053,0-.07-.028-.072-.074A.071.071,0,0,1,74.5,7.3" transform="translate(-15.882 -1.542)" fill="#751019"/>
          <path id="パス_123" data-name="パス 123" d="M149.294,23.156a.159.159,0,0,1,.134,0,.116.116,0,0,1-.134,0" transform="translate(-31.859 -4.939)" fill="#751019"/>
          <path id="パス_124" data-name="パス 124" d="M105.648,14.864a.056.056,0,0,1,.087-.026c-.018.042-.048.048-.087.026" transform="translate(-22.545 -3.164)" fill="#751019"/>
          <path id="パス_125" data-name="パス 125" d="M146.941,16.037c0-.047.017-.069.065-.062.01.053-.014.071-.065.062" transform="translate(-31.357 -3.409)" fill="#751019"/>
          <path id="パス_126" data-name="パス 126" d="M22.1,20.791c0-.023,0-.045,0-.068a.039.039,0,0,1,0,.068" transform="translate(-4.715 -4.422)" fill="#fde9ea"/>
          <path id="パス_127" data-name="パス 127" d="M22.1,20.055a.276.276,0,0,1-.012-.042c0-.006.007-.013.011-.019.029.02.031.04,0,.061" transform="translate(-4.714 -4.267)" fill="#fde9ea"/>
          <path id="パス_128" data-name="パス 128" d="M22.1,19.816c0-.023,0-.045,0-.068a.038.038,0,0,1,0,.068" transform="translate(-4.715 -4.214)" fill="#fde9ea"/>
          <path id="パス_129" data-name="パス 129" d="M11.516,22.668h.09a.062.062,0,0,1-.09,0" transform="translate(-2.457 -4.837)" fill="#751019"/>
          <path id="パス_130" data-name="パス 130" d="M22.1,19.569c0-.02,0-.042,0-.062.028.022.026.042,0,.062" transform="translate(-4.715 -4.163)" fill="#fde9ea"/>
          <path id="パス_131" data-name="パス 131" d="M11.765,22.667h.09a.06.06,0,0,1-.09,0" transform="translate(-2.511 -4.837)" fill="#751019"/>
          <path id="パス_132" data-name="パス 132" d="M11.125,5.878c.026-.007.043,0,.045.028-.028.009-.041,0-.045-.028" transform="translate(-2.374 -1.254)" fill="#751019"/>
          <path id="パス_133" data-name="パス 133" d="M74.889,9.507a.2.2,0,0,1-.013-.036s.009-.009.015-.013a.259.259,0,0,1,.007.034s-.006.01-.009.015" transform="translate(-15.978 -2.018)" fill="#751019"/>
          <path id="パス_134" data-name="パス 134" d="M22.1,19.322a.192.192,0,0,1-.011-.036s.007-.01.011-.015c.03.017.028.034,0,.051" transform="translate(-4.714 -4.113)" fill="#fde9ea"/>
          <path id="パス_135" data-name="パス 135" d="M48.975,16.891a.045.045,0,0,1,0-.074.047.047,0,0,1,0,.074" transform="translate(-10.447 -3.589)" fill="#751019"/>
          <path id="パス_136" data-name="パス 136" d="M126.944,7.222c-.032.009-.048,0-.035-.034.03-.007.042,0,.035.034" transform="translate(-27.081 -1.534)" fill="#751019"/>
          <path id="パス_137" data-name="パス 137" d="M85.187,19.156c.02-.021.03-.014.034.011-.018.016-.03.013-.034-.011" transform="translate(-18.179 -4.085)" fill="#751019"/>
          <path id="パス_138" data-name="パス 138" d="M48.981,17.128c-.031-.021-.028-.043,0-.065a.337.337,0,0,1,.011.045c0,.006-.007.013-.011.02" transform="translate(-10.448 -3.641)" fill="#751019"/>
          <path id="パス_139" data-name="パス 139" d="M22.1,19.075a.192.192,0,0,1-.011-.036s.007-.01.011-.016c.028.017.03.035,0,.052" transform="translate(-4.714 -4.06)" fill="#fde9ea"/>
          <path id="パス_140" data-name="パス 140" d="M22.1,18.838a.306.306,0,0,1-.012-.044c0-.006.007-.013.011-.02.029.021.029.042,0,.064" transform="translate(-4.713 -4.007)" fill="#fde9ea"/>
          <path id="パス_141" data-name="パス 141" d="M74.685,7.567c-.035,0-.047-.019-.031-.052q.051.006.031.052" transform="translate(-15.929 -1.604)" fill="#751019"/>
          <path id="パス_142" data-name="パス 142" d="M21.862,14.11l-.021-.006v-.021l.02.006Z" transform="translate(-4.661 -3.006)" fill="#fde9ea"/>
          <path id="パス_143" data-name="パス 143" d="M74.567,7.382l-.021-.006,0-.021.02.006Z" transform="translate(-15.908 -1.57)" fill="#751019"/>
          <path id="パス_144" data-name="パス 144" d="M48.989,19.032l-.01-.009.012-.008.009.009Z" transform="translate(-10.452 -4.058)" fill="#751019"/>
          <path id="パス_145" data-name="パス 145" d="M83.853,19.035l-.009-.014.011-.013.016.024-.018,0" transform="translate(-17.892 -4.056)" fill="#751019"/>
          <path id="パス_146" data-name="パス 146" d="M85.095,19.107l.013-.006,0,.013-.013,0Z" transform="translate(-18.159 -4.076)" fill="#751019"/>
          <path id="パス_147" data-name="パス 147" d="M74.89,9.211l-.013,0,.013,0v.008" transform="translate(-15.979 -1.964)" fill="#751019"/>
          <path id="パス_148" data-name="パス 148" d="M74.893,9.947l-.014-.009.014-.008v.017" transform="translate(-15.979 -2.119)" fill="#751019"/>
          <path id="パス_149" data-name="パス 149" d="M147.07,15.924l0-.017.017,0,0,.017Z" transform="translate(-31.384 -3.395)" fill="#751019"/>
          <path id="パス_150" data-name="パス 150" d="M142.145,19.523V19.5l.018,0v.017Z" transform="translate(-30.334 -4.161)" fill="#751019"/>
          <path id="パス_151" data-name="パス 151" d="M74.872,10.5a.224.224,0,0,1-.009-.024l.013-.006a.019.019,0,0,1,0,.03" transform="translate(-15.976 -2.235)" fill="#751019"/>
          <path id="パス_152" data-name="パス 152" d="M42.179,20.012c.015-.028.029-.026.044,0l-.024.008Z" transform="translate(-9.001 -4.266)" fill="#751019"/>
          <path id="パス_153" data-name="パス 153" d="M22.772,4.868l0-.01.011,0,0,.009Z" transform="translate(-4.859 -1.036)" fill="#751019"/>
          <path id="パス_154" data-name="パス 154" d="M33.749,21.11l-.016-.02.017,0,.007.012Z" transform="translate(-7.199 -4.5)" fill="#751019"/>
          <path id="パス_155" data-name="パス 155" d="M33.73,21.418c0-.009-.009-.018-.015-.027l.017-.006a.019.019,0,0,1,0,.033" transform="translate(-7.195 -4.564)" fill="#751019"/>
          <path id="パス_156" data-name="パス 156" d="M132.43,21.592l-.017,0,.016-.006v.01" transform="translate(-28.257 -4.606)" fill="#751019"/>
          <path id="パス_157" data-name="パス 157" d="M8.515,3.759l-.022,0L8.48,3.745c.017-.008.029,0,.035.014" transform="translate(-1.81 -0.799)" fill="#751019"/>
          <path id="パス_158" data-name="パス 158" d="M126.882,3.14l-.012,0V3.132l.011,0Z" transform="translate(-27.074 -0.668)" fill="#751019"/>
          <path id="パス_159" data-name="パス 159" d="M20.051,22.637l.009-.013.009.014h-.018" transform="translate(-4.279 -4.828)" fill="#751019"/>
          <path id="パス_160" data-name="パス 160" d="M74.811,10.983l-.017-.009.015-.012.008.01Z" transform="translate(-15.961 -2.339)" fill="#751019"/>
          <path id="パス_161" data-name="パス 161" d="M12.016,22.662a.024.024,0,0,1,.035,0l-.035,0" transform="translate(-2.564 -4.834)" fill="#751019"/>
          <path id="パス_162" data-name="パス 162" d="M12.268,22.657a.02.02,0,0,1,.031,0l-.015.013Z" transform="translate(-2.618 -4.833)" fill="#751019"/>
          <path id="パス_163" data-name="パス 163" d="M33.427,23v-.017h.017V23Z" transform="translate(-7.133 -4.905)" fill="#751019"/>
          <path id="パス_164" data-name="パス 164" d="M63.5,1.591l-.043-.041c.028,0,.045.011.043.041" transform="translate(-13.542 -0.331)" fill="#751019"/>
          <path id="パス_165" data-name="パス 165" d="M21.745,13.979h-.018l0-.018h.017Z" transform="translate(-4.636 -2.979)" fill="#f69c9e"/>
          <path id="パス_166" data-name="パス 166" d="M127.012,7.293,127,7.3l0-.012.012,0Z" transform="translate(-27.102 -1.554)" fill="#751019"/>
          <path id="パス_167" data-name="パス 167" d="M145.771,6.524c-1.487.1-2.92.05-4.352.048-.529,0-1.056.008-1.585.013a.671.671,0,0,1-.242-.007c-.13-.051-.346.046-.382-.165A.448.448,0,0,1,139.6,5.9a11.39,11.39,0,0,1,1.537-.028c.813,0,1.628.01,2.441-.008.617-.013,1.235.009,1.852-.029a1.944,1.944,0,0,1,.653.063c.194.056.315.169.281.385s-.187.26-.377.252c-.089,0-.178-.01-.212-.013" transform="translate(-29.706 -1.245)" fill="#fde9ea"/>
          <path id="パス_168" data-name="パス 168" d="M133.7,11.159a1.1,1.1,0,0,1-.8.2.634.634,0,0,0-.577.179l-.011,0,.012-.009c-.01.06-.021.119-.031.178a.545.545,0,0,0,.013.484c.009.046.016.094.025.14-.028.027-.029.051.006.072l0,.123c-.075.123-.036.27-.123.4-.15.228-.314.271-.521.078a.881.881,0,0,1-.266-.627,6.841,6.841,0,0,1,.09-1.573c.043-.247.275-.18.434-.179a4.081,4.081,0,0,0,.624.072.414.414,0,0,0,.349-.217.627.627,0,0,1,1.027-.05.21.21,0,0,1,.024.223.79.79,0,0,0-.08.323l-.067.084c-.045,0-.094-.013-.069.06l-.039.03-.016-.011Z" transform="translate(-28.045 -2.175)" fill="#fde9ea"/>
          <path id="パス_169" data-name="パス 169" d="M131.418,6.821a4.382,4.382,0,0,1,.188-1.318.993.993,0,0,1,.92-.643,4.746,4.746,0,0,1,.755.04c.251.031.321.131.335.385s-.156.244-.318.269c-.233.037-.465.087-.7.116a.5.5,0,0,0-.448.459,2.189,2.189,0,0,0-.077.711,1.182,1.182,0,0,1-.145.6.241.241,0,0,1-.247.16c-.121,0-.157-.093-.193-.186a1.913,1.913,0,0,1-.072-.593" transform="translate(-28.044 -1.037)" fill="#fde9ea"/>
          <path id="パス_170" data-name="パス 170" d="M135.669,7.394a.669.669,0,0,1,.193-.451.2.2,0,0,1,.25-.092.23.23,0,0,1,.172.256c-.029.187-.073.372-.115.557a.115.115,0,0,1-.147.09c-.131-.028-.281-.04-.333-.2a.812.812,0,0,1-.02-.164" transform="translate(-28.951 -1.459)" fill="#fde9ea"/>
          <path id="パス_171" data-name="パス 171" d="M113.882,9.6a5.517,5.517,0,0,1,1.259.1c.135.041.188.1.2.223.039.437-.042.523-.475.532a8.907,8.907,0,0,1-1.311,0c-.641-.087-1.3.143-1.922-.149a.7.7,0,0,1-.282-.478c.04-.181.2-.164.336-.165.732-.006,1.463,0,2.195,0V9.6" transform="translate(-23.762 -2.048)" fill="#fde9ea"/>
          <path id="パス_172" data-name="パス 172" d="M113.912,14.386a.672.672,0,0,1-.1,0c-.342-.047-.625,0-.729.389a.412.412,0,0,1-.113.154.4.4,0,0,1-.361.1c-.129-.022-.105-.167-.122-.262a1.373,1.373,0,0,1,.054-.616.544.544,0,0,1,.388-.4,4.348,4.348,0,0,1,1.647-.077.326.326,0,0,1,.306.384c0,.211-.148.293-.338.3-.211.01-.422,0-.634,0v.02" transform="translate(-24.002 -2.909)" fill="#fde9ea"/>
          <path id="パス_173" data-name="パス 173" d="M121.125,14.378a2.848,2.848,0,0,1-.92-.064c-.17-.044-.305-.112-.309-.308s.12-.255.306-.289a5.014,5.014,0,0,1,1.31-.06.446.446,0,0,1,.43.386c.05.205-.039.314-.234.33s-.389,0-.584,0" transform="translate(-25.586 -2.911)" fill="#fde9ea"/>
          <path id="パス_174" data-name="パス 174" d="M64.147,11.237c-.068.318-.053.642-.138.964a3.212,3.212,0,0,1-.364.872,1.67,1.67,0,0,0-.289.85c0,.164-.042.352-.293.324-.208-.022-.267-.122-.234-.385a.492.492,0,0,1,.11-.286,1.67,1.67,0,0,0,.392-.988c.083-.812.122-1.625.137-2.44.009-.547.083-.608.643-.6.2,0,.391.009.587,0a.367.367,0,0,1,.373.257c.062.159.05.311-.174.334-.149.015-.2.081-.173.222-.529.142-.543.233-.579.689l-.013,0,.012.006c0,.058,0,.116,0,.175" transform="translate(-13.406 -2.037)" fill="#fde9ea"/>
          <path id="パス_175" data-name="パス 175" d="M92.411,8.834a1.812,1.812,0,0,1-.626.731.47.47,0,0,0-.168.26,4.675,4.675,0,0,1-.673,1.189c-.543.778-1.2,1.468-1.793,2.2a3.773,3.773,0,0,1-.863.866c-.067.043-.123.119-.215.069a.244.244,0,0,1-.109-.2.434.434,0,0,1,.162-.384,12.3,12.3,0,0,0,.968-1.2.528.528,0,0,0,.14-.3.42.42,0,0,1,.176-.277,1.656,1.656,0,0,0,.43-.517,24.29,24.29,0,0,0,1.148-2.158c.244-.649.65-.592,1.153-.367a.806.806,0,0,0,.268.09" transform="translate(-18.771 -1.833)" fill="#fde9ea"/>
          <path id="パス_176" data-name="パス 176" d="M85.97,10.958a6.59,6.59,0,0,0,.16-.993,1.563,1.563,0,0,1,.515-.741,2.942,2.942,0,0,0,.595-.807,3.742,3.742,0,0,1,1.021-1.074.385.385,0,0,1,.481,0c.149.128.11.305.027.463a1.131,1.131,0,0,1-.148.219c-.665.752-1.157,1.634-1.852,2.366a2.808,2.808,0,0,0-.562.747c-.027.06-.067.124-.146.093-.105-.042-.081-.144-.092-.274" transform="translate(-18.346 -1.549)" fill="#fde9ea"/>
          <path id="パス_177" data-name="パス 177" d="M84.2,10.044c-.012.16-.124.248-.3.252a.507.507,0,0,1-.411-.444c0-.164.2-.285.469-.289.12,0,.249.238.245.482" transform="translate(-17.816 -2.041)" fill="#fde9ea"/>
          <path id="パス_178" data-name="パス 178" d="M16.154,6.42l-.128-.065a.673.673,0,0,0-.381-.2l-.009-.009c0-.1-.067-.1-.127-.065-.157.083-.275.192-.208.392a2.362,2.362,0,0,0-.521.84,6.518,6.518,0,0,1-.754,1.34,14.468,14.468,0,0,1-1.491,1.779,4.534,4.534,0,0,1-.477.507,4.068,4.068,0,0,1-1.14.319,1.539,1.539,0,0,1-.654.033c-.086-.025-.186-.035-.217-.133s.056-.148.115-.194a6.133,6.133,0,0,1,.715-.53,7.341,7.341,0,0,0,1.427-1.292,12.955,12.955,0,0,0,1.236-1.7,2.806,2.806,0,0,0,.391-.769,2.37,2.37,0,0,1,.688-1,.63.63,0,0,1,.6-.12,3.8,3.8,0,0,0,1.35.264c.154-.013.325.03.364.182.046.181.115.389-.057.56l-.055,0a.055.055,0,0,0-.081-.018,1.483,1.483,0,0,1-.575-.112l0-.01-.008.007" transform="translate(-2.143 -1.179)" fill="#fde9ea"/>
          <path id="パス_179" data-name="パス 179" d="M16.471,16.846c-1.38,0-2.759.059-4.139-.019-.1-.006-.211,0-.316,0l-.076.006-.109.029-.015,0v.015a1.443,1.443,0,0,0-.129.688.676.676,0,0,1-.047.374c-.071.014-.142.033-.213.041-.3.033-.453-.075-.465-.366-.015-.359,0-.719.006-1.078a.364.364,0,0,1,.373-.39,2.191,2.191,0,0,1,.535-.024,7.286,7.286,0,0,0,1.089-.061c1.115,0,2.228-.072,3.342-.018a1.482,1.482,0,0,1,.378.087c.127.042.3.072.286.246a.507.507,0,0,1-.3.407c-.062.031-.149.006-.2.072" transform="translate(-2.338 -3.418)" fill="#fde9ea"/>
          <path id="パス_180" data-name="パス 180" d="M3.908,6.694a.423.423,0,0,0-.469.176,1.086,1.086,0,0,1-.672.29c-.166.042-.254-.1-.33-.233a.379.379,0,0,1,0-.447,1.736,1.736,0,0,1,1.353-.643,1.019,1.019,0,0,1,.706.123c.143.093.261.186.241.378s-.182.224-.324.278c-.045.017-.093.024-.139.037l-.108-.006H4.146a.354.354,0,0,0-.238.047" transform="translate(-0.504 -1.243)" fill="#fde9ea"/>
          <path id="パス_181" data-name="パス 181" d="M3.524,11.069c.264.05.536.1.805.154a.161.161,0,0,1,.148.164.21.21,0,0,1-.148.2,2.19,2.19,0,0,0-.888.632.493.493,0,0,1-.573.149c-.27-.09-.5-.322-.492-.5a.638.638,0,0,1,.54-.67c.2-.044.4-.083.606-.126" transform="translate(-0.507 -2.362)" fill="#fde9ea"/>
          <path id="パス_182" data-name="パス 182" d="M44.186,8.5l-.146-.019a.6.6,0,0,0-.411,0,6.35,6.35,0,0,1-.923.02c-.8,0-1.607,0-2.41,0-.124,0-.26-.039-.372.056-.1,0-.18.036-.177.145,0,.219.022.437.035.656,0,.141.005.282.009.422a6.989,6.989,0,0,0-.06,1.177c.035.682.011,1.366.015,2.049a.432.432,0,0,0,.035.277c0,.045,0,.089.006.134-.086.061-.092.165-.142.245a.351.351,0,0,1-.616,0,1.187,1.187,0,0,1-.161-.522c-.077-1.295-.037-2.588,0-3.882a7.082,7.082,0,0,0-.017-.764,2.059,2.059,0,0,1,.112-.6c.017-.072.092-.08.151-.105a2.088,2.088,0,0,1,.7-.1,25.784,25.784,0,0,1,3.469-.022c.735.046.737.053.91.837" transform="translate(-8.284 -1.625)" fill="#fde9ea"/>
          <path id="パス_183" data-name="パス 183" d="M34.231,10.546a.953.953,0,0,0-.331-.075.935.935,0,0,1-.474-.178.314.314,0,0,1-.119-.321c.022-.135.133-.136.238-.159a5.034,5.034,0,0,1,1.19-.09,7.312,7.312,0,0,0,1.1-.047c.166-.021.248.032.233.207a1.521,1.521,0,0,0,0,.287.408.408,0,0,1-.215.442,9.017,9.017,0,0,0-1.622-.067" transform="translate(-7.106 -2.064)" fill="#fde9ea"/>
          <path id="パス_184" data-name="パス 184" d="M28.04,6.237c-.188-.341-.184-.337.136-.636a2.037,2.037,0,0,1,.934-.618,2.537,2.537,0,0,1,.7-.063c.168.01.261.064.178.256a.511.511,0,0,1-.159.232,6.1,6.1,0,0,0-.65.525.987.987,0,0,1-1.135.306l0,0" transform="translate(-5.957 -1.049)" fill="#fde9ea"/>
          <path id="パス_185" data-name="パス 185" d="M132.533,12.606a.543.543,0,0,1-.013-.483,1.112,1.112,0,0,1,.013.483" transform="translate(-28.269 -2.587)" fill="#751019"/>
          <path id="パス_186" data-name="パス 186" d="M134.4,11.36c-.025-.074.024-.065.07-.061,0,.049-.023.068-.07.061" transform="translate(-28.679 -2.411)" fill="#751019"/>
          <path id="パス_187" data-name="パス 187" d="M132.583,12.987c-.036-.021-.034-.046-.007-.072.034.021.031.046.007.072" transform="translate(-28.287 -2.756)" fill="#751019"/>
          <path id="パス_188" data-name="パス 188" d="M134.32,11.417l.009-.016.016.011-.009.015Z" transform="translate(-28.664 -2.433)" fill="#751019"/>
          <path id="パス_189" data-name="パス 189" d="M132.57,11.9l-.012.009.011,0v0" transform="translate(-28.288 -2.539)" fill="#751019"/>
          <path id="パス_190" data-name="パス 190" d="M64.5,11.46v.012l-.012-.007Z" transform="translate(-13.761 -2.446)" fill="#751019"/>
          <path id="パス_191" data-name="パス 191" d="M16.724,6.622c-.067-.2.051-.308.208-.392.06-.032.127-.038.127.065-.168.054-.169.271-.334.327" transform="translate(-3.565 -1.325)" fill="#fde9ea"/>
          <path id="パス_192" data-name="パス 192" d="M17.166,6.329a.669.669,0,0,1,.38.2c-.167.007-.341.03-.38-.2" transform="translate(-3.663 -1.351)" fill="#fde9ea"/>
          <path id="パス_193" data-name="パス 193" d="M18.557,6.808a.054.054,0,0,1,.081.018.054.054,0,0,1-.081-.018" transform="translate(-3.96 -1.451)" fill="#fde9ea"/>
          <path id="パス_194" data-name="パス 194" d="M17.812,6.661l.008-.007,0,.01-.008.006Z" transform="translate(-3.801 -1.42)" fill="#751019"/>
          <path id="パス_195" data-name="パス 195" d="M12.208,17.049l.076-.006c-.024.032-.049.035-.076.006" transform="translate(-2.605 -3.637)" fill="#751019"/>
          <path id="パス_196" data-name="パス 196" d="M12.049,17.1V17.08l.015.006,0,.014Z" transform="translate(-2.571 -3.645)" fill="#751019"/>
          <path id="パス_197" data-name="パス 197" d="M4.645,6.87l-.007.013L4.63,6.87h.015" transform="translate(-0.988 -1.466)" fill="#751019"/>
          <path id="パス_198" data-name="パス 198" d="M40.024,13.873a.439.439,0,0,1-.036-.278c0-.683.02-1.367-.014-2.048a7.071,7.071,0,0,1,.059-1.177q0,1.752-.009,3.5" transform="translate(-8.529 -2.213)" fill="#fde9ea"/>
          <path id="パス_199" data-name="パス 199" d="M40.03,9.615c-.013-.219-.03-.437-.035-.655,0-.109.077-.146.178-.145-.193.241-.075.536-.142.8" transform="translate(-8.535 -1.881)" fill="#fde9ea"/>
          <path id="パス_200" data-name="パス 200" d="M44.932,8.7a.6.6,0,0,1,.412,0,.8.8,0,0,1-.412,0" transform="translate(-9.588 -1.85)" fill="#fde9ea"/>
        </g>
      </g>
    </g>
    <g id="sns" transform="translate(-3 91)">
      <g id="グループ_28" data-name="グループ 28" transform="translate(-7 14)">
        <text id="BLOG" transform="translate(120 3434)" fill="#fff" font-size="11" font-family="BIZ-UDPGothic-Bold, BIZ UDPGothic" font-weight="700" letter-spacing="0.01em"><tspan x="0" y="0">BLOG</tspan></text>
      </g>
    </g>
  </g>
</svg>
